<?xml version="1.0" encoding="utf-8" standalone="no"?>
<!DOCTYPE svg PUBLIC "-//W3C//DTD SVG 1.1//EN"
  "http://www.w3.org/Graphics/SVG/1.1/DTD/svg11.dtd">
<!-- Created with matplotlib (https://matplotlib.org/) -->
<svg height="686.98pt" version="1.1" viewBox="0 0 1211.50375 686.98" width="1211.50375pt" xmlns="http://www.w3.org/2000/svg" xmlns:xlink="http://www.w3.org/1999/xlink">
 <defs>
  <style type="text/css">
*{stroke-linecap:butt;stroke-linejoin:round;}
  </style>
 </defs>
 <g id="figure_1">
  <g id="patch_1">
   <path d="M 0 686.98 
L 1211.50375 686.98 
L 1211.50375 0 
L 0 0 
z
" style="fill:#ffffff;"/>
  </g>
  <g id="axes_1">
   <g id="patch_2">
    <path d="M 74.30625 622.8 
L 581.578977 622.8 
L 581.578977 79.2 
L 74.30625 79.2 
z
" style="fill:#eaeaf2;"/>
   </g>
   <g id="matplotlib.axis_1">
    <g id="xtick_1">
     <g id="line2d_1">
      <path clip-path="url(#pd4e69f8798)" d="M 83.364692 622.8 
L 83.364692 79.2 
" style="fill:none;stroke:#ffffff;stroke-linecap:round;"/>
     </g>
     <g id="text_1">
      <!-- 1990 -->
      <defs>
       <path d="M 12.40625 8.296875 
L 28.515625 8.296875 
L 28.515625 63.921875 
L 10.984375 60.40625 
L 10.984375 69.390625 
L 28.421875 72.90625 
L 38.28125 72.90625 
L 38.28125 8.296875 
L 54.390625 8.296875 
L 54.390625 0 
L 12.40625 0 
z
" id="DejaVuSans-49"/>
       <path d="M 10.984375 1.515625 
L 10.984375 10.5 
Q 14.703125 8.734375 18.5 7.8125 
Q 22.3125 6.890625 25.984375 6.890625 
Q 35.75 6.890625 40.890625 13.453125 
Q 46.046875 20.015625 46.78125 33.40625 
Q 43.953125 29.203125 39.59375 26.953125 
Q 35.25 24.703125 29.984375 24.703125 
Q 19.046875 24.703125 12.671875 31.3125 
Q 6.296875 37.9375 6.296875 49.421875 
Q 6.296875 60.640625 12.9375 67.421875 
Q 19.578125 74.21875 30.609375 74.21875 
Q 43.265625 74.21875 49.921875 64.515625 
Q 56.59375 54.828125 56.59375 36.375 
Q 56.59375 19.140625 48.40625 8.859375 
Q 40.234375 -1.421875 26.421875 -1.421875 
Q 22.703125 -1.421875 18.890625 -0.6875 
Q 15.09375 0.046875 10.984375 1.515625 
z
M 30.609375 32.421875 
Q 37.25 32.421875 41.125 36.953125 
Q 45.015625 41.5 45.015625 49.421875 
Q 45.015625 57.28125 41.125 61.84375 
Q 37.25 66.40625 30.609375 66.40625 
Q 23.96875 66.40625 20.09375 61.84375 
Q 16.21875 57.28125 16.21875 49.421875 
Q 16.21875 41.5 20.09375 36.953125 
Q 23.96875 32.421875 30.609375 32.421875 
z
" id="DejaVuSans-57"/>
       <path d="M 31.78125 66.40625 
Q 24.171875 66.40625 20.328125 58.90625 
Q 16.5 51.421875 16.5 36.375 
Q 16.5 21.390625 20.328125 13.890625 
Q 24.171875 6.390625 31.78125 6.390625 
Q 39.453125 6.390625 43.28125 13.890625 
Q 47.125 21.390625 47.125 36.375 
Q 47.125 51.421875 43.28125 58.90625 
Q 39.453125 66.40625 31.78125 66.40625 
z
M 31.78125 74.21875 
Q 44.046875 74.21875 50.515625 64.515625 
Q 56.984375 54.828125 56.984375 36.375 
Q 56.984375 17.96875 50.515625 8.265625 
Q 44.046875 -1.421875 31.78125 -1.421875 
Q 19.53125 -1.421875 13.0625 8.265625 
Q 6.59375 17.96875 6.59375 36.375 
Q 6.59375 54.828125 13.0625 64.515625 
Q 19.53125 74.21875 31.78125 74.21875 
z
" id="DejaVuSans-48"/>
      </defs>
      <g style="fill:#262626;" transform="translate(86.400004 660.295)rotate(-90)scale(0.11 -0.11)">
       <use xlink:href="#DejaVuSans-49"/>
       <use x="63.623047" xlink:href="#DejaVuSans-57"/>
       <use x="127.246094" xlink:href="#DejaVuSans-57"/>
       <use x="190.869141" xlink:href="#DejaVuSans-48"/>
      </g>
     </g>
    </g>
    <g id="xtick_2">
     <g id="line2d_2">
      <path clip-path="url(#pd4e69f8798)" d="M 101.481575 622.8 
L 101.481575 79.2 
" style="fill:none;stroke:#ffffff;stroke-linecap:round;"/>
     </g>
     <g id="text_2">
      <!-- 1991 -->
      <g style="fill:#262626;" transform="translate(104.516887 660.295)rotate(-90)scale(0.11 -0.11)">
       <use xlink:href="#DejaVuSans-49"/>
       <use x="63.623047" xlink:href="#DejaVuSans-57"/>
       <use x="127.246094" xlink:href="#DejaVuSans-57"/>
       <use x="190.869141" xlink:href="#DejaVuSans-49"/>
      </g>
     </g>
    </g>
    <g id="xtick_3">
     <g id="line2d_3">
      <path clip-path="url(#pd4e69f8798)" d="M 119.598458 622.8 
L 119.598458 79.2 
" style="fill:none;stroke:#ffffff;stroke-linecap:round;"/>
     </g>
     <g id="text_3">
      <!-- 1992 -->
      <defs>
       <path d="M 19.1875 8.296875 
L 53.609375 8.296875 
L 53.609375 0 
L 7.328125 0 
L 7.328125 8.296875 
Q 12.9375 14.109375 22.625 23.890625 
Q 32.328125 33.6875 34.8125 36.53125 
Q 39.546875 41.84375 41.421875 45.53125 
Q 43.3125 49.21875 43.3125 52.78125 
Q 43.3125 58.59375 39.234375 62.25 
Q 35.15625 65.921875 28.609375 65.921875 
Q 23.96875 65.921875 18.8125 64.3125 
Q 13.671875 62.703125 7.8125 59.421875 
L 7.8125 69.390625 
Q 13.765625 71.78125 18.9375 73 
Q 24.125 74.21875 28.421875 74.21875 
Q 39.75 74.21875 46.484375 68.546875 
Q 53.21875 62.890625 53.21875 53.421875 
Q 53.21875 48.921875 51.53125 44.890625 
Q 49.859375 40.875 45.40625 35.40625 
Q 44.1875 33.984375 37.640625 27.21875 
Q 31.109375 20.453125 19.1875 8.296875 
z
" id="DejaVuSans-50"/>
      </defs>
      <g style="fill:#262626;" transform="translate(122.63377 660.295)rotate(-90)scale(0.11 -0.11)">
       <use xlink:href="#DejaVuSans-49"/>
       <use x="63.623047" xlink:href="#DejaVuSans-57"/>
       <use x="127.246094" xlink:href="#DejaVuSans-57"/>
       <use x="190.869141" xlink:href="#DejaVuSans-50"/>
      </g>
     </g>
    </g>
    <g id="xtick_4">
     <g id="line2d_4">
      <path clip-path="url(#pd4e69f8798)" d="M 137.715341 622.8 
L 137.715341 79.2 
" style="fill:none;stroke:#ffffff;stroke-linecap:round;"/>
     </g>
     <g id="text_4">
      <!-- 1993 -->
      <defs>
       <path d="M 40.578125 39.3125 
Q 47.65625 37.796875 51.625 33 
Q 55.609375 28.21875 55.609375 21.1875 
Q 55.609375 10.40625 48.1875 4.484375 
Q 40.765625 -1.421875 27.09375 -1.421875 
Q 22.515625 -1.421875 17.65625 -0.515625 
Q 12.796875 0.390625 7.625 2.203125 
L 7.625 11.71875 
Q 11.71875 9.328125 16.59375 8.109375 
Q 21.484375 6.890625 26.8125 6.890625 
Q 36.078125 6.890625 40.9375 10.546875 
Q 45.796875 14.203125 45.796875 21.1875 
Q 45.796875 27.640625 41.28125 31.265625 
Q 36.765625 34.90625 28.71875 34.90625 
L 20.21875 34.90625 
L 20.21875 43.015625 
L 29.109375 43.015625 
Q 36.375 43.015625 40.234375 45.921875 
Q 44.09375 48.828125 44.09375 54.296875 
Q 44.09375 59.90625 40.109375 62.90625 
Q 36.140625 65.921875 28.71875 65.921875 
Q 24.65625 65.921875 20.015625 65.03125 
Q 15.375 64.15625 9.8125 62.3125 
L 9.8125 71.09375 
Q 15.4375 72.65625 20.34375 73.4375 
Q 25.25 74.21875 29.59375 74.21875 
Q 40.828125 74.21875 47.359375 69.109375 
Q 53.90625 64.015625 53.90625 55.328125 
Q 53.90625 49.265625 50.4375 45.09375 
Q 46.96875 40.921875 40.578125 39.3125 
z
" id="DejaVuSans-51"/>
      </defs>
      <g style="fill:#262626;" transform="translate(140.750653 660.295)rotate(-90)scale(0.11 -0.11)">
       <use xlink:href="#DejaVuSans-49"/>
       <use x="63.623047" xlink:href="#DejaVuSans-57"/>
       <use x="127.246094" xlink:href="#DejaVuSans-57"/>
       <use x="190.869141" xlink:href="#DejaVuSans-51"/>
      </g>
     </g>
    </g>
    <g id="xtick_5">
     <g id="line2d_5">
      <path clip-path="url(#pd4e69f8798)" d="M 155.832224 622.8 
L 155.832224 79.2 
" style="fill:none;stroke:#ffffff;stroke-linecap:round;"/>
     </g>
     <g id="text_5">
      <!-- 1994 -->
      <defs>
       <path d="M 37.796875 64.3125 
L 12.890625 25.390625 
L 37.796875 25.390625 
z
M 35.203125 72.90625 
L 47.609375 72.90625 
L 47.609375 25.390625 
L 58.015625 25.390625 
L 58.015625 17.1875 
L 47.609375 17.1875 
L 47.609375 0 
L 37.796875 0 
L 37.796875 17.1875 
L 4.890625 17.1875 
L 4.890625 26.703125 
z
" id="DejaVuSans-52"/>
      </defs>
      <g style="fill:#262626;" transform="translate(158.867537 660.295)rotate(-90)scale(0.11 -0.11)">
       <use xlink:href="#DejaVuSans-49"/>
       <use x="63.623047" xlink:href="#DejaVuSans-57"/>
       <use x="127.246094" xlink:href="#DejaVuSans-57"/>
       <use x="190.869141" xlink:href="#DejaVuSans-52"/>
      </g>
     </g>
    </g>
    <g id="xtick_6">
     <g id="line2d_6">
      <path clip-path="url(#pd4e69f8798)" d="M 173.949107 622.8 
L 173.949107 79.2 
" style="fill:none;stroke:#ffffff;stroke-linecap:round;"/>
     </g>
     <g id="text_6">
      <!-- 1995 -->
      <defs>
       <path d="M 10.796875 72.90625 
L 49.515625 72.90625 
L 49.515625 64.59375 
L 19.828125 64.59375 
L 19.828125 46.734375 
Q 21.96875 47.46875 24.109375 47.828125 
Q 26.265625 48.1875 28.421875 48.1875 
Q 40.625 48.1875 47.75 41.5 
Q 54.890625 34.8125 54.890625 23.390625 
Q 54.890625 11.625 47.5625 5.09375 
Q 40.234375 -1.421875 26.90625 -1.421875 
Q 22.3125 -1.421875 17.546875 -0.640625 
Q 12.796875 0.140625 7.71875 1.703125 
L 7.71875 11.625 
Q 12.109375 9.234375 16.796875 8.0625 
Q 21.484375 6.890625 26.703125 6.890625 
Q 35.15625 6.890625 40.078125 11.328125 
Q 45.015625 15.765625 45.015625 23.390625 
Q 45.015625 31 40.078125 35.4375 
Q 35.15625 39.890625 26.703125 39.890625 
Q 22.75 39.890625 18.8125 39.015625 
Q 14.890625 38.140625 10.796875 36.28125 
z
" id="DejaVuSans-53"/>
      </defs>
      <g style="fill:#262626;" transform="translate(176.98442 660.295)rotate(-90)scale(0.11 -0.11)">
       <use xlink:href="#DejaVuSans-49"/>
       <use x="63.623047" xlink:href="#DejaVuSans-57"/>
       <use x="127.246094" xlink:href="#DejaVuSans-57"/>
       <use x="190.869141" xlink:href="#DejaVuSans-53"/>
      </g>
     </g>
    </g>
    <g id="xtick_7">
     <g id="line2d_7">
      <path clip-path="url(#pd4e69f8798)" d="M 192.06599 622.8 
L 192.06599 79.2 
" style="fill:none;stroke:#ffffff;stroke-linecap:round;"/>
     </g>
     <g id="text_7">
      <!-- 1996 -->
      <defs>
       <path d="M 33.015625 40.375 
Q 26.375 40.375 22.484375 35.828125 
Q 18.609375 31.296875 18.609375 23.390625 
Q 18.609375 15.53125 22.484375 10.953125 
Q 26.375 6.390625 33.015625 6.390625 
Q 39.65625 6.390625 43.53125 10.953125 
Q 47.40625 15.53125 47.40625 23.390625 
Q 47.40625 31.296875 43.53125 35.828125 
Q 39.65625 40.375 33.015625 40.375 
z
M 52.59375 71.296875 
L 52.59375 62.3125 
Q 48.875 64.0625 45.09375 64.984375 
Q 41.3125 65.921875 37.59375 65.921875 
Q 27.828125 65.921875 22.671875 59.328125 
Q 17.53125 52.734375 16.796875 39.40625 
Q 19.671875 43.65625 24.015625 45.921875 
Q 28.375 48.1875 33.59375 48.1875 
Q 44.578125 48.1875 50.953125 41.515625 
Q 57.328125 34.859375 57.328125 23.390625 
Q 57.328125 12.15625 50.6875 5.359375 
Q 44.046875 -1.421875 33.015625 -1.421875 
Q 20.359375 -1.421875 13.671875 8.265625 
Q 6.984375 17.96875 6.984375 36.375 
Q 6.984375 53.65625 15.1875 63.9375 
Q 23.390625 74.21875 37.203125 74.21875 
Q 40.921875 74.21875 44.703125 73.484375 
Q 48.484375 72.75 52.59375 71.296875 
z
" id="DejaVuSans-54"/>
      </defs>
      <g style="fill:#262626;" transform="translate(195.101303 660.295)rotate(-90)scale(0.11 -0.11)">
       <use xlink:href="#DejaVuSans-49"/>
       <use x="63.623047" xlink:href="#DejaVuSans-57"/>
       <use x="127.246094" xlink:href="#DejaVuSans-57"/>
       <use x="190.869141" xlink:href="#DejaVuSans-54"/>
      </g>
     </g>
    </g>
    <g id="xtick_8">
     <g id="line2d_8">
      <path clip-path="url(#pd4e69f8798)" d="M 210.182873 622.8 
L 210.182873 79.2 
" style="fill:none;stroke:#ffffff;stroke-linecap:round;"/>
     </g>
     <g id="text_8">
      <!-- 1997 -->
      <defs>
       <path d="M 8.203125 72.90625 
L 55.078125 72.90625 
L 55.078125 68.703125 
L 28.609375 0 
L 18.3125 0 
L 43.21875 64.59375 
L 8.203125 64.59375 
z
" id="DejaVuSans-55"/>
      </defs>
      <g style="fill:#262626;" transform="translate(213.218186 660.295)rotate(-90)scale(0.11 -0.11)">
       <use xlink:href="#DejaVuSans-49"/>
       <use x="63.623047" xlink:href="#DejaVuSans-57"/>
       <use x="127.246094" xlink:href="#DejaVuSans-57"/>
       <use x="190.869141" xlink:href="#DejaVuSans-55"/>
      </g>
     </g>
    </g>
    <g id="xtick_9">
     <g id="line2d_9">
      <path clip-path="url(#pd4e69f8798)" d="M 228.299756 622.8 
L 228.299756 79.2 
" style="fill:none;stroke:#ffffff;stroke-linecap:round;"/>
     </g>
     <g id="text_9">
      <!-- 1998 -->
      <defs>
       <path d="M 31.78125 34.625 
Q 24.75 34.625 20.71875 30.859375 
Q 16.703125 27.09375 16.703125 20.515625 
Q 16.703125 13.921875 20.71875 10.15625 
Q 24.75 6.390625 31.78125 6.390625 
Q 38.8125 6.390625 42.859375 10.171875 
Q 46.921875 13.96875 46.921875 20.515625 
Q 46.921875 27.09375 42.890625 30.859375 
Q 38.875 34.625 31.78125 34.625 
z
M 21.921875 38.8125 
Q 15.578125 40.375 12.03125 44.71875 
Q 8.5 49.078125 8.5 55.328125 
Q 8.5 64.0625 14.71875 69.140625 
Q 20.953125 74.21875 31.78125 74.21875 
Q 42.671875 74.21875 48.875 69.140625 
Q 55.078125 64.0625 55.078125 55.328125 
Q 55.078125 49.078125 51.53125 44.71875 
Q 48 40.375 41.703125 38.8125 
Q 48.828125 37.15625 52.796875 32.3125 
Q 56.78125 27.484375 56.78125 20.515625 
Q 56.78125 9.90625 50.3125 4.234375 
Q 43.84375 -1.421875 31.78125 -1.421875 
Q 19.734375 -1.421875 13.25 4.234375 
Q 6.78125 9.90625 6.78125 20.515625 
Q 6.78125 27.484375 10.78125 32.3125 
Q 14.796875 37.15625 21.921875 38.8125 
z
M 18.3125 54.390625 
Q 18.3125 48.734375 21.84375 45.5625 
Q 25.390625 42.390625 31.78125 42.390625 
Q 38.140625 42.390625 41.71875 45.5625 
Q 45.3125 48.734375 45.3125 54.390625 
Q 45.3125 60.0625 41.71875 63.234375 
Q 38.140625 66.40625 31.78125 66.40625 
Q 25.390625 66.40625 21.84375 63.234375 
Q 18.3125 60.0625 18.3125 54.390625 
z
" id="DejaVuSans-56"/>
      </defs>
      <g style="fill:#262626;" transform="translate(231.335069 660.295)rotate(-90)scale(0.11 -0.11)">
       <use xlink:href="#DejaVuSans-49"/>
       <use x="63.623047" xlink:href="#DejaVuSans-57"/>
       <use x="127.246094" xlink:href="#DejaVuSans-57"/>
       <use x="190.869141" xlink:href="#DejaVuSans-56"/>
      </g>
     </g>
    </g>
    <g id="xtick_10">
     <g id="line2d_10">
      <path clip-path="url(#pd4e69f8798)" d="M 246.41664 622.8 
L 246.41664 79.2 
" style="fill:none;stroke:#ffffff;stroke-linecap:round;"/>
     </g>
     <g id="text_10">
      <!-- 1999 -->
      <g style="fill:#262626;" transform="translate(249.451952 660.295)rotate(-90)scale(0.11 -0.11)">
       <use xlink:href="#DejaVuSans-49"/>
       <use x="63.623047" xlink:href="#DejaVuSans-57"/>
       <use x="127.246094" xlink:href="#DejaVuSans-57"/>
       <use x="190.869141" xlink:href="#DejaVuSans-57"/>
      </g>
     </g>
    </g>
    <g id="xtick_11">
     <g id="line2d_11">
      <path clip-path="url(#pd4e69f8798)" d="M 264.533523 622.8 
L 264.533523 79.2 
" style="fill:none;stroke:#ffffff;stroke-linecap:round;"/>
     </g>
     <g id="text_11">
      <!-- 2000 -->
      <g style="fill:#262626;" transform="translate(267.568835 660.295)rotate(-90)scale(0.11 -0.11)">
       <use xlink:href="#DejaVuSans-50"/>
       <use x="63.623047" xlink:href="#DejaVuSans-48"/>
       <use x="127.246094" xlink:href="#DejaVuSans-48"/>
       <use x="190.869141" xlink:href="#DejaVuSans-48"/>
      </g>
     </g>
    </g>
    <g id="xtick_12">
     <g id="line2d_12">
      <path clip-path="url(#pd4e69f8798)" d="M 282.650406 622.8 
L 282.650406 79.2 
" style="fill:none;stroke:#ffffff;stroke-linecap:round;"/>
     </g>
     <g id="text_12">
      <!-- 2001 -->
      <g style="fill:#262626;" transform="translate(285.685718 660.295)rotate(-90)scale(0.11 -0.11)">
       <use xlink:href="#DejaVuSans-50"/>
       <use x="63.623047" xlink:href="#DejaVuSans-48"/>
       <use x="127.246094" xlink:href="#DejaVuSans-48"/>
       <use x="190.869141" xlink:href="#DejaVuSans-49"/>
      </g>
     </g>
    </g>
    <g id="xtick_13">
     <g id="line2d_13">
      <path clip-path="url(#pd4e69f8798)" d="M 300.767289 622.8 
L 300.767289 79.2 
" style="fill:none;stroke:#ffffff;stroke-linecap:round;"/>
     </g>
     <g id="text_13">
      <!-- 2002 -->
      <g style="fill:#262626;" transform="translate(303.802601 660.295)rotate(-90)scale(0.11 -0.11)">
       <use xlink:href="#DejaVuSans-50"/>
       <use x="63.623047" xlink:href="#DejaVuSans-48"/>
       <use x="127.246094" xlink:href="#DejaVuSans-48"/>
       <use x="190.869141" xlink:href="#DejaVuSans-50"/>
      </g>
     </g>
    </g>
    <g id="xtick_14">
     <g id="line2d_14">
      <path clip-path="url(#pd4e69f8798)" d="M 318.884172 622.8 
L 318.884172 79.2 
" style="fill:none;stroke:#ffffff;stroke-linecap:round;"/>
     </g>
     <g id="text_14">
      <!-- 2003 -->
      <g style="fill:#262626;" transform="translate(321.919485 660.295)rotate(-90)scale(0.11 -0.11)">
       <use xlink:href="#DejaVuSans-50"/>
       <use x="63.623047" xlink:href="#DejaVuSans-48"/>
       <use x="127.246094" xlink:href="#DejaVuSans-48"/>
       <use x="190.869141" xlink:href="#DejaVuSans-51"/>
      </g>
     </g>
    </g>
    <g id="xtick_15">
     <g id="line2d_15">
      <path clip-path="url(#pd4e69f8798)" d="M 337.001055 622.8 
L 337.001055 79.2 
" style="fill:none;stroke:#ffffff;stroke-linecap:round;"/>
     </g>
     <g id="text_15">
      <!-- 2004 -->
      <g style="fill:#262626;" transform="translate(340.036368 660.295)rotate(-90)scale(0.11 -0.11)">
       <use xlink:href="#DejaVuSans-50"/>
       <use x="63.623047" xlink:href="#DejaVuSans-48"/>
       <use x="127.246094" xlink:href="#DejaVuSans-48"/>
       <use x="190.869141" xlink:href="#DejaVuSans-52"/>
      </g>
     </g>
    </g>
    <g id="xtick_16">
     <g id="line2d_16">
      <path clip-path="url(#pd4e69f8798)" d="M 355.117938 622.8 
L 355.117938 79.2 
" style="fill:none;stroke:#ffffff;stroke-linecap:round;"/>
     </g>
     <g id="text_16">
      <!-- 2005 -->
      <g style="fill:#262626;" transform="translate(358.153251 660.295)rotate(-90)scale(0.11 -0.11)">
       <use xlink:href="#DejaVuSans-50"/>
       <use x="63.623047" xlink:href="#DejaVuSans-48"/>
       <use x="127.246094" xlink:href="#DejaVuSans-48"/>
       <use x="190.869141" xlink:href="#DejaVuSans-53"/>
      </g>
     </g>
    </g>
    <g id="xtick_17">
     <g id="line2d_17">
      <path clip-path="url(#pd4e69f8798)" d="M 373.234821 622.8 
L 373.234821 79.2 
" style="fill:none;stroke:#ffffff;stroke-linecap:round;"/>
     </g>
     <g id="text_17">
      <!-- 2006 -->
      <g style="fill:#262626;" transform="translate(376.270134 660.295)rotate(-90)scale(0.11 -0.11)">
       <use xlink:href="#DejaVuSans-50"/>
       <use x="63.623047" xlink:href="#DejaVuSans-48"/>
       <use x="127.246094" xlink:href="#DejaVuSans-48"/>
       <use x="190.869141" xlink:href="#DejaVuSans-54"/>
      </g>
     </g>
    </g>
    <g id="xtick_18">
     <g id="line2d_18">
      <path clip-path="url(#pd4e69f8798)" d="M 391.351705 622.8 
L 391.351705 79.2 
" style="fill:none;stroke:#ffffff;stroke-linecap:round;"/>
     </g>
     <g id="text_18">
      <!-- 2007 -->
      <g style="fill:#262626;" transform="translate(394.387017 660.295)rotate(-90)scale(0.11 -0.11)">
       <use xlink:href="#DejaVuSans-50"/>
       <use x="63.623047" xlink:href="#DejaVuSans-48"/>
       <use x="127.246094" xlink:href="#DejaVuSans-48"/>
       <use x="190.869141" xlink:href="#DejaVuSans-55"/>
      </g>
     </g>
    </g>
    <g id="xtick_19">
     <g id="line2d_19">
      <path clip-path="url(#pd4e69f8798)" d="M 409.468588 622.8 
L 409.468588 79.2 
" style="fill:none;stroke:#ffffff;stroke-linecap:round;"/>
     </g>
     <g id="text_19">
      <!-- 2008 -->
      <g style="fill:#262626;" transform="translate(412.5039 660.295)rotate(-90)scale(0.11 -0.11)">
       <use xlink:href="#DejaVuSans-50"/>
       <use x="63.623047" xlink:href="#DejaVuSans-48"/>
       <use x="127.246094" xlink:href="#DejaVuSans-48"/>
       <use x="190.869141" xlink:href="#DejaVuSans-56"/>
      </g>
     </g>
    </g>
    <g id="xtick_20">
     <g id="line2d_20">
      <path clip-path="url(#pd4e69f8798)" d="M 427.585471 622.8 
L 427.585471 79.2 
" style="fill:none;stroke:#ffffff;stroke-linecap:round;"/>
     </g>
     <g id="text_20">
      <!-- 2009 -->
      <g style="fill:#262626;" transform="translate(430.620783 660.295)rotate(-90)scale(0.11 -0.11)">
       <use xlink:href="#DejaVuSans-50"/>
       <use x="63.623047" xlink:href="#DejaVuSans-48"/>
       <use x="127.246094" xlink:href="#DejaVuSans-48"/>
       <use x="190.869141" xlink:href="#DejaVuSans-57"/>
      </g>
     </g>
    </g>
    <g id="xtick_21">
     <g id="line2d_21">
      <path clip-path="url(#pd4e69f8798)" d="M 445.702354 622.8 
L 445.702354 79.2 
" style="fill:none;stroke:#ffffff;stroke-linecap:round;"/>
     </g>
     <g id="text_21">
      <!-- 2010 -->
      <g style="fill:#262626;" transform="translate(448.737666 660.295)rotate(-90)scale(0.11 -0.11)">
       <use xlink:href="#DejaVuSans-50"/>
       <use x="63.623047" xlink:href="#DejaVuSans-48"/>
       <use x="127.246094" xlink:href="#DejaVuSans-49"/>
       <use x="190.869141" xlink:href="#DejaVuSans-48"/>
      </g>
     </g>
    </g>
    <g id="xtick_22">
     <g id="line2d_22">
      <path clip-path="url(#pd4e69f8798)" d="M 463.819237 622.8 
L 463.819237 79.2 
" style="fill:none;stroke:#ffffff;stroke-linecap:round;"/>
     </g>
     <g id="text_22">
      <!-- 2011 -->
      <g style="fill:#262626;" transform="translate(466.85455 660.295)rotate(-90)scale(0.11 -0.11)">
       <use xlink:href="#DejaVuSans-50"/>
       <use x="63.623047" xlink:href="#DejaVuSans-48"/>
       <use x="127.246094" xlink:href="#DejaVuSans-49"/>
       <use x="190.869141" xlink:href="#DejaVuSans-49"/>
      </g>
     </g>
    </g>
    <g id="xtick_23">
     <g id="line2d_23">
      <path clip-path="url(#pd4e69f8798)" d="M 481.93612 622.8 
L 481.93612 79.2 
" style="fill:none;stroke:#ffffff;stroke-linecap:round;"/>
     </g>
     <g id="text_23">
      <!-- 2012 -->
      <g style="fill:#262626;" transform="translate(484.971433 660.295)rotate(-90)scale(0.11 -0.11)">
       <use xlink:href="#DejaVuSans-50"/>
       <use x="63.623047" xlink:href="#DejaVuSans-48"/>
       <use x="127.246094" xlink:href="#DejaVuSans-49"/>
       <use x="190.869141" xlink:href="#DejaVuSans-50"/>
      </g>
     </g>
    </g>
    <g id="xtick_24">
     <g id="line2d_24">
      <path clip-path="url(#pd4e69f8798)" d="M 500.053003 622.8 
L 500.053003 79.2 
" style="fill:none;stroke:#ffffff;stroke-linecap:round;"/>
     </g>
     <g id="text_24">
      <!-- 2013 -->
      <g style="fill:#262626;" transform="translate(503.088316 660.295)rotate(-90)scale(0.11 -0.11)">
       <use xlink:href="#DejaVuSans-50"/>
       <use x="63.623047" xlink:href="#DejaVuSans-48"/>
       <use x="127.246094" xlink:href="#DejaVuSans-49"/>
       <use x="190.869141" xlink:href="#DejaVuSans-51"/>
      </g>
     </g>
    </g>
    <g id="xtick_25">
     <g id="line2d_25">
      <path clip-path="url(#pd4e69f8798)" d="M 518.169886 622.8 
L 518.169886 79.2 
" style="fill:none;stroke:#ffffff;stroke-linecap:round;"/>
     </g>
     <g id="text_25">
      <!-- 2014 -->
      <g style="fill:#262626;" transform="translate(521.205199 660.295)rotate(-90)scale(0.11 -0.11)">
       <use xlink:href="#DejaVuSans-50"/>
       <use x="63.623047" xlink:href="#DejaVuSans-48"/>
       <use x="127.246094" xlink:href="#DejaVuSans-49"/>
       <use x="190.869141" xlink:href="#DejaVuSans-52"/>
      </g>
     </g>
    </g>
    <g id="xtick_26">
     <g id="line2d_26">
      <path clip-path="url(#pd4e69f8798)" d="M 536.286769 622.8 
L 536.286769 79.2 
" style="fill:none;stroke:#ffffff;stroke-linecap:round;"/>
     </g>
     <g id="text_26">
      <!-- 2015 -->
      <g style="fill:#262626;" transform="translate(539.322082 660.295)rotate(-90)scale(0.11 -0.11)">
       <use xlink:href="#DejaVuSans-50"/>
       <use x="63.623047" xlink:href="#DejaVuSans-48"/>
       <use x="127.246094" xlink:href="#DejaVuSans-49"/>
       <use x="190.869141" xlink:href="#DejaVuSans-53"/>
      </g>
     </g>
    </g>
    <g id="xtick_27">
     <g id="line2d_27">
      <path clip-path="url(#pd4e69f8798)" d="M 554.403653 622.8 
L 554.403653 79.2 
" style="fill:none;stroke:#ffffff;stroke-linecap:round;"/>
     </g>
     <g id="text_27">
      <!-- 2016 -->
      <g style="fill:#262626;" transform="translate(557.438965 660.295)rotate(-90)scale(0.11 -0.11)">
       <use xlink:href="#DejaVuSans-50"/>
       <use x="63.623047" xlink:href="#DejaVuSans-48"/>
       <use x="127.246094" xlink:href="#DejaVuSans-49"/>
       <use x="190.869141" xlink:href="#DejaVuSans-54"/>
      </g>
     </g>
    </g>
    <g id="xtick_28">
     <g id="line2d_28">
      <path clip-path="url(#pd4e69f8798)" d="M 572.520536 622.8 
L 572.520536 79.2 
" style="fill:none;stroke:#ffffff;stroke-linecap:round;"/>
     </g>
     <g id="text_28">
      <!-- 2017 -->
      <g style="fill:#262626;" transform="translate(575.555848 660.295)rotate(-90)scale(0.11 -0.11)">
       <use xlink:href="#DejaVuSans-50"/>
       <use x="63.623047" xlink:href="#DejaVuSans-48"/>
       <use x="127.246094" xlink:href="#DejaVuSans-49"/>
       <use x="190.869141" xlink:href="#DejaVuSans-55"/>
      </g>
     </g>
    </g>
    <g id="text_29">
     <!-- Jaar -->
     <defs>
      <path d="M 9.8125 72.90625 
L 19.671875 72.90625 
L 19.671875 5.078125 
Q 19.671875 -8.109375 14.671875 -14.0625 
Q 9.671875 -20.015625 -1.421875 -20.015625 
L -5.171875 -20.015625 
L -5.171875 -11.71875 
L -2.09375 -11.71875 
Q 4.4375 -11.71875 7.125 -8.046875 
Q 9.8125 -4.390625 9.8125 5.078125 
z
" id="DejaVuSans-74"/>
      <path d="M 34.28125 27.484375 
Q 23.390625 27.484375 19.1875 25 
Q 14.984375 22.515625 14.984375 16.5 
Q 14.984375 11.71875 18.140625 8.90625 
Q 21.296875 6.109375 26.703125 6.109375 
Q 34.1875 6.109375 38.703125 11.40625 
Q 43.21875 16.703125 43.21875 25.484375 
L 43.21875 27.484375 
z
M 52.203125 31.203125 
L 52.203125 0 
L 43.21875 0 
L 43.21875 8.296875 
Q 40.140625 3.328125 35.546875 0.953125 
Q 30.953125 -1.421875 24.3125 -1.421875 
Q 15.921875 -1.421875 10.953125 3.296875 
Q 6 8.015625 6 15.921875 
Q 6 25.140625 12.171875 29.828125 
Q 18.359375 34.515625 30.609375 34.515625 
L 43.21875 34.515625 
L 43.21875 35.40625 
Q 43.21875 41.609375 39.140625 45 
Q 35.0625 48.390625 27.6875 48.390625 
Q 23 48.390625 18.546875 47.265625 
Q 14.109375 46.140625 10.015625 43.890625 
L 10.015625 52.203125 
Q 14.9375 54.109375 19.578125 55.046875 
Q 24.21875 56 28.609375 56 
Q 40.484375 56 46.34375 49.84375 
Q 52.203125 43.703125 52.203125 31.203125 
z
" id="DejaVuSans-97"/>
      <path d="M 41.109375 46.296875 
Q 39.59375 47.171875 37.8125 47.578125 
Q 36.03125 48 33.890625 48 
Q 26.265625 48 22.1875 43.046875 
Q 18.109375 38.09375 18.109375 28.8125 
L 18.109375 0 
L 9.078125 0 
L 9.078125 54.6875 
L 18.109375 54.6875 
L 18.109375 46.1875 
Q 20.953125 51.171875 25.484375 53.578125 
Q 30.03125 56 36.53125 56 
Q 37.453125 56 38.578125 55.875 
Q 39.703125 55.765625 41.0625 55.515625 
z
" id="DejaVuSans-114"/>
     </defs>
     <g style="fill:#262626;" transform="translate(312.488864 676.4525)scale(0.16 -0.16)">
      <use xlink:href="#DejaVuSans-74"/>
      <use x="29.492188" xlink:href="#DejaVuSans-97"/>
      <use x="90.771484" xlink:href="#DejaVuSans-97"/>
      <use x="152.050781" xlink:href="#DejaVuSans-114"/>
     </g>
    </g>
   </g>
   <g id="matplotlib.axis_2">
    <g id="ytick_1">
     <g id="line2d_29">
      <path clip-path="url(#pd4e69f8798)" d="M 74.30625 622.8 
L 581.578977 622.8 
" style="fill:none;stroke:#ffffff;stroke-linecap:round;"/>
     </g>
     <g id="text_30">
      <!-- 0 -->
      <g style="fill:#262626;" transform="translate(57.8075 626.979141)scale(0.11 -0.11)">
       <use xlink:href="#DejaVuSans-48"/>
      </g>
     </g>
    </g>
    <g id="ytick_2">
     <g id="line2d_30">
      <path clip-path="url(#pd4e69f8798)" d="M 74.30625 548.668726 
L 581.578977 548.668726 
" style="fill:none;stroke:#ffffff;stroke-linecap:round;"/>
     </g>
     <g id="text_31">
      <!-- 20000 -->
      <g style="fill:#262626;" transform="translate(29.8125 552.847866)scale(0.11 -0.11)">
       <use xlink:href="#DejaVuSans-50"/>
       <use x="63.623047" xlink:href="#DejaVuSans-48"/>
       <use x="127.246094" xlink:href="#DejaVuSans-48"/>
       <use x="190.869141" xlink:href="#DejaVuSans-48"/>
       <use x="254.492188" xlink:href="#DejaVuSans-48"/>
      </g>
     </g>
    </g>
    <g id="ytick_3">
     <g id="line2d_31">
      <path clip-path="url(#pd4e69f8798)" d="M 74.30625 474.537452 
L 581.578977 474.537452 
" style="fill:none;stroke:#ffffff;stroke-linecap:round;"/>
     </g>
     <g id="text_32">
      <!-- 40000 -->
      <g style="fill:#262626;" transform="translate(29.8125 478.716592)scale(0.11 -0.11)">
       <use xlink:href="#DejaVuSans-52"/>
       <use x="63.623047" xlink:href="#DejaVuSans-48"/>
       <use x="127.246094" xlink:href="#DejaVuSans-48"/>
       <use x="190.869141" xlink:href="#DejaVuSans-48"/>
       <use x="254.492188" xlink:href="#DejaVuSans-48"/>
      </g>
     </g>
    </g>
    <g id="ytick_4">
     <g id="line2d_32">
      <path clip-path="url(#pd4e69f8798)" d="M 74.30625 400.406178 
L 581.578977 400.406178 
" style="fill:none;stroke:#ffffff;stroke-linecap:round;"/>
     </g>
     <g id="text_33">
      <!-- 60000 -->
      <g style="fill:#262626;" transform="translate(29.8125 404.585318)scale(0.11 -0.11)">
       <use xlink:href="#DejaVuSans-54"/>
       <use x="63.623047" xlink:href="#DejaVuSans-48"/>
       <use x="127.246094" xlink:href="#DejaVuSans-48"/>
       <use x="190.869141" xlink:href="#DejaVuSans-48"/>
       <use x="254.492188" xlink:href="#DejaVuSans-48"/>
      </g>
     </g>
    </g>
    <g id="ytick_5">
     <g id="line2d_33">
      <path clip-path="url(#pd4e69f8798)" d="M 74.30625 326.274903 
L 581.578977 326.274903 
" style="fill:none;stroke:#ffffff;stroke-linecap:round;"/>
     </g>
     <g id="text_34">
      <!-- 80000 -->
      <g style="fill:#262626;" transform="translate(29.8125 330.454044)scale(0.11 -0.11)">
       <use xlink:href="#DejaVuSans-56"/>
       <use x="63.623047" xlink:href="#DejaVuSans-48"/>
       <use x="127.246094" xlink:href="#DejaVuSans-48"/>
       <use x="190.869141" xlink:href="#DejaVuSans-48"/>
       <use x="254.492188" xlink:href="#DejaVuSans-48"/>
      </g>
     </g>
    </g>
    <g id="ytick_6">
     <g id="line2d_34">
      <path clip-path="url(#pd4e69f8798)" d="M 74.30625 252.143629 
L 581.578977 252.143629 
" style="fill:none;stroke:#ffffff;stroke-linecap:round;"/>
     </g>
     <g id="text_35">
      <!-- 100000 -->
      <g style="fill:#262626;" transform="translate(22.81375 256.32277)scale(0.11 -0.11)">
       <use xlink:href="#DejaVuSans-49"/>
       <use x="63.623047" xlink:href="#DejaVuSans-48"/>
       <use x="127.246094" xlink:href="#DejaVuSans-48"/>
       <use x="190.869141" xlink:href="#DejaVuSans-48"/>
       <use x="254.492188" xlink:href="#DejaVuSans-48"/>
       <use x="318.115234" xlink:href="#DejaVuSans-48"/>
      </g>
     </g>
    </g>
    <g id="ytick_7">
     <g id="line2d_35">
      <path clip-path="url(#pd4e69f8798)" d="M 74.30625 178.012355 
L 581.578977 178.012355 
" style="fill:none;stroke:#ffffff;stroke-linecap:round;"/>
     </g>
     <g id="text_36">
      <!-- 120000 -->
      <g style="fill:#262626;" transform="translate(22.81375 182.191496)scale(0.11 -0.11)">
       <use xlink:href="#DejaVuSans-49"/>
       <use x="63.623047" xlink:href="#DejaVuSans-50"/>
       <use x="127.246094" xlink:href="#DejaVuSans-48"/>
       <use x="190.869141" xlink:href="#DejaVuSans-48"/>
       <use x="254.492188" xlink:href="#DejaVuSans-48"/>
       <use x="318.115234" xlink:href="#DejaVuSans-48"/>
      </g>
     </g>
    </g>
    <g id="ytick_8">
     <g id="line2d_36">
      <path clip-path="url(#pd4e69f8798)" d="M 74.30625 103.881081 
L 581.578977 103.881081 
" style="fill:none;stroke:#ffffff;stroke-linecap:round;"/>
     </g>
     <g id="text_37">
      <!-- 140000 -->
      <g style="fill:#262626;" transform="translate(22.81375 108.060222)scale(0.11 -0.11)">
       <use xlink:href="#DejaVuSans-49"/>
       <use x="63.623047" xlink:href="#DejaVuSans-52"/>
       <use x="127.246094" xlink:href="#DejaVuSans-48"/>
       <use x="190.869141" xlink:href="#DejaVuSans-48"/>
       <use x="254.492188" xlink:href="#DejaVuSans-48"/>
       <use x="318.115234" xlink:href="#DejaVuSans-48"/>
      </g>
     </g>
    </g>
    <g id="text_38">
     <!-- Verbruik (TJ) -->
     <defs>
      <path d="M 28.609375 0 
L 0.78125 72.90625 
L 11.078125 72.90625 
L 34.1875 11.53125 
L 57.328125 72.90625 
L 67.578125 72.90625 
L 39.796875 0 
z
" id="DejaVuSans-86"/>
      <path d="M 56.203125 29.59375 
L 56.203125 25.203125 
L 14.890625 25.203125 
Q 15.484375 15.921875 20.484375 11.0625 
Q 25.484375 6.203125 34.421875 6.203125 
Q 39.59375 6.203125 44.453125 7.46875 
Q 49.3125 8.734375 54.109375 11.28125 
L 54.109375 2.78125 
Q 49.265625 0.734375 44.1875 -0.34375 
Q 39.109375 -1.421875 33.890625 -1.421875 
Q 20.796875 -1.421875 13.15625 6.1875 
Q 5.515625 13.8125 5.515625 26.8125 
Q 5.515625 40.234375 12.765625 48.109375 
Q 20.015625 56 32.328125 56 
Q 43.359375 56 49.78125 48.890625 
Q 56.203125 41.796875 56.203125 29.59375 
z
M 47.21875 32.234375 
Q 47.125 39.59375 43.09375 43.984375 
Q 39.0625 48.390625 32.421875 48.390625 
Q 24.90625 48.390625 20.390625 44.140625 
Q 15.875 39.890625 15.1875 32.171875 
z
" id="DejaVuSans-101"/>
      <path d="M 48.6875 27.296875 
Q 48.6875 37.203125 44.609375 42.84375 
Q 40.53125 48.484375 33.40625 48.484375 
Q 26.265625 48.484375 22.1875 42.84375 
Q 18.109375 37.203125 18.109375 27.296875 
Q 18.109375 17.390625 22.1875 11.75 
Q 26.265625 6.109375 33.40625 6.109375 
Q 40.53125 6.109375 44.609375 11.75 
Q 48.6875 17.390625 48.6875 27.296875 
z
M 18.109375 46.390625 
Q 20.953125 51.265625 25.265625 53.625 
Q 29.59375 56 35.59375 56 
Q 45.5625 56 51.78125 48.09375 
Q 58.015625 40.1875 58.015625 27.296875 
Q 58.015625 14.40625 51.78125 6.484375 
Q 45.5625 -1.421875 35.59375 -1.421875 
Q 29.59375 -1.421875 25.265625 0.953125 
Q 20.953125 3.328125 18.109375 8.203125 
L 18.109375 0 
L 9.078125 0 
L 9.078125 75.984375 
L 18.109375 75.984375 
z
" id="DejaVuSans-98"/>
      <path d="M 8.5 21.578125 
L 8.5 54.6875 
L 17.484375 54.6875 
L 17.484375 21.921875 
Q 17.484375 14.15625 20.5 10.265625 
Q 23.53125 6.390625 29.59375 6.390625 
Q 36.859375 6.390625 41.078125 11.03125 
Q 45.3125 15.671875 45.3125 23.6875 
L 45.3125 54.6875 
L 54.296875 54.6875 
L 54.296875 0 
L 45.3125 0 
L 45.3125 8.40625 
Q 42.046875 3.421875 37.71875 1 
Q 33.40625 -1.421875 27.6875 -1.421875 
Q 18.265625 -1.421875 13.375 4.4375 
Q 8.5 10.296875 8.5 21.578125 
z
M 31.109375 56 
z
" id="DejaVuSans-117"/>
      <path d="M 9.421875 54.6875 
L 18.40625 54.6875 
L 18.40625 0 
L 9.421875 0 
z
M 9.421875 75.984375 
L 18.40625 75.984375 
L 18.40625 64.59375 
L 9.421875 64.59375 
z
" id="DejaVuSans-105"/>
      <path d="M 9.078125 75.984375 
L 18.109375 75.984375 
L 18.109375 31.109375 
L 44.921875 54.6875 
L 56.390625 54.6875 
L 27.390625 29.109375 
L 57.625 0 
L 45.90625 0 
L 18.109375 26.703125 
L 18.109375 0 
L 9.078125 0 
z
" id="DejaVuSans-107"/>
      <path id="DejaVuSans-32"/>
      <path d="M 31 75.875 
Q 24.46875 64.65625 21.28125 53.65625 
Q 18.109375 42.671875 18.109375 31.390625 
Q 18.109375 20.125 21.3125 9.0625 
Q 24.515625 -2 31 -13.1875 
L 23.1875 -13.1875 
Q 15.875 -1.703125 12.234375 9.375 
Q 8.59375 20.453125 8.59375 31.390625 
Q 8.59375 42.28125 12.203125 53.3125 
Q 15.828125 64.359375 23.1875 75.875 
z
" id="DejaVuSans-40"/>
      <path d="M -0.296875 72.90625 
L 61.375 72.90625 
L 61.375 64.59375 
L 35.5 64.59375 
L 35.5 0 
L 25.59375 0 
L 25.59375 64.59375 
L -0.296875 64.59375 
z
" id="DejaVuSans-84"/>
      <path d="M 8.015625 75.875 
L 15.828125 75.875 
Q 23.140625 64.359375 26.78125 53.3125 
Q 30.421875 42.28125 30.421875 31.390625 
Q 30.421875 20.453125 26.78125 9.375 
Q 23.140625 -1.703125 15.828125 -13.1875 
L 8.015625 -13.1875 
Q 14.5 -2 17.703125 9.0625 
Q 20.90625 20.125 20.90625 31.390625 
Q 20.90625 42.671875 17.703125 53.65625 
Q 14.5 64.65625 8.015625 75.875 
z
" id="DejaVuSans-41"/>
     </defs>
     <g style="fill:#262626;" transform="translate(16.318125 388.499062)rotate(-90)scale(0.12 -0.12)">
      <use xlink:href="#DejaVuSans-86"/>
      <use x="68.298828" xlink:href="#DejaVuSans-101"/>
      <use x="129.822266" xlink:href="#DejaVuSans-114"/>
      <use x="170.935547" xlink:href="#DejaVuSans-98"/>
      <use x="234.412109" xlink:href="#DejaVuSans-114"/>
      <use x="275.525391" xlink:href="#DejaVuSans-117"/>
      <use x="338.904297" xlink:href="#DejaVuSans-105"/>
      <use x="366.6875" xlink:href="#DejaVuSans-107"/>
      <use x="424.597656" xlink:href="#DejaVuSans-32"/>
      <use x="456.384766" xlink:href="#DejaVuSans-40"/>
      <use x="495.398438" xlink:href="#DejaVuSans-84"/>
      <use x="556.482422" xlink:href="#DejaVuSans-74"/>
      <use x="585.974609" xlink:href="#DejaVuSans-41"/>
     </g>
    </g>
   </g>
   <g id="patch_3">
    <path clip-path="url(#pd4e69f8798)" d="M 78.835471 622.8 
L 87.893912 622.8 
L 87.893912 611.999073 
L 78.835471 611.999073 
z
" style="fill:#4c72b0;stroke:#ffffff;stroke-linejoin:miter;"/>
   </g>
   <g id="patch_4">
    <path clip-path="url(#pd4e69f8798)" d="M 96.952354 622.8 
L 106.010795 622.8 
L 106.010795 610.386718 
L 96.952354 610.386718 
z
" style="fill:#4c72b0;stroke:#ffffff;stroke-linejoin:miter;"/>
   </g>
   <g id="patch_5">
    <path clip-path="url(#pd4e69f8798)" d="M 115.069237 622.8 
L 124.127679 622.8 
L 124.127679 609.701004 
L 115.069237 609.701004 
z
" style="fill:#4c72b0;stroke:#ffffff;stroke-linejoin:miter;"/>
   </g>
   <g id="patch_6">
    <path clip-path="url(#pd4e69f8798)" d="M 133.18612 622.8 
L 142.244562 622.8 
L 142.244562 607.747645 
L 133.18612 607.747645 
z
" style="fill:#4c72b0;stroke:#ffffff;stroke-linejoin:miter;"/>
   </g>
   <g id="patch_7">
    <path clip-path="url(#pd4e69f8798)" d="M 151.303003 622.8 
L 160.361445 622.8 
L 160.361445 606.090811 
L 151.303003 606.090811 
z
" style="fill:#4c72b0;stroke:#ffffff;stroke-linejoin:miter;"/>
   </g>
   <g id="patch_8">
    <path clip-path="url(#pd4e69f8798)" d="M 169.419886 622.8 
L 178.478328 622.8 
L 178.478328 603.811274 
L 169.419886 603.811274 
z
" style="fill:#4c72b0;stroke:#ffffff;stroke-linejoin:miter;"/>
   </g>
   <g id="patch_9">
    <path clip-path="url(#pd4e69f8798)" d="M 187.536769 622.8 
L 196.595211 622.8 
L 196.595211 598.232896 
L 187.536769 598.232896 
z
" style="fill:#4c72b0;stroke:#ffffff;stroke-linejoin:miter;"/>
   </g>
   <g id="patch_10">
    <path clip-path="url(#pd4e69f8798)" d="M 205.653653 622.8 
L 214.712094 622.8 
L 214.712094 595.512278 
L 205.653653 595.512278 
z
" style="fill:#4c72b0;stroke:#ffffff;stroke-linejoin:miter;"/>
   </g>
   <g id="patch_11">
    <path clip-path="url(#pd4e69f8798)" d="M 223.770536 622.8 
L 232.828977 622.8 
L 232.828977 592.661931 
L 223.770536 592.661931 
z
" style="fill:#4c72b0;stroke:#ffffff;stroke-linejoin:miter;"/>
   </g>
   <g id="patch_12">
    <path clip-path="url(#pd4e69f8798)" d="M 241.887419 622.8 
L 250.94586 622.8 
L 250.94586 589.040618 
L 241.887419 589.040618 
z
" style="fill:#4c72b0;stroke:#ffffff;stroke-linejoin:miter;"/>
   </g>
   <g id="patch_13">
    <path clip-path="url(#pd4e69f8798)" d="M 260.004302 622.8 
L 269.062744 622.8 
L 269.062744 584.496371 
L 260.004302 584.496371 
z
" style="fill:#4c72b0;stroke:#ffffff;stroke-linejoin:miter;"/>
   </g>
   <g id="patch_14">
    <path clip-path="url(#pd4e69f8798)" d="M 278.121185 622.8 
L 287.179627 622.8 
L 287.179627 578.665946 
L 278.121185 578.665946 
z
" style="fill:#4c72b0;stroke:#ffffff;stroke-linejoin:miter;"/>
   </g>
   <g id="patch_15">
    <path clip-path="url(#pd4e69f8798)" d="M 296.238068 622.8 
L 305.29651 622.8 
L 305.29651 568.598919 
L 296.238068 568.598919 
z
" style="fill:#4c72b0;stroke:#ffffff;stroke-linejoin:miter;"/>
   </g>
   <g id="patch_16">
    <path clip-path="url(#pd4e69f8798)" d="M 314.354951 622.8 
L 323.413393 622.8 
L 323.413393 568.784247 
L 314.354951 568.784247 
z
" style="fill:#4c72b0;stroke:#ffffff;stroke-linejoin:miter;"/>
   </g>
   <g id="patch_17">
    <path clip-path="url(#pd4e69f8798)" d="M 332.471834 622.8 
L 341.530276 622.8 
L 341.530276 553.035058 
L 332.471834 553.035058 
z
" style="fill:#4c72b0;stroke:#ffffff;stroke-linejoin:miter;"/>
   </g>
   <g id="patch_18">
    <path clip-path="url(#pd4e69f8798)" d="M 350.588718 622.8 
L 359.647159 622.8 
L 359.647159 523.412201 
L 350.588718 523.412201 
z
" style="fill:#4c72b0;stroke:#ffffff;stroke-linejoin:miter;"/>
   </g>
   <g id="patch_19">
    <path clip-path="url(#pd4e69f8798)" d="M 368.705601 622.8 
L 377.764042 622.8 
L 377.764042 517.811583 
L 368.705601 517.811583 
z
" style="fill:#4c72b0;stroke:#ffffff;stroke-linejoin:miter;"/>
   </g>
   <g id="patch_20">
    <path clip-path="url(#pd4e69f8798)" d="M 386.822484 622.8 
L 395.880925 622.8 
L 395.880925 525.098687 
L 386.822484 525.098687 
z
" style="fill:#4c72b0;stroke:#ffffff;stroke-linejoin:miter;"/>
   </g>
   <g id="patch_21">
    <path clip-path="url(#pd4e69f8798)" d="M 404.939367 622.8 
L 413.997808 622.8 
L 413.997808 499.853282 
L 404.939367 499.853282 
z
" style="fill:#4c72b0;stroke:#ffffff;stroke-linejoin:miter;"/>
   </g>
   <g id="patch_22">
    <path clip-path="url(#pd4e69f8798)" d="M 423.05625 622.8 
L 432.114692 622.8 
L 432.114692 479.28556 
L 423.05625 479.28556 
z
" style="fill:#4c72b0;stroke:#ffffff;stroke-linejoin:miter;"/>
   </g>
   <g id="patch_23">
    <path clip-path="url(#pd4e69f8798)" d="M 441.173133 622.8 
L 450.231575 622.8 
L 450.231575 466.43861 
L 441.173133 466.43861 
z
" style="fill:#4c72b0;stroke:#ffffff;stroke-linejoin:miter;"/>
   </g>
   <g id="patch_24">
    <path clip-path="url(#pd4e69f8798)" d="M 459.290016 622.8 
L 468.348458 622.8 
L 468.348458 462.650502 
L 459.290016 462.650502 
z
" style="fill:#4c72b0;stroke:#ffffff;stroke-linejoin:miter;"/>
   </g>
   <g id="patch_25">
    <path clip-path="url(#pd4e69f8798)" d="M 477.406899 622.8 
L 486.465341 622.8 
L 486.465341 456.401236 
L 477.406899 456.401236 
z
" style="fill:#4c72b0;stroke:#ffffff;stroke-linejoin:miter;"/>
   </g>
   <g id="patch_26">
    <path clip-path="url(#pd4e69f8798)" d="M 495.523782 622.8 
L 504.582224 622.8 
L 504.582224 464.099768 
L 495.523782 464.099768 
z
" style="fill:#4c72b0;stroke:#ffffff;stroke-linejoin:miter;"/>
   </g>
   <g id="patch_27">
    <path clip-path="url(#pd4e69f8798)" d="M 513.640666 622.8 
L 522.699107 622.8 
L 522.699107 466.234749 
L 513.640666 466.234749 
z
" style="fill:#4c72b0;stroke:#ffffff;stroke-linejoin:miter;"/>
   </g>
   <g id="patch_28">
    <path clip-path="url(#pd4e69f8798)" d="M 531.757549 622.8 
L 540.81599 622.8 
L 540.81599 447.268263 
L 531.757549 447.268263 
z
" style="fill:#4c72b0;stroke:#ffffff;stroke-linejoin:miter;"/>
   </g>
   <g id="patch_29">
    <path clip-path="url(#pd4e69f8798)" d="M 549.874432 622.8 
L 558.932873 622.8 
L 558.932873 421.56695 
L 549.874432 421.56695 
z
" style="fill:#4c72b0;stroke:#ffffff;stroke-linejoin:miter;"/>
   </g>
   <g id="patch_30">
    <path clip-path="url(#pd4e69f8798)" d="M 567.991315 622.8 
L 577.049756 622.8 
L 577.049756 400.276448 
L 567.991315 400.276448 
z
" style="fill:#4c72b0;stroke:#ffffff;stroke-linejoin:miter;"/>
   </g>
   <g id="patch_31">
    <path clip-path="url(#pd4e69f8798)" d="M 78.835471 611.999073 
L 87.893912 611.999073 
L 87.893912 540.73668 
L 78.835471 540.73668 
z
" style="fill:#dd8452;stroke:#ffffff;stroke-linejoin:miter;"/>
   </g>
   <g id="patch_32">
    <path clip-path="url(#pd4e69f8798)" d="M 96.952354 610.386718 
L 106.010795 610.386718 
L 106.010795 537.841853 
L 96.952354 537.841853 
z
" style="fill:#dd8452;stroke:#ffffff;stroke-linejoin:miter;"/>
   </g>
   <g id="patch_33">
    <path clip-path="url(#pd4e69f8798)" d="M 115.069237 609.701004 
L 124.127679 609.701004 
L 124.127679 535.31027 
L 115.069237 535.31027 
z
" style="fill:#dd8452;stroke:#ffffff;stroke-linejoin:miter;"/>
   </g>
   <g id="patch_34">
    <path clip-path="url(#pd4e69f8798)" d="M 133.18612 607.747645 
L 142.244562 607.747645 
L 142.244562 532.489575 
L 133.18612 532.489575 
z
" style="fill:#dd8452;stroke:#ffffff;stroke-linejoin:miter;"/>
   </g>
   <g id="patch_35">
    <path clip-path="url(#pd4e69f8798)" d="M 151.303003 606.090811 
L 160.361445 606.090811 
L 160.361445 531.044015 
L 151.303003 531.044015 
z
" style="fill:#dd8452;stroke:#ffffff;stroke-linejoin:miter;"/>
   </g>
   <g id="patch_36">
    <path clip-path="url(#pd4e69f8798)" d="M 169.419886 603.811274 
L 178.478328 603.811274 
L 178.478328 526.722162 
L 169.419886 526.722162 
z
" style="fill:#dd8452;stroke:#ffffff;stroke-linejoin:miter;"/>
   </g>
   <g id="patch_37">
    <path clip-path="url(#pd4e69f8798)" d="M 187.536769 598.232896 
L 196.595211 598.232896 
L 196.595211 517.277838 
L 187.536769 517.277838 
z
" style="fill:#dd8452;stroke:#ffffff;stroke-linejoin:miter;"/>
   </g>
   <g id="patch_38">
    <path clip-path="url(#pd4e69f8798)" d="M 205.653653 595.512278 
L 214.712094 595.512278 
L 214.712094 506.617761 
L 205.653653 506.617761 
z
" style="fill:#dd8452;stroke:#ffffff;stroke-linejoin:miter;"/>
   </g>
   <g id="patch_39">
    <path clip-path="url(#pd4e69f8798)" d="M 223.770536 592.661931 
L 232.828977 592.661931 
L 232.828977 502.718456 
L 223.770536 502.718456 
z
" style="fill:#dd8452;stroke:#ffffff;stroke-linejoin:miter;"/>
   </g>
   <g id="patch_40">
    <path clip-path="url(#pd4e69f8798)" d="M 241.887419 589.040618 
L 250.94586 589.040618 
L 250.94586 497.699768 
L 241.887419 497.699768 
z
" style="fill:#dd8452;stroke:#ffffff;stroke-linejoin:miter;"/>
   </g>
   <g id="patch_41">
    <path clip-path="url(#pd4e69f8798)" d="M 260.004302 584.496371 
L 269.062744 584.496371 
L 269.062744 492.629189 
L 260.004302 492.629189 
z
" style="fill:#dd8452;stroke:#ffffff;stroke-linejoin:miter;"/>
   </g>
   <g id="patch_42">
    <path clip-path="url(#pd4e69f8798)" d="M 278.121185 578.665946 
L 287.179627 578.665946 
L 287.179627 485.794286 
L 278.121185 485.794286 
z
" style="fill:#dd8452;stroke:#ffffff;stroke-linejoin:miter;"/>
   </g>
   <g id="patch_43">
    <path clip-path="url(#pd4e69f8798)" d="M 296.238068 568.598919 
L 305.29651 568.598919 
L 305.29651 472.888031 
L 296.238068 472.888031 
z
" style="fill:#dd8452;stroke:#ffffff;stroke-linejoin:miter;"/>
   </g>
   <g id="patch_44">
    <path clip-path="url(#pd4e69f8798)" d="M 314.354951 568.784247 
L 323.413393 568.784247 
L 323.413393 471.379459 
L 314.354951 471.379459 
z
" style="fill:#dd8452;stroke:#ffffff;stroke-linejoin:miter;"/>
   </g>
   <g id="patch_45">
    <path clip-path="url(#pd4e69f8798)" d="M 332.471834 553.035058 
L 341.530276 553.035058 
L 341.530276 445.959846 
L 332.471834 445.959846 
z
" style="fill:#dd8452;stroke:#ffffff;stroke-linejoin:miter;"/>
   </g>
   <g id="patch_46">
    <path clip-path="url(#pd4e69f8798)" d="M 350.588718 523.412201 
L 359.647159 523.412201 
L 359.647159 409.654054 
L 350.588718 409.654054 
z
" style="fill:#dd8452;stroke:#ffffff;stroke-linejoin:miter;"/>
   </g>
   <g id="patch_47">
    <path clip-path="url(#pd4e69f8798)" d="M 368.705601 517.811583 
L 377.764042 517.811583 
L 377.764042 392.196139 
L 368.705601 392.196139 
z
" style="fill:#dd8452;stroke:#ffffff;stroke-linejoin:miter;"/>
   </g>
   <g id="patch_48">
    <path clip-path="url(#pd4e69f8798)" d="M 386.822484 525.098687 
L 395.880925 525.098687 
L 395.880925 394.494208 
L 386.822484 394.494208 
z
" style="fill:#dd8452;stroke:#ffffff;stroke-linejoin:miter;"/>
   </g>
   <g id="patch_49">
    <path clip-path="url(#pd4e69f8798)" d="M 404.939367 499.853282 
L 413.997808 499.853282 
L 413.997808 361.709653 
L 404.939367 361.709653 
z
" style="fill:#dd8452;stroke:#ffffff;stroke-linejoin:miter;"/>
   </g>
   <g id="patch_50">
    <path clip-path="url(#pd4e69f8798)" d="M 423.05625 479.28556 
L 432.114692 479.28556 
L 432.114692 332.568649 
L 423.05625 332.568649 
z
" style="fill:#dd8452;stroke:#ffffff;stroke-linejoin:miter;"/>
   </g>
   <g id="patch_51">
    <path clip-path="url(#pd4e69f8798)" d="M 441.173133 466.43861 
L 450.231575 466.43861 
L 450.231575 315.659305 
L 441.173133 315.659305 
z
" style="fill:#dd8452;stroke:#ffffff;stroke-linejoin:miter;"/>
   </g>
   <g id="patch_52">
    <path clip-path="url(#pd4e69f8798)" d="M 459.290016 462.650502 
L 468.348458 462.650502 
L 468.348458 305.507027 
L 459.290016 305.507027 
z
" style="fill:#dd8452;stroke:#ffffff;stroke-linejoin:miter;"/>
   </g>
   <g id="patch_53">
    <path clip-path="url(#pd4e69f8798)" d="M 477.406899 456.401236 
L 486.465341 456.401236 
L 486.465341 286.974208 
L 477.406899 286.974208 
z
" style="fill:#dd8452;stroke:#ffffff;stroke-linejoin:miter;"/>
   </g>
   <g id="patch_54">
    <path clip-path="url(#pd4e69f8798)" d="M 495.523782 464.099768 
L 504.582224 464.099768 
L 504.582224 281.125251 
L 495.523782 281.125251 
z
" style="fill:#dd8452;stroke:#ffffff;stroke-linejoin:miter;"/>
   </g>
   <g id="patch_55">
    <path clip-path="url(#pd4e69f8798)" d="M 513.640666 466.234749 
L 522.699107 466.234749 
L 522.699107 266.350888 
L 513.640666 266.350888 
z
" style="fill:#dd8452;stroke:#ffffff;stroke-linejoin:miter;"/>
   </g>
   <g id="patch_56">
    <path clip-path="url(#pd4e69f8798)" d="M 531.757549 447.268263 
L 540.81599 447.268263 
L 540.81599 227.035367 
L 531.757549 227.035367 
z
" style="fill:#dd8452;stroke:#ffffff;stroke-linejoin:miter;"/>
   </g>
   <g id="patch_57">
    <path clip-path="url(#pd4e69f8798)" d="M 549.874432 421.56695 
L 558.932873 421.56695 
L 558.932873 196.893591 
L 549.874432 196.893591 
z
" style="fill:#dd8452;stroke:#ffffff;stroke-linejoin:miter;"/>
   </g>
   <g id="patch_58">
    <path clip-path="url(#pd4e69f8798)" d="M 567.991315 400.276448 
L 577.049756 400.276448 
L 577.049756 151.280618 
L 567.991315 151.280618 
z
" style="fill:#dd8452;stroke:#ffffff;stroke-linejoin:miter;"/>
   </g>
   <g id="patch_59">
    <path clip-path="url(#pd4e69f8798)" d="M 78.835471 622.8 
L 87.893912 622.8 
L 87.893912 622.8 
L 78.835471 622.8 
z
" style="fill:#55a868;stroke:#ffffff;stroke-linejoin:miter;"/>
   </g>
   <g id="patch_60">
    <path clip-path="url(#pd4e69f8798)" d="M 96.952354 622.8 
L 106.010795 622.8 
L 106.010795 622.8 
L 96.952354 622.8 
z
" style="fill:#55a868;stroke:#ffffff;stroke-linejoin:miter;"/>
   </g>
   <g id="patch_61">
    <path clip-path="url(#pd4e69f8798)" d="M 115.069237 622.8 
L 124.127679 622.8 
L 124.127679 622.8 
L 115.069237 622.8 
z
" style="fill:#55a868;stroke:#ffffff;stroke-linejoin:miter;"/>
   </g>
   <g id="patch_62">
    <path clip-path="url(#pd4e69f8798)" d="M 133.18612 622.8 
L 142.244562 622.8 
L 142.244562 622.8 
L 133.18612 622.8 
z
" style="fill:#55a868;stroke:#ffffff;stroke-linejoin:miter;"/>
   </g>
   <g id="patch_63">
    <path clip-path="url(#pd4e69f8798)" d="M 151.303003 622.8 
L 160.361445 622.8 
L 160.361445 622.8 
L 151.303003 622.8 
z
" style="fill:#55a868;stroke:#ffffff;stroke-linejoin:miter;"/>
   </g>
   <g id="patch_64">
    <path clip-path="url(#pd4e69f8798)" d="M 169.419886 622.8 
L 178.478328 622.8 
L 178.478328 622.8 
L 169.419886 622.8 
z
" style="fill:#55a868;stroke:#ffffff;stroke-linejoin:miter;"/>
   </g>
   <g id="patch_65">
    <path clip-path="url(#pd4e69f8798)" d="M 187.536769 622.8 
L 196.595211 622.8 
L 196.595211 622.8 
L 187.536769 622.8 
z
" style="fill:#55a868;stroke:#ffffff;stroke-linejoin:miter;"/>
   </g>
   <g id="patch_66">
    <path clip-path="url(#pd4e69f8798)" d="M 205.653653 622.8 
L 214.712094 622.8 
L 214.712094 622.8 
L 205.653653 622.8 
z
" style="fill:#55a868;stroke:#ffffff;stroke-linejoin:miter;"/>
   </g>
   <g id="patch_67">
    <path clip-path="url(#pd4e69f8798)" d="M 223.770536 622.8 
L 232.828977 622.8 
L 232.828977 622.8 
L 223.770536 622.8 
z
" style="fill:#55a868;stroke:#ffffff;stroke-linejoin:miter;"/>
   </g>
   <g id="patch_68">
    <path clip-path="url(#pd4e69f8798)" d="M 241.887419 622.8 
L 250.94586 622.8 
L 250.94586 622.8 
L 241.887419 622.8 
z
" style="fill:#55a868;stroke:#ffffff;stroke-linejoin:miter;"/>
   </g>
   <g id="patch_69">
    <path clip-path="url(#pd4e69f8798)" d="M 260.004302 622.8 
L 269.062744 622.8 
L 269.062744 622.8 
L 260.004302 622.8 
z
" style="fill:#55a868;stroke:#ffffff;stroke-linejoin:miter;"/>
   </g>
   <g id="patch_70">
    <path clip-path="url(#pd4e69f8798)" d="M 278.121185 622.8 
L 287.179627 622.8 
L 287.179627 622.8 
L 278.121185 622.8 
z
" style="fill:#55a868;stroke:#ffffff;stroke-linejoin:miter;"/>
   </g>
   <g id="patch_71">
    <path clip-path="url(#pd4e69f8798)" d="M 296.238068 622.8 
L 305.29651 622.8 
L 305.29651 622.8 
L 296.238068 622.8 
z
" style="fill:#55a868;stroke:#ffffff;stroke-linejoin:miter;"/>
   </g>
   <g id="patch_72">
    <path clip-path="url(#pd4e69f8798)" d="M 314.354951 471.379459 
L 323.413393 471.379459 
L 323.413393 470.88278 
L 314.354951 470.88278 
z
" style="fill:#55a868;stroke:#ffffff;stroke-linejoin:miter;"/>
   </g>
   <g id="patch_73">
    <path clip-path="url(#pd4e69f8798)" d="M 332.471834 445.959846 
L 341.530276 445.959846 
L 341.530276 445.463166 
L 332.471834 445.463166 
z
" style="fill:#55a868;stroke:#ffffff;stroke-linejoin:miter;"/>
   </g>
   <g id="patch_74">
    <path clip-path="url(#pd4e69f8798)" d="M 350.588718 409.654054 
L 359.647159 409.654054 
L 359.647159 409.279691 
L 350.588718 409.279691 
z
" style="fill:#55a868;stroke:#ffffff;stroke-linejoin:miter;"/>
   </g>
   <g id="patch_75">
    <path clip-path="url(#pd4e69f8798)" d="M 368.705601 392.196139 
L 377.764042 392.196139 
L 377.764042 385.650347 
L 368.705601 385.650347 
z
" style="fill:#55a868;stroke:#ffffff;stroke-linejoin:miter;"/>
   </g>
   <g id="patch_76">
    <path clip-path="url(#pd4e69f8798)" d="M 386.822484 394.494208 
L 395.880925 394.494208 
L 395.880925 346.193977 
L 386.822484 346.193977 
z
" style="fill:#55a868;stroke:#ffffff;stroke-linejoin:miter;"/>
   </g>
   <g id="patch_77">
    <path clip-path="url(#pd4e69f8798)" d="M 404.939367 361.709653 
L 413.997808 361.709653 
L 413.997808 317.052973 
L 404.939367 317.052973 
z
" style="fill:#55a868;stroke:#ffffff;stroke-linejoin:miter;"/>
   </g>
   <g id="patch_78">
    <path clip-path="url(#pd4e69f8798)" d="M 423.05625 332.568649 
L 432.114692 332.568649 
L 432.114692 274.724015 
L 423.05625 274.724015 
z
" style="fill:#55a868;stroke:#ffffff;stroke-linejoin:miter;"/>
   </g>
   <g id="patch_79">
    <path clip-path="url(#pd4e69f8798)" d="M 441.173133 315.659305 
L 450.231575 315.659305 
L 450.231575 280.161544 
L 441.173133 280.161544 
z
" style="fill:#55a868;stroke:#ffffff;stroke-linejoin:miter;"/>
   </g>
   <g id="patch_80">
    <path clip-path="url(#pd4e69f8798)" d="M 459.290016 305.507027 
L 468.348458 305.507027 
L 468.348458 255.698224 
L 459.290016 255.698224 
z
" style="fill:#55a868;stroke:#ffffff;stroke-linejoin:miter;"/>
   </g>
   <g id="patch_81">
    <path clip-path="url(#pd4e69f8798)" d="M 477.406899 286.974208 
L 486.465341 286.974208 
L 486.465341 240.542085 
L 477.406899 240.542085 
z
" style="fill:#55a868;stroke:#ffffff;stroke-linejoin:miter;"/>
   </g>
   <g id="patch_82">
    <path clip-path="url(#pd4e69f8798)" d="M 495.523782 281.125251 
L 504.582224 281.125251 
L 504.582224 236.190579 
L 495.523782 236.190579 
z
" style="fill:#55a868;stroke:#ffffff;stroke-linejoin:miter;"/>
   </g>
   <g id="patch_83">
    <path clip-path="url(#pd4e69f8798)" d="M 513.640666 266.350888 
L 522.699107 266.350888 
L 522.699107 214.117992 
L 513.640666 214.117992 
z
" style="fill:#55a868;stroke:#ffffff;stroke-linejoin:miter;"/>
   </g>
   <g id="patch_84">
    <path clip-path="url(#pd4e69f8798)" d="M 531.757549 227.035367 
L 540.81599 227.035367 
L 540.81599 181.096216 
L 531.757549 181.096216 
z
" style="fill:#55a868;stroke:#ffffff;stroke-linejoin:miter;"/>
   </g>
   <g id="patch_85">
    <path clip-path="url(#pd4e69f8798)" d="M 549.874432 196.893591 
L 558.932873 196.893591 
L 558.932873 160.865792 
L 549.874432 160.865792 
z
" style="fill:#55a868;stroke:#ffffff;stroke-linejoin:miter;"/>
   </g>
   <g id="patch_86">
    <path clip-path="url(#pd4e69f8798)" d="M 567.991315 151.280618 
L 577.049756 151.280618 
L 577.049756 105.085714 
L 567.991315 105.085714 
z
" style="fill:#55a868;stroke:#ffffff;stroke-linejoin:miter;"/>
   </g>
   <g id="patch_87">
    <path d="M 74.30625 622.8 
L 74.30625 79.2 
" style="fill:none;stroke:#ffffff;stroke-linecap:square;stroke-linejoin:miter;stroke-width:1.25;"/>
   </g>
   <g id="patch_88">
    <path d="M 581.578977 622.8 
L 581.578977 79.2 
" style="fill:none;stroke:#ffffff;stroke-linecap:square;stroke-linejoin:miter;stroke-width:1.25;"/>
   </g>
   <g id="patch_89">
    <path d="M 74.30625 622.8 
L 581.578977 622.8 
" style="fill:none;stroke:#ffffff;stroke-linecap:square;stroke-linejoin:miter;stroke-width:1.25;"/>
   </g>
   <g id="patch_90">
    <path d="M 74.30625 79.2 
L 581.578977 79.2 
" style="fill:none;stroke:#ffffff;stroke-linecap:square;stroke-linejoin:miter;stroke-width:1.25;"/>
   </g>
   <g id="text_39">
    <!-- Verbruik Absoluut per Categorie -->
    <defs>
     <path d="M 34.1875 63.1875 
L 20.796875 26.90625 
L 47.609375 26.90625 
z
M 28.609375 72.90625 
L 39.796875 72.90625 
L 67.578125 0 
L 57.328125 0 
L 50.6875 18.703125 
L 17.828125 18.703125 
L 11.1875 0 
L 0.78125 0 
z
" id="DejaVuSans-65"/>
     <path d="M 44.28125 53.078125 
L 44.28125 44.578125 
Q 40.484375 46.53125 36.375 47.5 
Q 32.28125 48.484375 27.875 48.484375 
Q 21.1875 48.484375 17.84375 46.4375 
Q 14.5 44.390625 14.5 40.28125 
Q 14.5 37.15625 16.890625 35.375 
Q 19.28125 33.59375 26.515625 31.984375 
L 29.59375 31.296875 
Q 39.15625 29.25 43.1875 25.515625 
Q 47.21875 21.78125 47.21875 15.09375 
Q 47.21875 7.46875 41.1875 3.015625 
Q 35.15625 -1.421875 24.609375 -1.421875 
Q 20.21875 -1.421875 15.453125 -0.5625 
Q 10.6875 0.296875 5.421875 2 
L 5.421875 11.28125 
Q 10.40625 8.6875 15.234375 7.390625 
Q 20.0625 6.109375 24.8125 6.109375 
Q 31.15625 6.109375 34.5625 8.28125 
Q 37.984375 10.453125 37.984375 14.40625 
Q 37.984375 18.0625 35.515625 20.015625 
Q 33.0625 21.96875 24.703125 23.78125 
L 21.578125 24.515625 
Q 13.234375 26.265625 9.515625 29.90625 
Q 5.8125 33.546875 5.8125 39.890625 
Q 5.8125 47.609375 11.28125 51.796875 
Q 16.75 56 26.8125 56 
Q 31.78125 56 36.171875 55.265625 
Q 40.578125 54.546875 44.28125 53.078125 
z
" id="DejaVuSans-115"/>
     <path d="M 30.609375 48.390625 
Q 23.390625 48.390625 19.1875 42.75 
Q 14.984375 37.109375 14.984375 27.296875 
Q 14.984375 17.484375 19.15625 11.84375 
Q 23.34375 6.203125 30.609375 6.203125 
Q 37.796875 6.203125 41.984375 11.859375 
Q 46.1875 17.53125 46.1875 27.296875 
Q 46.1875 37.015625 41.984375 42.703125 
Q 37.796875 48.390625 30.609375 48.390625 
z
M 30.609375 56 
Q 42.328125 56 49.015625 48.375 
Q 55.71875 40.765625 55.71875 27.296875 
Q 55.71875 13.875 49.015625 6.21875 
Q 42.328125 -1.421875 30.609375 -1.421875 
Q 18.84375 -1.421875 12.171875 6.21875 
Q 5.515625 13.875 5.515625 27.296875 
Q 5.515625 40.765625 12.171875 48.375 
Q 18.84375 56 30.609375 56 
z
" id="DejaVuSans-111"/>
     <path d="M 9.421875 75.984375 
L 18.40625 75.984375 
L 18.40625 0 
L 9.421875 0 
z
" id="DejaVuSans-108"/>
     <path d="M 18.3125 70.21875 
L 18.3125 54.6875 
L 36.8125 54.6875 
L 36.8125 47.703125 
L 18.3125 47.703125 
L 18.3125 18.015625 
Q 18.3125 11.328125 20.140625 9.421875 
Q 21.96875 7.515625 27.59375 7.515625 
L 36.8125 7.515625 
L 36.8125 0 
L 27.59375 0 
Q 17.1875 0 13.234375 3.875 
Q 9.28125 7.765625 9.28125 18.015625 
L 9.28125 47.703125 
L 2.6875 47.703125 
L 2.6875 54.6875 
L 9.28125 54.6875 
L 9.28125 70.21875 
z
" id="DejaVuSans-116"/>
     <path d="M 18.109375 8.203125 
L 18.109375 -20.796875 
L 9.078125 -20.796875 
L 9.078125 54.6875 
L 18.109375 54.6875 
L 18.109375 46.390625 
Q 20.953125 51.265625 25.265625 53.625 
Q 29.59375 56 35.59375 56 
Q 45.5625 56 51.78125 48.09375 
Q 58.015625 40.1875 58.015625 27.296875 
Q 58.015625 14.40625 51.78125 6.484375 
Q 45.5625 -1.421875 35.59375 -1.421875 
Q 29.59375 -1.421875 25.265625 0.953125 
Q 20.953125 3.328125 18.109375 8.203125 
z
M 48.6875 27.296875 
Q 48.6875 37.203125 44.609375 42.84375 
Q 40.53125 48.484375 33.40625 48.484375 
Q 26.265625 48.484375 22.1875 42.84375 
Q 18.109375 37.203125 18.109375 27.296875 
Q 18.109375 17.390625 22.1875 11.75 
Q 26.265625 6.109375 33.40625 6.109375 
Q 40.53125 6.109375 44.609375 11.75 
Q 48.6875 17.390625 48.6875 27.296875 
z
" id="DejaVuSans-112"/>
     <path d="M 64.40625 67.28125 
L 64.40625 56.890625 
Q 59.421875 61.53125 53.78125 63.8125 
Q 48.140625 66.109375 41.796875 66.109375 
Q 29.296875 66.109375 22.65625 58.46875 
Q 16.015625 50.828125 16.015625 36.375 
Q 16.015625 21.96875 22.65625 14.328125 
Q 29.296875 6.6875 41.796875 6.6875 
Q 48.140625 6.6875 53.78125 8.984375 
Q 59.421875 11.28125 64.40625 15.921875 
L 64.40625 5.609375 
Q 59.234375 2.09375 53.4375 0.328125 
Q 47.65625 -1.421875 41.21875 -1.421875 
Q 24.65625 -1.421875 15.125 8.703125 
Q 5.609375 18.84375 5.609375 36.375 
Q 5.609375 53.953125 15.125 64.078125 
Q 24.65625 74.21875 41.21875 74.21875 
Q 47.75 74.21875 53.53125 72.484375 
Q 59.328125 70.75 64.40625 67.28125 
z
" id="DejaVuSans-67"/>
     <path d="M 45.40625 27.984375 
Q 45.40625 37.75 41.375 43.109375 
Q 37.359375 48.484375 30.078125 48.484375 
Q 22.859375 48.484375 18.828125 43.109375 
Q 14.796875 37.75 14.796875 27.984375 
Q 14.796875 18.265625 18.828125 12.890625 
Q 22.859375 7.515625 30.078125 7.515625 
Q 37.359375 7.515625 41.375 12.890625 
Q 45.40625 18.265625 45.40625 27.984375 
z
M 54.390625 6.78125 
Q 54.390625 -7.171875 48.1875 -13.984375 
Q 42 -20.796875 29.203125 -20.796875 
Q 24.46875 -20.796875 20.265625 -20.09375 
Q 16.0625 -19.390625 12.109375 -17.921875 
L 12.109375 -9.1875 
Q 16.0625 -11.328125 19.921875 -12.34375 
Q 23.78125 -13.375 27.78125 -13.375 
Q 36.625 -13.375 41.015625 -8.765625 
Q 45.40625 -4.15625 45.40625 5.171875 
L 45.40625 9.625 
Q 42.625 4.78125 38.28125 2.390625 
Q 33.9375 0 27.875 0 
Q 17.828125 0 11.671875 7.65625 
Q 5.515625 15.328125 5.515625 27.984375 
Q 5.515625 40.671875 11.671875 48.328125 
Q 17.828125 56 27.875 56 
Q 33.9375 56 38.28125 53.609375 
Q 42.625 51.21875 45.40625 46.390625 
L 45.40625 54.6875 
L 54.390625 54.6875 
z
" id="DejaVuSans-103"/>
    </defs>
    <g style="fill:#262626;" transform="translate(182.871051 73.2)scale(0.18 -0.18)">
     <use xlink:href="#DejaVuSans-86"/>
     <use x="68.298828" xlink:href="#DejaVuSans-101"/>
     <use x="129.822266" xlink:href="#DejaVuSans-114"/>
     <use x="170.935547" xlink:href="#DejaVuSans-98"/>
     <use x="234.412109" xlink:href="#DejaVuSans-114"/>
     <use x="275.525391" xlink:href="#DejaVuSans-117"/>
     <use x="338.904297" xlink:href="#DejaVuSans-105"/>
     <use x="366.6875" xlink:href="#DejaVuSans-107"/>
     <use x="424.597656" xlink:href="#DejaVuSans-32"/>
     <use x="456.384766" xlink:href="#DejaVuSans-65"/>
     <use x="524.792969" xlink:href="#DejaVuSans-98"/>
     <use x="588.269531" xlink:href="#DejaVuSans-115"/>
     <use x="640.369141" xlink:href="#DejaVuSans-111"/>
     <use x="701.550781" xlink:href="#DejaVuSans-108"/>
     <use x="729.333984" xlink:href="#DejaVuSans-117"/>
     <use x="792.712891" xlink:href="#DejaVuSans-117"/>
     <use x="856.091797" xlink:href="#DejaVuSans-116"/>
     <use x="895.300781" xlink:href="#DejaVuSans-32"/>
     <use x="927.087891" xlink:href="#DejaVuSans-112"/>
     <use x="990.564453" xlink:href="#DejaVuSans-101"/>
     <use x="1052.087891" xlink:href="#DejaVuSans-114"/>
     <use x="1093.201172" xlink:href="#DejaVuSans-32"/>
     <use x="1124.988281" xlink:href="#DejaVuSans-67"/>
     <use x="1194.8125" xlink:href="#DejaVuSans-97"/>
     <use x="1256.091797" xlink:href="#DejaVuSans-116"/>
     <use x="1295.300781" xlink:href="#DejaVuSans-101"/>
     <use x="1356.824219" xlink:href="#DejaVuSans-103"/>
     <use x="1420.300781" xlink:href="#DejaVuSans-111"/>
     <use x="1481.482422" xlink:href="#DejaVuSans-114"/>
     <use x="1522.595703" xlink:href="#DejaVuSans-105"/>
     <use x="1550.378906" xlink:href="#DejaVuSans-101"/>
    </g>
   </g>
   <g id="legend_1">
    <g id="patch_91">
     <path d="M 82.00625 153.551562 
L 212.695 153.551562 
Q 214.895 153.551562 214.895 151.351562 
L 214.895 86.9 
Q 214.895 84.7 212.695 84.7 
L 82.00625 84.7 
Q 79.80625 84.7 79.80625 86.9 
L 79.80625 151.351562 
Q 79.80625 153.551562 82.00625 153.551562 
z
" style="fill:#eaeaf2;opacity:0.8;stroke:#cccccc;stroke-linejoin:miter;"/>
    </g>
    <g id="text_40">
     <!-- Energietoepassingen -->
     <defs>
      <path d="M 9.8125 72.90625 
L 55.90625 72.90625 
L 55.90625 64.59375 
L 19.671875 64.59375 
L 19.671875 43.015625 
L 54.390625 43.015625 
L 54.390625 34.71875 
L 19.671875 34.71875 
L 19.671875 8.296875 
L 56.78125 8.296875 
L 56.78125 0 
L 9.8125 0 
z
" id="DejaVuSans-69"/>
      <path d="M 54.890625 33.015625 
L 54.890625 0 
L 45.90625 0 
L 45.90625 32.71875 
Q 45.90625 40.484375 42.875 44.328125 
Q 39.84375 48.1875 33.796875 48.1875 
Q 26.515625 48.1875 22.3125 43.546875 
Q 18.109375 38.921875 18.109375 30.90625 
L 18.109375 0 
L 9.078125 0 
L 9.078125 54.6875 
L 18.109375 54.6875 
L 18.109375 46.1875 
Q 21.34375 51.125 25.703125 53.5625 
Q 30.078125 56 35.796875 56 
Q 45.21875 56 50.046875 50.171875 
Q 54.890625 44.34375 54.890625 33.015625 
z
" id="DejaVuSans-110"/>
     </defs>
     <g style="fill:#262626;" transform="translate(84.20625 98.218125)scale(0.12 -0.12)">
      <use xlink:href="#DejaVuSans-69"/>
      <use x="63.183594" xlink:href="#DejaVuSans-110"/>
      <use x="126.5625" xlink:href="#DejaVuSans-101"/>
      <use x="188.085938" xlink:href="#DejaVuSans-114"/>
      <use x="229.183594" xlink:href="#DejaVuSans-103"/>
      <use x="292.660156" xlink:href="#DejaVuSans-105"/>
      <use x="320.443359" xlink:href="#DejaVuSans-101"/>
      <use x="381.966797" xlink:href="#DejaVuSans-116"/>
      <use x="421.175781" xlink:href="#DejaVuSans-111"/>
      <use x="482.357422" xlink:href="#DejaVuSans-101"/>
      <use x="543.880859" xlink:href="#DejaVuSans-112"/>
      <use x="607.357422" xlink:href="#DejaVuSans-97"/>
      <use x="668.636719" xlink:href="#DejaVuSans-115"/>
      <use x="720.736328" xlink:href="#DejaVuSans-115"/>
      <use x="772.835938" xlink:href="#DejaVuSans-105"/>
      <use x="800.619141" xlink:href="#DejaVuSans-110"/>
      <use x="863.998047" xlink:href="#DejaVuSans-103"/>
      <use x="927.474609" xlink:href="#DejaVuSans-101"/>
      <use x="988.998047" xlink:href="#DejaVuSans-110"/>
     </g>
    </g>
    <g id="patch_92">
     <path d="M 100.656484 114.572031 
L 122.656484 114.572031 
L 122.656484 106.872031 
L 100.656484 106.872031 
z
" style="fill:#4c72b0;stroke:#ffffff;stroke-linejoin:miter;"/>
    </g>
    <g id="text_41">
     <!-- Elektriciteit -->
     <defs>
      <path d="M 48.78125 52.59375 
L 48.78125 44.1875 
Q 44.96875 46.296875 41.140625 47.34375 
Q 37.3125 48.390625 33.40625 48.390625 
Q 24.65625 48.390625 19.8125 42.84375 
Q 14.984375 37.3125 14.984375 27.296875 
Q 14.984375 17.28125 19.8125 11.734375 
Q 24.65625 6.203125 33.40625 6.203125 
Q 37.3125 6.203125 41.140625 7.25 
Q 44.96875 8.296875 48.78125 10.40625 
L 48.78125 2.09375 
Q 45.015625 0.34375 40.984375 -0.53125 
Q 36.96875 -1.421875 32.421875 -1.421875 
Q 20.0625 -1.421875 12.78125 6.34375 
Q 5.515625 14.109375 5.515625 27.296875 
Q 5.515625 40.671875 12.859375 48.328125 
Q 20.21875 56 33.015625 56 
Q 37.15625 56 41.109375 55.140625 
Q 45.0625 54.296875 48.78125 52.59375 
z
" id="DejaVuSans-99"/>
     </defs>
     <g style="fill:#262626;" transform="translate(131.456484 114.572031)scale(0.11 -0.11)">
      <use xlink:href="#DejaVuSans-69"/>
      <use x="63.183594" xlink:href="#DejaVuSans-108"/>
      <use x="90.966797" xlink:href="#DejaVuSans-101"/>
      <use x="152.490234" xlink:href="#DejaVuSans-107"/>
      <use x="210.400391" xlink:href="#DejaVuSans-116"/>
      <use x="249.609375" xlink:href="#DejaVuSans-114"/>
      <use x="290.722656" xlink:href="#DejaVuSans-105"/>
      <use x="318.505859" xlink:href="#DejaVuSans-99"/>
      <use x="373.486328" xlink:href="#DejaVuSans-105"/>
      <use x="401.269531" xlink:href="#DejaVuSans-116"/>
      <use x="440.478516" xlink:href="#DejaVuSans-101"/>
      <use x="502.001953" xlink:href="#DejaVuSans-105"/>
      <use x="529.785156" xlink:href="#DejaVuSans-116"/>
     </g>
    </g>
    <g id="patch_93">
     <path d="M 100.656484 130.717969 
L 122.656484 130.717969 
L 122.656484 123.017969 
L 100.656484 123.017969 
z
" style="fill:#dd8452;stroke:#ffffff;stroke-linejoin:miter;"/>
    </g>
    <g id="text_42">
     <!-- Warmte -->
     <defs>
      <path d="M 3.328125 72.90625 
L 13.28125 72.90625 
L 28.609375 11.28125 
L 43.890625 72.90625 
L 54.984375 72.90625 
L 70.3125 11.28125 
L 85.59375 72.90625 
L 95.609375 72.90625 
L 77.296875 0 
L 64.890625 0 
L 49.515625 63.28125 
L 33.984375 0 
L 21.578125 0 
z
" id="DejaVuSans-87"/>
      <path d="M 52 44.1875 
Q 55.375 50.25 60.0625 53.125 
Q 64.75 56 71.09375 56 
Q 79.640625 56 84.28125 50.015625 
Q 88.921875 44.046875 88.921875 33.015625 
L 88.921875 0 
L 79.890625 0 
L 79.890625 32.71875 
Q 79.890625 40.578125 77.09375 44.375 
Q 74.3125 48.1875 68.609375 48.1875 
Q 61.625 48.1875 57.5625 43.546875 
Q 53.515625 38.921875 53.515625 30.90625 
L 53.515625 0 
L 44.484375 0 
L 44.484375 32.71875 
Q 44.484375 40.625 41.703125 44.40625 
Q 38.921875 48.1875 33.109375 48.1875 
Q 26.21875 48.1875 22.15625 43.53125 
Q 18.109375 38.875 18.109375 30.90625 
L 18.109375 0 
L 9.078125 0 
L 9.078125 54.6875 
L 18.109375 54.6875 
L 18.109375 46.1875 
Q 21.1875 51.21875 25.484375 53.609375 
Q 29.78125 56 35.6875 56 
Q 41.65625 56 45.828125 52.96875 
Q 50 49.953125 52 44.1875 
z
" id="DejaVuSans-109"/>
     </defs>
     <g style="fill:#262626;" transform="translate(131.456484 130.717969)scale(0.11 -0.11)">
      <use xlink:href="#DejaVuSans-87"/>
      <use x="98.783203" xlink:href="#DejaVuSans-97"/>
      <use x="160.0625" xlink:href="#DejaVuSans-114"/>
      <use x="201.160156" xlink:href="#DejaVuSans-109"/>
      <use x="298.572266" xlink:href="#DejaVuSans-116"/>
      <use x="337.78125" xlink:href="#DejaVuSans-101"/>
     </g>
    </g>
    <g id="patch_94">
     <path d="M 100.656484 146.863906 
L 122.656484 146.863906 
L 122.656484 139.163906 
L 100.656484 139.163906 
z
" style="fill:#55a868;stroke:#ffffff;stroke-linejoin:miter;"/>
    </g>
    <g id="text_43">
     <!-- Vervoer -->
     <defs>
      <path d="M 2.984375 54.6875 
L 12.5 54.6875 
L 29.59375 8.796875 
L 46.6875 54.6875 
L 56.203125 54.6875 
L 35.6875 0 
L 23.484375 0 
z
" id="DejaVuSans-118"/>
     </defs>
     <g style="fill:#262626;" transform="translate(131.456484 146.863906)scale(0.11 -0.11)">
      <use xlink:href="#DejaVuSans-86"/>
      <use x="68.298828" xlink:href="#DejaVuSans-101"/>
      <use x="129.822266" xlink:href="#DejaVuSans-114"/>
      <use x="170.935547" xlink:href="#DejaVuSans-118"/>
      <use x="230.115234" xlink:href="#DejaVuSans-111"/>
      <use x="291.296875" xlink:href="#DejaVuSans-101"/>
      <use x="352.820312" xlink:href="#DejaVuSans-114"/>
     </g>
    </g>
   </g>
  </g>
  <g id="axes_2">
   <g id="patch_95">
    <path d="M 683.033523 622.8 
L 1190.30625 622.8 
L 1190.30625 79.2 
L 683.033523 79.2 
z
" style="fill:#eaeaf2;"/>
   </g>
   <g id="matplotlib.axis_3">
    <g id="xtick_29">
     <g id="line2d_37">
      <path clip-path="url(#p6d50aadab4)" d="M 699.397159 622.8 
L 699.397159 79.2 
" style="fill:none;stroke:#ffffff;stroke-linecap:round;"/>
     </g>
     <g id="text_44">
      <!-- 1990 -->
      <g style="fill:#262626;" transform="translate(685.399659 640.658281)scale(0.11 -0.11)">
       <use xlink:href="#DejaVuSans-49"/>
       <use x="63.623047" xlink:href="#DejaVuSans-57"/>
       <use x="127.246094" xlink:href="#DejaVuSans-57"/>
       <use x="190.869141" xlink:href="#DejaVuSans-48"/>
      </g>
     </g>
    </g>
    <g id="xtick_30">
     <g id="line2d_38">
      <path clip-path="url(#p6d50aadab4)" d="M 781.215341 622.8 
L 781.215341 79.2 
" style="fill:none;stroke:#ffffff;stroke-linecap:round;"/>
     </g>
     <g id="text_45">
      <!-- 1995 -->
      <g style="fill:#262626;" transform="translate(767.217841 640.658281)scale(0.11 -0.11)">
       <use xlink:href="#DejaVuSans-49"/>
       <use x="63.623047" xlink:href="#DejaVuSans-57"/>
       <use x="127.246094" xlink:href="#DejaVuSans-57"/>
       <use x="190.869141" xlink:href="#DejaVuSans-53"/>
      </g>
     </g>
    </g>
    <g id="xtick_31">
     <g id="line2d_39">
      <path clip-path="url(#p6d50aadab4)" d="M 863.033523 622.8 
L 863.033523 79.2 
" style="fill:none;stroke:#ffffff;stroke-linecap:round;"/>
     </g>
     <g id="text_46">
      <!-- 2000 -->
      <g style="fill:#262626;" transform="translate(849.036023 640.658281)scale(0.11 -0.11)">
       <use xlink:href="#DejaVuSans-50"/>
       <use x="63.623047" xlink:href="#DejaVuSans-48"/>
       <use x="127.246094" xlink:href="#DejaVuSans-48"/>
       <use x="190.869141" xlink:href="#DejaVuSans-48"/>
      </g>
     </g>
    </g>
    <g id="xtick_32">
     <g id="line2d_40">
      <path clip-path="url(#p6d50aadab4)" d="M 944.851705 622.8 
L 944.851705 79.2 
" style="fill:none;stroke:#ffffff;stroke-linecap:round;"/>
     </g>
     <g id="text_47">
      <!-- 2005 -->
      <g style="fill:#262626;" transform="translate(930.854205 640.658281)scale(0.11 -0.11)">
       <use xlink:href="#DejaVuSans-50"/>
       <use x="63.623047" xlink:href="#DejaVuSans-48"/>
       <use x="127.246094" xlink:href="#DejaVuSans-48"/>
       <use x="190.869141" xlink:href="#DejaVuSans-53"/>
      </g>
     </g>
    </g>
    <g id="xtick_33">
     <g id="line2d_41">
      <path clip-path="url(#p6d50aadab4)" d="M 1026.669886 622.8 
L 1026.669886 79.2 
" style="fill:none;stroke:#ffffff;stroke-linecap:round;"/>
     </g>
     <g id="text_48">
      <!-- 2010 -->
      <g style="fill:#262626;" transform="translate(1012.672386 640.658281)scale(0.11 -0.11)">
       <use xlink:href="#DejaVuSans-50"/>
       <use x="63.623047" xlink:href="#DejaVuSans-48"/>
       <use x="127.246094" xlink:href="#DejaVuSans-49"/>
       <use x="190.869141" xlink:href="#DejaVuSans-48"/>
      </g>
     </g>
    </g>
    <g id="xtick_34">
     <g id="line2d_42">
      <path clip-path="url(#p6d50aadab4)" d="M 1108.488068 622.8 
L 1108.488068 79.2 
" style="fill:none;stroke:#ffffff;stroke-linecap:round;"/>
     </g>
     <g id="text_49">
      <!-- 2015 -->
      <g style="fill:#262626;" transform="translate(1094.490568 640.658281)scale(0.11 -0.11)">
       <use xlink:href="#DejaVuSans-50"/>
       <use x="63.623047" xlink:href="#DejaVuSans-48"/>
       <use x="127.246094" xlink:href="#DejaVuSans-49"/>
       <use x="190.869141" xlink:href="#DejaVuSans-53"/>
      </g>
     </g>
    </g>
    <g id="xtick_35">
     <g id="line2d_43">
      <path clip-path="url(#p6d50aadab4)" d="M 1190.30625 622.8 
L 1190.30625 79.2 
" style="fill:none;stroke:#ffffff;stroke-linecap:round;"/>
     </g>
     <g id="text_50">
      <!-- 2020 -->
      <g style="fill:#262626;" transform="translate(1176.30875 640.658281)scale(0.11 -0.11)">
       <use xlink:href="#DejaVuSans-50"/>
       <use x="63.623047" xlink:href="#DejaVuSans-48"/>
       <use x="127.246094" xlink:href="#DejaVuSans-50"/>
       <use x="190.869141" xlink:href="#DejaVuSans-48"/>
      </g>
     </g>
    </g>
    <g id="text_51">
     <!-- Jaar -->
     <g style="fill:#262626;" transform="translate(921.216136 659.103437)scale(0.16 -0.16)">
      <use xlink:href="#DejaVuSans-74"/>
      <use x="29.492188" xlink:href="#DejaVuSans-97"/>
      <use x="90.771484" xlink:href="#DejaVuSans-97"/>
      <use x="152.050781" xlink:href="#DejaVuSans-114"/>
     </g>
    </g>
   </g>
   <g id="matplotlib.axis_4">
    <g id="ytick_9">
     <g id="line2d_44">
      <path clip-path="url(#p6d50aadab4)" d="M 683.033523 622.8 
L 1190.30625 622.8 
" style="fill:none;stroke:#ffffff;stroke-linecap:round;"/>
     </g>
     <g id="text_52">
      <!-- 0 -->
      <g style="fill:#262626;" transform="translate(666.534773 626.979141)scale(0.11 -0.11)">
       <use xlink:href="#DejaVuSans-48"/>
      </g>
     </g>
    </g>
    <g id="ytick_10">
     <g id="line2d_45">
      <path clip-path="url(#p6d50aadab4)" d="M 683.033523 554.85 
L 1190.30625 554.85 
" style="fill:none;stroke:#ffffff;stroke-linecap:round;"/>
     </g>
     <g id="text_53">
      <!-- 1 -->
      <g style="fill:#262626;" transform="translate(666.534773 559.029141)scale(0.11 -0.11)">
       <use xlink:href="#DejaVuSans-49"/>
      </g>
     </g>
    </g>
    <g id="ytick_11">
     <g id="line2d_46">
      <path clip-path="url(#p6d50aadab4)" d="M 683.033523 486.9 
L 1190.30625 486.9 
" style="fill:none;stroke:#ffffff;stroke-linecap:round;"/>
     </g>
     <g id="text_54">
      <!-- 2 -->
      <g style="fill:#262626;" transform="translate(666.534773 491.079141)scale(0.11 -0.11)">
       <use xlink:href="#DejaVuSans-50"/>
      </g>
     </g>
    </g>
    <g id="ytick_12">
     <g id="line2d_47">
      <path clip-path="url(#p6d50aadab4)" d="M 683.033523 418.95 
L 1190.30625 418.95 
" style="fill:none;stroke:#ffffff;stroke-linecap:round;"/>
     </g>
     <g id="text_55">
      <!-- 3 -->
      <g style="fill:#262626;" transform="translate(666.534773 423.129141)scale(0.11 -0.11)">
       <use xlink:href="#DejaVuSans-51"/>
      </g>
     </g>
    </g>
    <g id="ytick_13">
     <g id="line2d_48">
      <path clip-path="url(#p6d50aadab4)" d="M 683.033523 351 
L 1190.30625 351 
" style="fill:none;stroke:#ffffff;stroke-linecap:round;"/>
     </g>
     <g id="text_56">
      <!-- 4 -->
      <g style="fill:#262626;" transform="translate(666.534773 355.179141)scale(0.11 -0.11)">
       <use xlink:href="#DejaVuSans-52"/>
      </g>
     </g>
    </g>
    <g id="ytick_14">
     <g id="line2d_49">
      <path clip-path="url(#p6d50aadab4)" d="M 683.033523 283.05 
L 1190.30625 283.05 
" style="fill:none;stroke:#ffffff;stroke-linecap:round;"/>
     </g>
     <g id="text_57">
      <!-- 5 -->
      <g style="fill:#262626;" transform="translate(666.534773 287.229141)scale(0.11 -0.11)">
       <use xlink:href="#DejaVuSans-53"/>
      </g>
     </g>
    </g>
    <g id="ytick_15">
     <g id="line2d_50">
      <path clip-path="url(#p6d50aadab4)" d="M 683.033523 215.1 
L 1190.30625 215.1 
" style="fill:none;stroke:#ffffff;stroke-linecap:round;"/>
     </g>
     <g id="text_58">
      <!-- 6 -->
      <g style="fill:#262626;" transform="translate(666.534773 219.279141)scale(0.11 -0.11)">
       <use xlink:href="#DejaVuSans-54"/>
      </g>
     </g>
    </g>
    <g id="ytick_16">
     <g id="line2d_51">
      <path clip-path="url(#p6d50aadab4)" d="M 683.033523 147.15 
L 1190.30625 147.15 
" style="fill:none;stroke:#ffffff;stroke-linecap:round;"/>
     </g>
     <g id="text_59">
      <!-- 7 -->
      <g style="fill:#262626;" transform="translate(666.534773 151.329141)scale(0.11 -0.11)">
       <use xlink:href="#DejaVuSans-55"/>
      </g>
     </g>
    </g>
    <g id="ytick_17">
     <g id="line2d_52">
      <path clip-path="url(#p6d50aadab4)" d="M 683.033523 79.2 
L 1190.30625 79.2 
" style="fill:none;stroke:#ffffff;stroke-linecap:round;"/>
     </g>
     <g id="text_60">
      <!-- 8 -->
      <g style="fill:#262626;" transform="translate(666.534773 83.379141)scale(0.11 -0.11)">
       <use xlink:href="#DejaVuSans-56"/>
      </g>
     </g>
    </g>
    <g id="text_61">
     <!-- Verbruik (%) -->
     <defs>
      <path d="M 72.703125 32.078125 
Q 68.453125 32.078125 66.03125 28.46875 
Q 63.625 24.859375 63.625 18.40625 
Q 63.625 12.0625 66.03125 8.421875 
Q 68.453125 4.78125 72.703125 4.78125 
Q 76.859375 4.78125 79.265625 8.421875 
Q 81.6875 12.0625 81.6875 18.40625 
Q 81.6875 24.8125 79.265625 28.4375 
Q 76.859375 32.078125 72.703125 32.078125 
z
M 72.703125 38.28125 
Q 80.421875 38.28125 84.953125 32.90625 
Q 89.5 27.546875 89.5 18.40625 
Q 89.5 9.28125 84.9375 3.921875 
Q 80.375 -1.421875 72.703125 -1.421875 
Q 64.890625 -1.421875 60.34375 3.921875 
Q 55.8125 9.28125 55.8125 18.40625 
Q 55.8125 27.59375 60.375 32.9375 
Q 64.9375 38.28125 72.703125 38.28125 
z
M 22.3125 68.015625 
Q 18.109375 68.015625 15.6875 64.375 
Q 13.28125 60.75 13.28125 54.390625 
Q 13.28125 47.953125 15.671875 44.328125 
Q 18.0625 40.71875 22.3125 40.71875 
Q 26.5625 40.71875 28.96875 44.328125 
Q 31.390625 47.953125 31.390625 54.390625 
Q 31.390625 60.6875 28.953125 64.34375 
Q 26.515625 68.015625 22.3125 68.015625 
z
M 66.40625 74.21875 
L 74.21875 74.21875 
L 28.609375 -1.421875 
L 20.796875 -1.421875 
z
M 22.3125 74.21875 
Q 30.03125 74.21875 34.609375 68.875 
Q 39.203125 63.53125 39.203125 54.390625 
Q 39.203125 45.171875 34.640625 39.84375 
Q 30.078125 34.515625 22.3125 34.515625 
Q 14.546875 34.515625 10.03125 39.859375 
Q 5.515625 45.21875 5.515625 54.390625 
Q 5.515625 63.484375 10.046875 68.84375 
Q 14.59375 74.21875 22.3125 74.21875 
z
" id="DejaVuSans-37"/>
     </defs>
     <g style="fill:#262626;" transform="translate(660.039148 388.765312)rotate(-90)scale(0.12 -0.12)">
      <use xlink:href="#DejaVuSans-86"/>
      <use x="68.298828" xlink:href="#DejaVuSans-101"/>
      <use x="129.822266" xlink:href="#DejaVuSans-114"/>
      <use x="170.935547" xlink:href="#DejaVuSans-98"/>
      <use x="234.412109" xlink:href="#DejaVuSans-114"/>
      <use x="275.525391" xlink:href="#DejaVuSans-117"/>
      <use x="338.904297" xlink:href="#DejaVuSans-105"/>
      <use x="366.6875" xlink:href="#DejaVuSans-107"/>
      <use x="424.597656" xlink:href="#DejaVuSans-32"/>
      <use x="456.384766" xlink:href="#DejaVuSans-40"/>
      <use x="495.398438" xlink:href="#DejaVuSans-37"/>
      <use x="590.417969" xlink:href="#DejaVuSans-41"/>
     </g>
    </g>
   </g>
   <g id="line2d_53">
    <path clip-path="url(#p6d50aadab4)" d="M 699.397159 539.901 
L 715.760795 542.619 
L 732.124432 539.2215 
L 748.488068 539.901 
L 764.851705 537.183 
L 781.215341 536.5035 
L 797.578977 535.1445 
L 813.942614 522.234 
L 830.30625 518.8365 
L 846.669886 512.721 
L 863.033523 511.362 
L 879.397159 507.285 
L 895.760795 495.7335 
L 912.124432 496.413 
L 928.488068 483.5025 
L 944.851705 452.925 
L 961.215341 432.54 
L 977.578977 397.206 
L 993.942614 377.5005 
L 1010.30625 331.974 
L 1026.669886 356.436 
L 1043.033523 315.666 
L 1059.397159 304.794 
L 1075.760795 301.3965 
L 1092.124432 250.434 
L 1108.488068 232.767 
L 1124.851705 219.8565 
L 1141.215341 174.33 
" style="fill:none;stroke:#4c72b0;stroke-linecap:round;stroke-width:1.5;"/>
    <defs>
     <path d="M 0 -3 
L -0.673542 -0.927051 
L -2.85317 -0.927051 
L -1.089814 0.354102 
L -1.763356 2.427051 
L -0 1.145898 
L 1.763356 2.427051 
L 1.089814 0.354102 
L 2.85317 -0.927051 
L 0.673542 -0.927051 
z
" id="mf8d2ccd031" style="stroke:#4c72b0;stroke-linejoin:bevel;"/>
    </defs>
    <g clip-path="url(#p6d50aadab4)">
     <use style="fill:#4c72b0;stroke:#4c72b0;stroke-linejoin:bevel;" x="699.397159" xlink:href="#mf8d2ccd031" y="539.901"/>
     <use style="fill:#4c72b0;stroke:#4c72b0;stroke-linejoin:bevel;" x="715.760795" xlink:href="#mf8d2ccd031" y="542.619"/>
     <use style="fill:#4c72b0;stroke:#4c72b0;stroke-linejoin:bevel;" x="732.124432" xlink:href="#mf8d2ccd031" y="539.2215"/>
     <use style="fill:#4c72b0;stroke:#4c72b0;stroke-linejoin:bevel;" x="748.488068" xlink:href="#mf8d2ccd031" y="539.901"/>
     <use style="fill:#4c72b0;stroke:#4c72b0;stroke-linejoin:bevel;" x="764.851705" xlink:href="#mf8d2ccd031" y="537.183"/>
     <use style="fill:#4c72b0;stroke:#4c72b0;stroke-linejoin:bevel;" x="781.215341" xlink:href="#mf8d2ccd031" y="536.5035"/>
     <use style="fill:#4c72b0;stroke:#4c72b0;stroke-linejoin:bevel;" x="797.578977" xlink:href="#mf8d2ccd031" y="535.1445"/>
     <use style="fill:#4c72b0;stroke:#4c72b0;stroke-linejoin:bevel;" x="813.942614" xlink:href="#mf8d2ccd031" y="522.234"/>
     <use style="fill:#4c72b0;stroke:#4c72b0;stroke-linejoin:bevel;" x="830.30625" xlink:href="#mf8d2ccd031" y="518.8365"/>
     <use style="fill:#4c72b0;stroke:#4c72b0;stroke-linejoin:bevel;" x="846.669886" xlink:href="#mf8d2ccd031" y="512.721"/>
     <use style="fill:#4c72b0;stroke:#4c72b0;stroke-linejoin:bevel;" x="863.033523" xlink:href="#mf8d2ccd031" y="511.362"/>
     <use style="fill:#4c72b0;stroke:#4c72b0;stroke-linejoin:bevel;" x="879.397159" xlink:href="#mf8d2ccd031" y="507.285"/>
     <use style="fill:#4c72b0;stroke:#4c72b0;stroke-linejoin:bevel;" x="895.760795" xlink:href="#mf8d2ccd031" y="495.7335"/>
     <use style="fill:#4c72b0;stroke:#4c72b0;stroke-linejoin:bevel;" x="912.124432" xlink:href="#mf8d2ccd031" y="496.413"/>
     <use style="fill:#4c72b0;stroke:#4c72b0;stroke-linejoin:bevel;" x="928.488068" xlink:href="#mf8d2ccd031" y="483.5025"/>
     <use style="fill:#4c72b0;stroke:#4c72b0;stroke-linejoin:bevel;" x="944.851705" xlink:href="#mf8d2ccd031" y="452.925"/>
     <use style="fill:#4c72b0;stroke:#4c72b0;stroke-linejoin:bevel;" x="961.215341" xlink:href="#mf8d2ccd031" y="432.54"/>
     <use style="fill:#4c72b0;stroke:#4c72b0;stroke-linejoin:bevel;" x="977.578977" xlink:href="#mf8d2ccd031" y="397.206"/>
     <use style="fill:#4c72b0;stroke:#4c72b0;stroke-linejoin:bevel;" x="993.942614" xlink:href="#mf8d2ccd031" y="377.5005"/>
     <use style="fill:#4c72b0;stroke:#4c72b0;stroke-linejoin:bevel;" x="1010.30625" xlink:href="#mf8d2ccd031" y="331.974"/>
     <use style="fill:#4c72b0;stroke:#4c72b0;stroke-linejoin:bevel;" x="1026.669886" xlink:href="#mf8d2ccd031" y="356.436"/>
     <use style="fill:#4c72b0;stroke:#4c72b0;stroke-linejoin:bevel;" x="1043.033523" xlink:href="#mf8d2ccd031" y="315.666"/>
     <use style="fill:#4c72b0;stroke:#4c72b0;stroke-linejoin:bevel;" x="1059.397159" xlink:href="#mf8d2ccd031" y="304.794"/>
     <use style="fill:#4c72b0;stroke:#4c72b0;stroke-linejoin:bevel;" x="1075.760795" xlink:href="#mf8d2ccd031" y="301.3965"/>
     <use style="fill:#4c72b0;stroke:#4c72b0;stroke-linejoin:bevel;" x="1092.124432" xlink:href="#mf8d2ccd031" y="250.434"/>
     <use style="fill:#4c72b0;stroke:#4c72b0;stroke-linejoin:bevel;" x="1108.488068" xlink:href="#mf8d2ccd031" y="232.767"/>
     <use style="fill:#4c72b0;stroke:#4c72b0;stroke-linejoin:bevel;" x="1124.851705" xlink:href="#mf8d2ccd031" y="219.8565"/>
     <use style="fill:#4c72b0;stroke:#4c72b0;stroke-linejoin:bevel;" x="1141.215341" xlink:href="#mf8d2ccd031" y="174.33"/>
    </g>
   </g>
   <g id="patch_96">
    <path d="M 683.033523 622.8 
L 683.033523 79.2 
" style="fill:none;stroke:#ffffff;stroke-linecap:square;stroke-linejoin:miter;stroke-width:1.25;"/>
   </g>
   <g id="patch_97">
    <path d="M 1190.30625 622.8 
L 1190.30625 79.2 
" style="fill:none;stroke:#ffffff;stroke-linecap:square;stroke-linejoin:miter;stroke-width:1.25;"/>
   </g>
   <g id="patch_98">
    <path d="M 683.033523 622.8 
L 1190.30625 622.8 
" style="fill:none;stroke:#ffffff;stroke-linecap:square;stroke-linejoin:miter;stroke-width:1.25;"/>
   </g>
   <g id="patch_99">
    <path d="M 683.033523 79.2 
L 1190.30625 79.2 
" style="fill:none;stroke:#ffffff;stroke-linecap:square;stroke-linejoin:miter;stroke-width:1.25;"/>
   </g>
   <g id="text_62">
    <!-- Verbruik Percentage van Totale Verbruik -->
    <defs>
     <path d="M 19.671875 64.796875 
L 19.671875 37.40625 
L 32.078125 37.40625 
Q 38.96875 37.40625 42.71875 40.96875 
Q 46.484375 44.53125 46.484375 51.125 
Q 46.484375 57.671875 42.71875 61.234375 
Q 38.96875 64.796875 32.078125 64.796875 
z
M 9.8125 72.90625 
L 32.078125 72.90625 
Q 44.34375 72.90625 50.609375 67.359375 
Q 56.890625 61.8125 56.890625 51.125 
Q 56.890625 40.328125 50.609375 34.8125 
Q 44.34375 29.296875 32.078125 29.296875 
L 19.671875 29.296875 
L 19.671875 0 
L 9.8125 0 
z
" id="DejaVuSans-80"/>
    </defs>
    <g style="fill:#262626;" transform="translate(753.051605 73.2)scale(0.18 -0.18)">
     <use xlink:href="#DejaVuSans-86"/>
     <use x="68.298828" xlink:href="#DejaVuSans-101"/>
     <use x="129.822266" xlink:href="#DejaVuSans-114"/>
     <use x="170.935547" xlink:href="#DejaVuSans-98"/>
     <use x="234.412109" xlink:href="#DejaVuSans-114"/>
     <use x="275.525391" xlink:href="#DejaVuSans-117"/>
     <use x="338.904297" xlink:href="#DejaVuSans-105"/>
     <use x="366.6875" xlink:href="#DejaVuSans-107"/>
     <use x="424.597656" xlink:href="#DejaVuSans-32"/>
     <use x="456.384766" xlink:href="#DejaVuSans-80"/>
     <use x="516.640625" xlink:href="#DejaVuSans-101"/>
     <use x="578.164062" xlink:href="#DejaVuSans-114"/>
     <use x="619.246094" xlink:href="#DejaVuSans-99"/>
     <use x="674.226562" xlink:href="#DejaVuSans-101"/>
     <use x="735.75" xlink:href="#DejaVuSans-110"/>
     <use x="799.128906" xlink:href="#DejaVuSans-116"/>
     <use x="838.337891" xlink:href="#DejaVuSans-97"/>
     <use x="899.617188" xlink:href="#DejaVuSans-103"/>
     <use x="963.09375" xlink:href="#DejaVuSans-101"/>
     <use x="1024.617188" xlink:href="#DejaVuSans-32"/>
     <use x="1056.404297" xlink:href="#DejaVuSans-118"/>
     <use x="1115.583984" xlink:href="#DejaVuSans-97"/>
     <use x="1176.863281" xlink:href="#DejaVuSans-110"/>
     <use x="1240.242188" xlink:href="#DejaVuSans-32"/>
     <use x="1272.029297" xlink:href="#DejaVuSans-84"/>
     <use x="1332.847656" xlink:href="#DejaVuSans-111"/>
     <use x="1394.029297" xlink:href="#DejaVuSans-116"/>
     <use x="1433.238281" xlink:href="#DejaVuSans-97"/>
     <use x="1494.517578" xlink:href="#DejaVuSans-108"/>
     <use x="1522.300781" xlink:href="#DejaVuSans-101"/>
     <use x="1583.824219" xlink:href="#DejaVuSans-32"/>
     <use x="1615.611328" xlink:href="#DejaVuSans-86"/>
     <use x="1683.910156" xlink:href="#DejaVuSans-101"/>
     <use x="1745.433594" xlink:href="#DejaVuSans-114"/>
     <use x="1786.546875" xlink:href="#DejaVuSans-98"/>
     <use x="1850.023438" xlink:href="#DejaVuSans-114"/>
     <use x="1891.136719" xlink:href="#DejaVuSans-117"/>
     <use x="1954.515625" xlink:href="#DejaVuSans-105"/>
     <use x="1982.298828" xlink:href="#DejaVuSans-107"/>
    </g>
   </g>
  </g>
  <g id="text_63">
   <!-- Energie Verbruik Uit Hernieuwbare Bronnen -->
   <defs>
    <path d="M 8.6875 72.90625 
L 18.609375 72.90625 
L 18.609375 28.609375 
Q 18.609375 16.890625 22.84375 11.734375 
Q 27.09375 6.59375 36.625 6.59375 
Q 46.09375 6.59375 50.34375 11.734375 
Q 54.59375 16.890625 54.59375 28.609375 
L 54.59375 72.90625 
L 64.5 72.90625 
L 64.5 27.390625 
Q 64.5 13.140625 57.4375 5.859375 
Q 50.390625 -1.421875 36.625 -1.421875 
Q 22.796875 -1.421875 15.734375 5.859375 
Q 8.6875 13.140625 8.6875 27.390625 
z
" id="DejaVuSans-85"/>
    <path d="M 9.8125 72.90625 
L 19.671875 72.90625 
L 19.671875 43.015625 
L 55.515625 43.015625 
L 55.515625 72.90625 
L 65.375 72.90625 
L 65.375 0 
L 55.515625 0 
L 55.515625 34.71875 
L 19.671875 34.71875 
L 19.671875 0 
L 9.8125 0 
z
" id="DejaVuSans-72"/>
    <path d="M 4.203125 54.6875 
L 13.1875 54.6875 
L 24.421875 12.015625 
L 35.59375 54.6875 
L 46.1875 54.6875 
L 57.421875 12.015625 
L 68.609375 54.6875 
L 77.59375 54.6875 
L 63.28125 0 
L 52.6875 0 
L 40.921875 44.828125 
L 29.109375 0 
L 18.5 0 
z
" id="DejaVuSans-119"/>
    <path d="M 19.671875 34.8125 
L 19.671875 8.109375 
L 35.5 8.109375 
Q 43.453125 8.109375 47.28125 11.40625 
Q 51.125 14.703125 51.125 21.484375 
Q 51.125 28.328125 47.28125 31.5625 
Q 43.453125 34.8125 35.5 34.8125 
z
M 19.671875 64.796875 
L 19.671875 42.828125 
L 34.28125 42.828125 
Q 41.5 42.828125 45.03125 45.53125 
Q 48.578125 48.25 48.578125 53.8125 
Q 48.578125 59.328125 45.03125 62.0625 
Q 41.5 64.796875 34.28125 64.796875 
z
M 9.8125 72.90625 
L 35.015625 72.90625 
Q 46.296875 72.90625 52.390625 68.21875 
Q 58.5 63.53125 58.5 54.890625 
Q 58.5 48.1875 55.375 44.234375 
Q 52.25 40.28125 46.1875 39.3125 
Q 53.46875 37.75 57.5 32.78125 
Q 61.53125 27.828125 61.53125 20.40625 
Q 61.53125 10.640625 54.890625 5.3125 
Q 48.25 0 35.984375 0 
L 9.8125 0 
z
" id="DejaVuSans-66"/>
   </defs>
   <g style="fill:#262626;" transform="translate(394.360937 22.396875)scale(0.2 -0.2)">
    <use xlink:href="#DejaVuSans-69"/>
    <use x="63.183594" xlink:href="#DejaVuSans-110"/>
    <use x="126.5625" xlink:href="#DejaVuSans-101"/>
    <use x="188.085938" xlink:href="#DejaVuSans-114"/>
    <use x="229.183594" xlink:href="#DejaVuSans-103"/>
    <use x="292.660156" xlink:href="#DejaVuSans-105"/>
    <use x="320.443359" xlink:href="#DejaVuSans-101"/>
    <use x="381.966797" xlink:href="#DejaVuSans-32"/>
    <use x="413.753906" xlink:href="#DejaVuSans-86"/>
    <use x="482.052734" xlink:href="#DejaVuSans-101"/>
    <use x="543.576172" xlink:href="#DejaVuSans-114"/>
    <use x="584.689453" xlink:href="#DejaVuSans-98"/>
    <use x="648.166016" xlink:href="#DejaVuSans-114"/>
    <use x="689.279297" xlink:href="#DejaVuSans-117"/>
    <use x="752.658203" xlink:href="#DejaVuSans-105"/>
    <use x="780.441406" xlink:href="#DejaVuSans-107"/>
    <use x="838.351562" xlink:href="#DejaVuSans-32"/>
    <use x="870.138672" xlink:href="#DejaVuSans-85"/>
    <use x="943.332031" xlink:href="#DejaVuSans-105"/>
    <use x="971.115234" xlink:href="#DejaVuSans-116"/>
    <use x="1010.324219" xlink:href="#DejaVuSans-32"/>
    <use x="1042.111328" xlink:href="#DejaVuSans-72"/>
    <use x="1117.306641" xlink:href="#DejaVuSans-101"/>
    <use x="1178.830078" xlink:href="#DejaVuSans-114"/>
    <use x="1219.927734" xlink:href="#DejaVuSans-110"/>
    <use x="1283.306641" xlink:href="#DejaVuSans-105"/>
    <use x="1311.089844" xlink:href="#DejaVuSans-101"/>
    <use x="1372.613281" xlink:href="#DejaVuSans-117"/>
    <use x="1435.992188" xlink:href="#DejaVuSans-119"/>
    <use x="1517.779297" xlink:href="#DejaVuSans-98"/>
    <use x="1581.255859" xlink:href="#DejaVuSans-97"/>
    <use x="1642.535156" xlink:href="#DejaVuSans-114"/>
    <use x="1683.617188" xlink:href="#DejaVuSans-101"/>
    <use x="1745.140625" xlink:href="#DejaVuSans-32"/>
    <use x="1776.927734" xlink:href="#DejaVuSans-66"/>
    <use x="1845.53125" xlink:href="#DejaVuSans-114"/>
    <use x="1886.613281" xlink:href="#DejaVuSans-111"/>
    <use x="1947.794922" xlink:href="#DejaVuSans-110"/>
    <use x="2011.173828" xlink:href="#DejaVuSans-110"/>
    <use x="2074.552734" xlink:href="#DejaVuSans-101"/>
    <use x="2136.076172" xlink:href="#DejaVuSans-110"/>
   </g>
  </g>
 </g>
 <defs>
  <clipPath id="pd4e69f8798">
   <rect height="543.6" width="507.272727" x="74.30625" y="79.2"/>
  </clipPath>
  <clipPath id="p6d50aadab4">
   <rect height="543.6" width="507.272727" x="683.033523" y="79.2"/>
  </clipPath>
 </defs>
</svg>
