<?xml version="1.0" encoding="utf-8" standalone="no"?>
<!DOCTYPE svg PUBLIC "-//W3C//DTD SVG 1.1//EN"
  "http://www.w3.org/Graphics/SVG/1.1/DTD/svg11.dtd">
<!-- Created with matplotlib (https://matplotlib.org/) -->
<svg height="636.176875pt" version="1.1" viewBox="0 0 1182.878438 636.176875" width="1182.878438pt" xmlns="http://www.w3.org/2000/svg" xmlns:xlink="http://www.w3.org/1999/xlink">
 <defs>
  <style type="text/css">
*{stroke-linecap:butt;stroke-linejoin:round;}
  </style>
 </defs>
 <g id="figure_1">
  <g id="patch_1">
   <path d="M -0 636.176875 
L 1182.878438 636.176875 
L 1182.878438 0 
L -0 0 
z
" style="fill:#ffffff;"/>
  </g>
  <g id="axes_1">
   <g id="patch_2">
    <path d="M 53.678438 571.996875 
L 1169.678437 571.996875 
L 1169.678437 28.396875 
L 53.678438 28.396875 
z
" style="fill:#eaeaf2;"/>
   </g>
   <g id="matplotlib.axis_1">
    <g id="xtick_1">
     <g id="line2d_1">
      <path clip-path="url(#p4d0e4ac643)" d="M 81.578438 571.996875 
L 81.578438 28.396875 
" style="fill:none;stroke:#ffffff;stroke-linecap:round;"/>
     </g>
     <g id="text_1">
      <!-- 1998 -->
      <defs>
       <path d="M 12.40625 8.296875 
L 28.515625 8.296875 
L 28.515625 63.921875 
L 10.984375 60.40625 
L 10.984375 69.390625 
L 28.421875 72.90625 
L 38.28125 72.90625 
L 38.28125 8.296875 
L 54.390625 8.296875 
L 54.390625 0 
L 12.40625 0 
z
" id="DejaVuSans-49"/>
       <path d="M 10.984375 1.515625 
L 10.984375 10.5 
Q 14.703125 8.734375 18.5 7.8125 
Q 22.3125 6.890625 25.984375 6.890625 
Q 35.75 6.890625 40.890625 13.453125 
Q 46.046875 20.015625 46.78125 33.40625 
Q 43.953125 29.203125 39.59375 26.953125 
Q 35.25 24.703125 29.984375 24.703125 
Q 19.046875 24.703125 12.671875 31.3125 
Q 6.296875 37.9375 6.296875 49.421875 
Q 6.296875 60.640625 12.9375 67.421875 
Q 19.578125 74.21875 30.609375 74.21875 
Q 43.265625 74.21875 49.921875 64.515625 
Q 56.59375 54.828125 56.59375 36.375 
Q 56.59375 19.140625 48.40625 8.859375 
Q 40.234375 -1.421875 26.421875 -1.421875 
Q 22.703125 -1.421875 18.890625 -0.6875 
Q 15.09375 0.046875 10.984375 1.515625 
z
M 30.609375 32.421875 
Q 37.25 32.421875 41.125 36.953125 
Q 45.015625 41.5 45.015625 49.421875 
Q 45.015625 57.28125 41.125 61.84375 
Q 37.25 66.40625 30.609375 66.40625 
Q 23.96875 66.40625 20.09375 61.84375 
Q 16.21875 57.28125 16.21875 49.421875 
Q 16.21875 41.5 20.09375 36.953125 
Q 23.96875 32.421875 30.609375 32.421875 
z
" id="DejaVuSans-57"/>
       <path d="M 31.78125 34.625 
Q 24.75 34.625 20.71875 30.859375 
Q 16.703125 27.09375 16.703125 20.515625 
Q 16.703125 13.921875 20.71875 10.15625 
Q 24.75 6.390625 31.78125 6.390625 
Q 38.8125 6.390625 42.859375 10.171875 
Q 46.921875 13.96875 46.921875 20.515625 
Q 46.921875 27.09375 42.890625 30.859375 
Q 38.875 34.625 31.78125 34.625 
z
M 21.921875 38.8125 
Q 15.578125 40.375 12.03125 44.71875 
Q 8.5 49.078125 8.5 55.328125 
Q 8.5 64.0625 14.71875 69.140625 
Q 20.953125 74.21875 31.78125 74.21875 
Q 42.671875 74.21875 48.875 69.140625 
Q 55.078125 64.0625 55.078125 55.328125 
Q 55.078125 49.078125 51.53125 44.71875 
Q 48 40.375 41.703125 38.8125 
Q 48.828125 37.15625 52.796875 32.3125 
Q 56.78125 27.484375 56.78125 20.515625 
Q 56.78125 9.90625 50.3125 4.234375 
Q 43.84375 -1.421875 31.78125 -1.421875 
Q 19.734375 -1.421875 13.25 4.234375 
Q 6.78125 9.90625 6.78125 20.515625 
Q 6.78125 27.484375 10.78125 32.3125 
Q 14.796875 37.15625 21.921875 38.8125 
z
M 18.3125 54.390625 
Q 18.3125 48.734375 21.84375 45.5625 
Q 25.390625 42.390625 31.78125 42.390625 
Q 38.140625 42.390625 41.71875 45.5625 
Q 45.3125 48.734375 45.3125 54.390625 
Q 45.3125 60.0625 41.71875 63.234375 
Q 38.140625 66.40625 31.78125 66.40625 
Q 25.390625 66.40625 21.84375 63.234375 
Q 18.3125 60.0625 18.3125 54.390625 
z
" id="DejaVuSans-56"/>
      </defs>
      <g style="fill:#262626;" transform="translate(84.61375 609.491875)rotate(-90)scale(0.11 -0.11)">
       <use xlink:href="#DejaVuSans-49"/>
       <use x="63.623047" xlink:href="#DejaVuSans-57"/>
       <use x="127.246094" xlink:href="#DejaVuSans-57"/>
       <use x="190.869141" xlink:href="#DejaVuSans-56"/>
      </g>
     </g>
    </g>
    <g id="xtick_2">
     <g id="line2d_2">
      <path clip-path="url(#p4d0e4ac643)" d="M 137.378438 571.996875 
L 137.378438 28.396875 
" style="fill:none;stroke:#ffffff;stroke-linecap:round;"/>
     </g>
     <g id="text_2">
      <!-- 1999 -->
      <g style="fill:#262626;" transform="translate(140.41375 609.491875)rotate(-90)scale(0.11 -0.11)">
       <use xlink:href="#DejaVuSans-49"/>
       <use x="63.623047" xlink:href="#DejaVuSans-57"/>
       <use x="127.246094" xlink:href="#DejaVuSans-57"/>
       <use x="190.869141" xlink:href="#DejaVuSans-57"/>
      </g>
     </g>
    </g>
    <g id="xtick_3">
     <g id="line2d_3">
      <path clip-path="url(#p4d0e4ac643)" d="M 193.178438 571.996875 
L 193.178438 28.396875 
" style="fill:none;stroke:#ffffff;stroke-linecap:round;"/>
     </g>
     <g id="text_3">
      <!-- 2000 -->
      <defs>
       <path d="M 19.1875 8.296875 
L 53.609375 8.296875 
L 53.609375 0 
L 7.328125 0 
L 7.328125 8.296875 
Q 12.9375 14.109375 22.625 23.890625 
Q 32.328125 33.6875 34.8125 36.53125 
Q 39.546875 41.84375 41.421875 45.53125 
Q 43.3125 49.21875 43.3125 52.78125 
Q 43.3125 58.59375 39.234375 62.25 
Q 35.15625 65.921875 28.609375 65.921875 
Q 23.96875 65.921875 18.8125 64.3125 
Q 13.671875 62.703125 7.8125 59.421875 
L 7.8125 69.390625 
Q 13.765625 71.78125 18.9375 73 
Q 24.125 74.21875 28.421875 74.21875 
Q 39.75 74.21875 46.484375 68.546875 
Q 53.21875 62.890625 53.21875 53.421875 
Q 53.21875 48.921875 51.53125 44.890625 
Q 49.859375 40.875 45.40625 35.40625 
Q 44.1875 33.984375 37.640625 27.21875 
Q 31.109375 20.453125 19.1875 8.296875 
z
" id="DejaVuSans-50"/>
       <path d="M 31.78125 66.40625 
Q 24.171875 66.40625 20.328125 58.90625 
Q 16.5 51.421875 16.5 36.375 
Q 16.5 21.390625 20.328125 13.890625 
Q 24.171875 6.390625 31.78125 6.390625 
Q 39.453125 6.390625 43.28125 13.890625 
Q 47.125 21.390625 47.125 36.375 
Q 47.125 51.421875 43.28125 58.90625 
Q 39.453125 66.40625 31.78125 66.40625 
z
M 31.78125 74.21875 
Q 44.046875 74.21875 50.515625 64.515625 
Q 56.984375 54.828125 56.984375 36.375 
Q 56.984375 17.96875 50.515625 8.265625 
Q 44.046875 -1.421875 31.78125 -1.421875 
Q 19.53125 -1.421875 13.0625 8.265625 
Q 6.59375 17.96875 6.59375 36.375 
Q 6.59375 54.828125 13.0625 64.515625 
Q 19.53125 74.21875 31.78125 74.21875 
z
" id="DejaVuSans-48"/>
      </defs>
      <g style="fill:#262626;" transform="translate(196.21375 609.491875)rotate(-90)scale(0.11 -0.11)">
       <use xlink:href="#DejaVuSans-50"/>
       <use x="63.623047" xlink:href="#DejaVuSans-48"/>
       <use x="127.246094" xlink:href="#DejaVuSans-48"/>
       <use x="190.869141" xlink:href="#DejaVuSans-48"/>
      </g>
     </g>
    </g>
    <g id="xtick_4">
     <g id="line2d_4">
      <path clip-path="url(#p4d0e4ac643)" d="M 248.978438 571.996875 
L 248.978438 28.396875 
" style="fill:none;stroke:#ffffff;stroke-linecap:round;"/>
     </g>
     <g id="text_4">
      <!-- 2001 -->
      <g style="fill:#262626;" transform="translate(252.01375 609.491875)rotate(-90)scale(0.11 -0.11)">
       <use xlink:href="#DejaVuSans-50"/>
       <use x="63.623047" xlink:href="#DejaVuSans-48"/>
       <use x="127.246094" xlink:href="#DejaVuSans-48"/>
       <use x="190.869141" xlink:href="#DejaVuSans-49"/>
      </g>
     </g>
    </g>
    <g id="xtick_5">
     <g id="line2d_5">
      <path clip-path="url(#p4d0e4ac643)" d="M 304.778438 571.996875 
L 304.778438 28.396875 
" style="fill:none;stroke:#ffffff;stroke-linecap:round;"/>
     </g>
     <g id="text_5">
      <!-- 2002 -->
      <g style="fill:#262626;" transform="translate(307.81375 609.491875)rotate(-90)scale(0.11 -0.11)">
       <use xlink:href="#DejaVuSans-50"/>
       <use x="63.623047" xlink:href="#DejaVuSans-48"/>
       <use x="127.246094" xlink:href="#DejaVuSans-48"/>
       <use x="190.869141" xlink:href="#DejaVuSans-50"/>
      </g>
     </g>
    </g>
    <g id="xtick_6">
     <g id="line2d_6">
      <path clip-path="url(#p4d0e4ac643)" d="M 360.578438 571.996875 
L 360.578438 28.396875 
" style="fill:none;stroke:#ffffff;stroke-linecap:round;"/>
     </g>
     <g id="text_6">
      <!-- 2003 -->
      <defs>
       <path d="M 40.578125 39.3125 
Q 47.65625 37.796875 51.625 33 
Q 55.609375 28.21875 55.609375 21.1875 
Q 55.609375 10.40625 48.1875 4.484375 
Q 40.765625 -1.421875 27.09375 -1.421875 
Q 22.515625 -1.421875 17.65625 -0.515625 
Q 12.796875 0.390625 7.625 2.203125 
L 7.625 11.71875 
Q 11.71875 9.328125 16.59375 8.109375 
Q 21.484375 6.890625 26.8125 6.890625 
Q 36.078125 6.890625 40.9375 10.546875 
Q 45.796875 14.203125 45.796875 21.1875 
Q 45.796875 27.640625 41.28125 31.265625 
Q 36.765625 34.90625 28.71875 34.90625 
L 20.21875 34.90625 
L 20.21875 43.015625 
L 29.109375 43.015625 
Q 36.375 43.015625 40.234375 45.921875 
Q 44.09375 48.828125 44.09375 54.296875 
Q 44.09375 59.90625 40.109375 62.90625 
Q 36.140625 65.921875 28.71875 65.921875 
Q 24.65625 65.921875 20.015625 65.03125 
Q 15.375 64.15625 9.8125 62.3125 
L 9.8125 71.09375 
Q 15.4375 72.65625 20.34375 73.4375 
Q 25.25 74.21875 29.59375 74.21875 
Q 40.828125 74.21875 47.359375 69.109375 
Q 53.90625 64.015625 53.90625 55.328125 
Q 53.90625 49.265625 50.4375 45.09375 
Q 46.96875 40.921875 40.578125 39.3125 
z
" id="DejaVuSans-51"/>
      </defs>
      <g style="fill:#262626;" transform="translate(363.61375 609.491875)rotate(-90)scale(0.11 -0.11)">
       <use xlink:href="#DejaVuSans-50"/>
       <use x="63.623047" xlink:href="#DejaVuSans-48"/>
       <use x="127.246094" xlink:href="#DejaVuSans-48"/>
       <use x="190.869141" xlink:href="#DejaVuSans-51"/>
      </g>
     </g>
    </g>
    <g id="xtick_7">
     <g id="line2d_7">
      <path clip-path="url(#p4d0e4ac643)" d="M 416.378438 571.996875 
L 416.378438 28.396875 
" style="fill:none;stroke:#ffffff;stroke-linecap:round;"/>
     </g>
     <g id="text_7">
      <!-- 2004 -->
      <defs>
       <path d="M 37.796875 64.3125 
L 12.890625 25.390625 
L 37.796875 25.390625 
z
M 35.203125 72.90625 
L 47.609375 72.90625 
L 47.609375 25.390625 
L 58.015625 25.390625 
L 58.015625 17.1875 
L 47.609375 17.1875 
L 47.609375 0 
L 37.796875 0 
L 37.796875 17.1875 
L 4.890625 17.1875 
L 4.890625 26.703125 
z
" id="DejaVuSans-52"/>
      </defs>
      <g style="fill:#262626;" transform="translate(419.41375 609.491875)rotate(-90)scale(0.11 -0.11)">
       <use xlink:href="#DejaVuSans-50"/>
       <use x="63.623047" xlink:href="#DejaVuSans-48"/>
       <use x="127.246094" xlink:href="#DejaVuSans-48"/>
       <use x="190.869141" xlink:href="#DejaVuSans-52"/>
      </g>
     </g>
    </g>
    <g id="xtick_8">
     <g id="line2d_8">
      <path clip-path="url(#p4d0e4ac643)" d="M 472.178438 571.996875 
L 472.178438 28.396875 
" style="fill:none;stroke:#ffffff;stroke-linecap:round;"/>
     </g>
     <g id="text_8">
      <!-- 2005 -->
      <defs>
       <path d="M 10.796875 72.90625 
L 49.515625 72.90625 
L 49.515625 64.59375 
L 19.828125 64.59375 
L 19.828125 46.734375 
Q 21.96875 47.46875 24.109375 47.828125 
Q 26.265625 48.1875 28.421875 48.1875 
Q 40.625 48.1875 47.75 41.5 
Q 54.890625 34.8125 54.890625 23.390625 
Q 54.890625 11.625 47.5625 5.09375 
Q 40.234375 -1.421875 26.90625 -1.421875 
Q 22.3125 -1.421875 17.546875 -0.640625 
Q 12.796875 0.140625 7.71875 1.703125 
L 7.71875 11.625 
Q 12.109375 9.234375 16.796875 8.0625 
Q 21.484375 6.890625 26.703125 6.890625 
Q 35.15625 6.890625 40.078125 11.328125 
Q 45.015625 15.765625 45.015625 23.390625 
Q 45.015625 31 40.078125 35.4375 
Q 35.15625 39.890625 26.703125 39.890625 
Q 22.75 39.890625 18.8125 39.015625 
Q 14.890625 38.140625 10.796875 36.28125 
z
" id="DejaVuSans-53"/>
      </defs>
      <g style="fill:#262626;" transform="translate(475.21375 609.491875)rotate(-90)scale(0.11 -0.11)">
       <use xlink:href="#DejaVuSans-50"/>
       <use x="63.623047" xlink:href="#DejaVuSans-48"/>
       <use x="127.246094" xlink:href="#DejaVuSans-48"/>
       <use x="190.869141" xlink:href="#DejaVuSans-53"/>
      </g>
     </g>
    </g>
    <g id="xtick_9">
     <g id="line2d_9">
      <path clip-path="url(#p4d0e4ac643)" d="M 527.978438 571.996875 
L 527.978438 28.396875 
" style="fill:none;stroke:#ffffff;stroke-linecap:round;"/>
     </g>
     <g id="text_9">
      <!-- 2006 -->
      <defs>
       <path d="M 33.015625 40.375 
Q 26.375 40.375 22.484375 35.828125 
Q 18.609375 31.296875 18.609375 23.390625 
Q 18.609375 15.53125 22.484375 10.953125 
Q 26.375 6.390625 33.015625 6.390625 
Q 39.65625 6.390625 43.53125 10.953125 
Q 47.40625 15.53125 47.40625 23.390625 
Q 47.40625 31.296875 43.53125 35.828125 
Q 39.65625 40.375 33.015625 40.375 
z
M 52.59375 71.296875 
L 52.59375 62.3125 
Q 48.875 64.0625 45.09375 64.984375 
Q 41.3125 65.921875 37.59375 65.921875 
Q 27.828125 65.921875 22.671875 59.328125 
Q 17.53125 52.734375 16.796875 39.40625 
Q 19.671875 43.65625 24.015625 45.921875 
Q 28.375 48.1875 33.59375 48.1875 
Q 44.578125 48.1875 50.953125 41.515625 
Q 57.328125 34.859375 57.328125 23.390625 
Q 57.328125 12.15625 50.6875 5.359375 
Q 44.046875 -1.421875 33.015625 -1.421875 
Q 20.359375 -1.421875 13.671875 8.265625 
Q 6.984375 17.96875 6.984375 36.375 
Q 6.984375 53.65625 15.1875 63.9375 
Q 23.390625 74.21875 37.203125 74.21875 
Q 40.921875 74.21875 44.703125 73.484375 
Q 48.484375 72.75 52.59375 71.296875 
z
" id="DejaVuSans-54"/>
      </defs>
      <g style="fill:#262626;" transform="translate(531.01375 609.491875)rotate(-90)scale(0.11 -0.11)">
       <use xlink:href="#DejaVuSans-50"/>
       <use x="63.623047" xlink:href="#DejaVuSans-48"/>
       <use x="127.246094" xlink:href="#DejaVuSans-48"/>
       <use x="190.869141" xlink:href="#DejaVuSans-54"/>
      </g>
     </g>
    </g>
    <g id="xtick_10">
     <g id="line2d_10">
      <path clip-path="url(#p4d0e4ac643)" d="M 583.778438 571.996875 
L 583.778438 28.396875 
" style="fill:none;stroke:#ffffff;stroke-linecap:round;"/>
     </g>
     <g id="text_10">
      <!-- 2007 -->
      <defs>
       <path d="M 8.203125 72.90625 
L 55.078125 72.90625 
L 55.078125 68.703125 
L 28.609375 0 
L 18.3125 0 
L 43.21875 64.59375 
L 8.203125 64.59375 
z
" id="DejaVuSans-55"/>
      </defs>
      <g style="fill:#262626;" transform="translate(586.81375 609.491875)rotate(-90)scale(0.11 -0.11)">
       <use xlink:href="#DejaVuSans-50"/>
       <use x="63.623047" xlink:href="#DejaVuSans-48"/>
       <use x="127.246094" xlink:href="#DejaVuSans-48"/>
       <use x="190.869141" xlink:href="#DejaVuSans-55"/>
      </g>
     </g>
    </g>
    <g id="xtick_11">
     <g id="line2d_11">
      <path clip-path="url(#p4d0e4ac643)" d="M 639.578438 571.996875 
L 639.578438 28.396875 
" style="fill:none;stroke:#ffffff;stroke-linecap:round;"/>
     </g>
     <g id="text_11">
      <!-- 2008 -->
      <g style="fill:#262626;" transform="translate(642.61375 609.491875)rotate(-90)scale(0.11 -0.11)">
       <use xlink:href="#DejaVuSans-50"/>
       <use x="63.623047" xlink:href="#DejaVuSans-48"/>
       <use x="127.246094" xlink:href="#DejaVuSans-48"/>
       <use x="190.869141" xlink:href="#DejaVuSans-56"/>
      </g>
     </g>
    </g>
    <g id="xtick_12">
     <g id="line2d_12">
      <path clip-path="url(#p4d0e4ac643)" d="M 695.378438 571.996875 
L 695.378438 28.396875 
" style="fill:none;stroke:#ffffff;stroke-linecap:round;"/>
     </g>
     <g id="text_12">
      <!-- 2009 -->
      <g style="fill:#262626;" transform="translate(698.41375 609.491875)rotate(-90)scale(0.11 -0.11)">
       <use xlink:href="#DejaVuSans-50"/>
       <use x="63.623047" xlink:href="#DejaVuSans-48"/>
       <use x="127.246094" xlink:href="#DejaVuSans-48"/>
       <use x="190.869141" xlink:href="#DejaVuSans-57"/>
      </g>
     </g>
    </g>
    <g id="xtick_13">
     <g id="line2d_13">
      <path clip-path="url(#p4d0e4ac643)" d="M 751.178438 571.996875 
L 751.178438 28.396875 
" style="fill:none;stroke:#ffffff;stroke-linecap:round;"/>
     </g>
     <g id="text_13">
      <!-- 2010 -->
      <g style="fill:#262626;" transform="translate(754.21375 609.491875)rotate(-90)scale(0.11 -0.11)">
       <use xlink:href="#DejaVuSans-50"/>
       <use x="63.623047" xlink:href="#DejaVuSans-48"/>
       <use x="127.246094" xlink:href="#DejaVuSans-49"/>
       <use x="190.869141" xlink:href="#DejaVuSans-48"/>
      </g>
     </g>
    </g>
    <g id="xtick_14">
     <g id="line2d_14">
      <path clip-path="url(#p4d0e4ac643)" d="M 806.978438 571.996875 
L 806.978438 28.396875 
" style="fill:none;stroke:#ffffff;stroke-linecap:round;"/>
     </g>
     <g id="text_14">
      <!-- 2011 -->
      <g style="fill:#262626;" transform="translate(810.01375 609.491875)rotate(-90)scale(0.11 -0.11)">
       <use xlink:href="#DejaVuSans-50"/>
       <use x="63.623047" xlink:href="#DejaVuSans-48"/>
       <use x="127.246094" xlink:href="#DejaVuSans-49"/>
       <use x="190.869141" xlink:href="#DejaVuSans-49"/>
      </g>
     </g>
    </g>
    <g id="xtick_15">
     <g id="line2d_15">
      <path clip-path="url(#p4d0e4ac643)" d="M 862.778438 571.996875 
L 862.778438 28.396875 
" style="fill:none;stroke:#ffffff;stroke-linecap:round;"/>
     </g>
     <g id="text_15">
      <!-- 2012 -->
      <g style="fill:#262626;" transform="translate(865.81375 609.491875)rotate(-90)scale(0.11 -0.11)">
       <use xlink:href="#DejaVuSans-50"/>
       <use x="63.623047" xlink:href="#DejaVuSans-48"/>
       <use x="127.246094" xlink:href="#DejaVuSans-49"/>
       <use x="190.869141" xlink:href="#DejaVuSans-50"/>
      </g>
     </g>
    </g>
    <g id="xtick_16">
     <g id="line2d_16">
      <path clip-path="url(#p4d0e4ac643)" d="M 918.578438 571.996875 
L 918.578438 28.396875 
" style="fill:none;stroke:#ffffff;stroke-linecap:round;"/>
     </g>
     <g id="text_16">
      <!-- 2013 -->
      <g style="fill:#262626;" transform="translate(921.61375 609.491875)rotate(-90)scale(0.11 -0.11)">
       <use xlink:href="#DejaVuSans-50"/>
       <use x="63.623047" xlink:href="#DejaVuSans-48"/>
       <use x="127.246094" xlink:href="#DejaVuSans-49"/>
       <use x="190.869141" xlink:href="#DejaVuSans-51"/>
      </g>
     </g>
    </g>
    <g id="xtick_17">
     <g id="line2d_17">
      <path clip-path="url(#p4d0e4ac643)" d="M 974.378438 571.996875 
L 974.378438 28.396875 
" style="fill:none;stroke:#ffffff;stroke-linecap:round;"/>
     </g>
     <g id="text_17">
      <!-- 2014 -->
      <g style="fill:#262626;" transform="translate(977.41375 609.491875)rotate(-90)scale(0.11 -0.11)">
       <use xlink:href="#DejaVuSans-50"/>
       <use x="63.623047" xlink:href="#DejaVuSans-48"/>
       <use x="127.246094" xlink:href="#DejaVuSans-49"/>
       <use x="190.869141" xlink:href="#DejaVuSans-52"/>
      </g>
     </g>
    </g>
    <g id="xtick_18">
     <g id="line2d_18">
      <path clip-path="url(#p4d0e4ac643)" d="M 1030.178437 571.996875 
L 1030.178437 28.396875 
" style="fill:none;stroke:#ffffff;stroke-linecap:round;"/>
     </g>
     <g id="text_18">
      <!-- 2015 -->
      <g style="fill:#262626;" transform="translate(1033.21375 609.491875)rotate(-90)scale(0.11 -0.11)">
       <use xlink:href="#DejaVuSans-50"/>
       <use x="63.623047" xlink:href="#DejaVuSans-48"/>
       <use x="127.246094" xlink:href="#DejaVuSans-49"/>
       <use x="190.869141" xlink:href="#DejaVuSans-53"/>
      </g>
     </g>
    </g>
    <g id="xtick_19">
     <g id="line2d_19">
      <path clip-path="url(#p4d0e4ac643)" d="M 1085.978438 571.996875 
L 1085.978438 28.396875 
" style="fill:none;stroke:#ffffff;stroke-linecap:round;"/>
     </g>
     <g id="text_19">
      <!-- 2016 -->
      <g style="fill:#262626;" transform="translate(1089.01375 609.491875)rotate(-90)scale(0.11 -0.11)">
       <use xlink:href="#DejaVuSans-50"/>
       <use x="63.623047" xlink:href="#DejaVuSans-48"/>
       <use x="127.246094" xlink:href="#DejaVuSans-49"/>
       <use x="190.869141" xlink:href="#DejaVuSans-54"/>
      </g>
     </g>
    </g>
    <g id="xtick_20">
     <g id="line2d_20">
      <path clip-path="url(#p4d0e4ac643)" d="M 1141.778438 571.996875 
L 1141.778438 28.396875 
" style="fill:none;stroke:#ffffff;stroke-linecap:round;"/>
     </g>
     <g id="text_20">
      <!-- 2017 -->
      <g style="fill:#262626;" transform="translate(1144.81375 609.491875)rotate(-90)scale(0.11 -0.11)">
       <use xlink:href="#DejaVuSans-50"/>
       <use x="63.623047" xlink:href="#DejaVuSans-48"/>
       <use x="127.246094" xlink:href="#DejaVuSans-49"/>
       <use x="190.869141" xlink:href="#DejaVuSans-55"/>
      </g>
     </g>
    </g>
    <g id="text_21">
     <!-- Jaar -->
     <defs>
      <path d="M 9.8125 72.90625 
L 19.671875 72.90625 
L 19.671875 5.078125 
Q 19.671875 -8.109375 14.671875 -14.0625 
Q 9.671875 -20.015625 -1.421875 -20.015625 
L -5.171875 -20.015625 
L -5.171875 -11.71875 
L -2.09375 -11.71875 
Q 4.4375 -11.71875 7.125 -8.046875 
Q 9.8125 -4.390625 9.8125 5.078125 
z
" id="DejaVuSans-74"/>
      <path d="M 34.28125 27.484375 
Q 23.390625 27.484375 19.1875 25 
Q 14.984375 22.515625 14.984375 16.5 
Q 14.984375 11.71875 18.140625 8.90625 
Q 21.296875 6.109375 26.703125 6.109375 
Q 34.1875 6.109375 38.703125 11.40625 
Q 43.21875 16.703125 43.21875 25.484375 
L 43.21875 27.484375 
z
M 52.203125 31.203125 
L 52.203125 0 
L 43.21875 0 
L 43.21875 8.296875 
Q 40.140625 3.328125 35.546875 0.953125 
Q 30.953125 -1.421875 24.3125 -1.421875 
Q 15.921875 -1.421875 10.953125 3.296875 
Q 6 8.015625 6 15.921875 
Q 6 25.140625 12.171875 29.828125 
Q 18.359375 34.515625 30.609375 34.515625 
L 43.21875 34.515625 
L 43.21875 35.40625 
Q 43.21875 41.609375 39.140625 45 
Q 35.0625 48.390625 27.6875 48.390625 
Q 23 48.390625 18.546875 47.265625 
Q 14.109375 46.140625 10.015625 43.890625 
L 10.015625 52.203125 
Q 14.9375 54.109375 19.578125 55.046875 
Q 24.21875 56 28.609375 56 
Q 40.484375 56 46.34375 49.84375 
Q 52.203125 43.703125 52.203125 31.203125 
z
" id="DejaVuSans-97"/>
      <path d="M 41.109375 46.296875 
Q 39.59375 47.171875 37.8125 47.578125 
Q 36.03125 48 33.890625 48 
Q 26.265625 48 22.1875 43.046875 
Q 18.109375 38.09375 18.109375 28.8125 
L 18.109375 0 
L 9.078125 0 
L 9.078125 54.6875 
L 18.109375 54.6875 
L 18.109375 46.1875 
Q 20.953125 51.171875 25.484375 53.578125 
Q 30.03125 56 36.53125 56 
Q 37.453125 56 38.578125 55.875 
Q 39.703125 55.765625 41.0625 55.515625 
z
" id="DejaVuSans-114"/>
     </defs>
     <g style="fill:#262626;" transform="translate(596.224687 625.649375)scale(0.16 -0.16)">
      <use xlink:href="#DejaVuSans-74"/>
      <use x="29.492188" xlink:href="#DejaVuSans-97"/>
      <use x="90.771484" xlink:href="#DejaVuSans-97"/>
      <use x="152.050781" xlink:href="#DejaVuSans-114"/>
     </g>
    </g>
   </g>
   <g id="matplotlib.axis_2">
    <g id="ytick_1">
     <g id="line2d_21">
      <path clip-path="url(#p4d0e4ac643)" d="M 53.678438 571.996875 
L 1169.678437 571.996875 
" style="fill:none;stroke:#ffffff;stroke-linecap:round;"/>
     </g>
     <g id="text_22">
      <!-- 0.0 -->
      <defs>
       <path d="M 10.6875 12.40625 
L 21 12.40625 
L 21 0 
L 10.6875 0 
z
" id="DejaVuSans-46"/>
      </defs>
      <g style="fill:#262626;" transform="translate(26.685 576.176016)scale(0.11 -0.11)">
       <use xlink:href="#DejaVuSans-48"/>
       <use x="63.623047" xlink:href="#DejaVuSans-46"/>
       <use x="95.410156" xlink:href="#DejaVuSans-48"/>
      </g>
     </g>
    </g>
    <g id="ytick_2">
     <g id="line2d_22">
      <path clip-path="url(#p4d0e4ac643)" d="M 53.678438 484.190291 
L 1169.678437 484.190291 
" style="fill:none;stroke:#ffffff;stroke-linecap:round;"/>
     </g>
     <g id="text_23">
      <!-- 0.2 -->
      <g style="fill:#262626;" transform="translate(26.685 488.369432)scale(0.11 -0.11)">
       <use xlink:href="#DejaVuSans-48"/>
       <use x="63.623047" xlink:href="#DejaVuSans-46"/>
       <use x="95.410156" xlink:href="#DejaVuSans-50"/>
      </g>
     </g>
    </g>
    <g id="ytick_3">
     <g id="line2d_23">
      <path clip-path="url(#p4d0e4ac643)" d="M 53.678438 396.383708 
L 1169.678437 396.383708 
" style="fill:none;stroke:#ffffff;stroke-linecap:round;"/>
     </g>
     <g id="text_24">
      <!-- 0.4 -->
      <g style="fill:#262626;" transform="translate(26.685 400.562848)scale(0.11 -0.11)">
       <use xlink:href="#DejaVuSans-48"/>
       <use x="63.623047" xlink:href="#DejaVuSans-46"/>
       <use x="95.410156" xlink:href="#DejaVuSans-52"/>
      </g>
     </g>
    </g>
    <g id="ytick_4">
     <g id="line2d_24">
      <path clip-path="url(#p4d0e4ac643)" d="M 53.678438 308.577124 
L 1169.678437 308.577124 
" style="fill:none;stroke:#ffffff;stroke-linecap:round;"/>
     </g>
     <g id="text_25">
      <!-- 0.6 -->
      <g style="fill:#262626;" transform="translate(26.685 312.756265)scale(0.11 -0.11)">
       <use xlink:href="#DejaVuSans-48"/>
       <use x="63.623047" xlink:href="#DejaVuSans-46"/>
       <use x="95.410156" xlink:href="#DejaVuSans-54"/>
      </g>
     </g>
    </g>
    <g id="ytick_5">
     <g id="line2d_25">
      <path clip-path="url(#p4d0e4ac643)" d="M 53.678438 220.770541 
L 1169.678437 220.770541 
" style="fill:none;stroke:#ffffff;stroke-linecap:round;"/>
     </g>
     <g id="text_26">
      <!-- 0.8 -->
      <g style="fill:#262626;" transform="translate(26.685 224.949681)scale(0.11 -0.11)">
       <use xlink:href="#DejaVuSans-48"/>
       <use x="63.623047" xlink:href="#DejaVuSans-46"/>
       <use x="95.410156" xlink:href="#DejaVuSans-56"/>
      </g>
     </g>
    </g>
    <g id="ytick_6">
     <g id="line2d_26">
      <path clip-path="url(#p4d0e4ac643)" d="M 53.678438 132.963957 
L 1169.678437 132.963957 
" style="fill:none;stroke:#ffffff;stroke-linecap:round;"/>
     </g>
     <g id="text_27">
      <!-- 1.0 -->
      <g style="fill:#262626;" transform="translate(26.685 137.143098)scale(0.11 -0.11)">
       <use xlink:href="#DejaVuSans-49"/>
       <use x="63.623047" xlink:href="#DejaVuSans-46"/>
       <use x="95.410156" xlink:href="#DejaVuSans-48"/>
      </g>
     </g>
    </g>
    <g id="ytick_7">
     <g id="line2d_27">
      <path clip-path="url(#p4d0e4ac643)" d="M 53.678438 45.157374 
L 1169.678437 45.157374 
" style="fill:none;stroke:#ffffff;stroke-linecap:round;"/>
     </g>
     <g id="text_28">
      <!-- 1.2 -->
      <g style="fill:#262626;" transform="translate(26.685 49.336514)scale(0.11 -0.11)">
       <use xlink:href="#DejaVuSans-49"/>
       <use x="63.623047" xlink:href="#DejaVuSans-46"/>
       <use x="95.410156" xlink:href="#DejaVuSans-50"/>
      </g>
     </g>
    </g>
    <g id="text_29">
     <!-- Productie (MWh) -->
     <defs>
      <path d="M 19.671875 64.796875 
L 19.671875 37.40625 
L 32.078125 37.40625 
Q 38.96875 37.40625 42.71875 40.96875 
Q 46.484375 44.53125 46.484375 51.125 
Q 46.484375 57.671875 42.71875 61.234375 
Q 38.96875 64.796875 32.078125 64.796875 
z
M 9.8125 72.90625 
L 32.078125 72.90625 
Q 44.34375 72.90625 50.609375 67.359375 
Q 56.890625 61.8125 56.890625 51.125 
Q 56.890625 40.328125 50.609375 34.8125 
Q 44.34375 29.296875 32.078125 29.296875 
L 19.671875 29.296875 
L 19.671875 0 
L 9.8125 0 
z
" id="DejaVuSans-80"/>
      <path d="M 30.609375 48.390625 
Q 23.390625 48.390625 19.1875 42.75 
Q 14.984375 37.109375 14.984375 27.296875 
Q 14.984375 17.484375 19.15625 11.84375 
Q 23.34375 6.203125 30.609375 6.203125 
Q 37.796875 6.203125 41.984375 11.859375 
Q 46.1875 17.53125 46.1875 27.296875 
Q 46.1875 37.015625 41.984375 42.703125 
Q 37.796875 48.390625 30.609375 48.390625 
z
M 30.609375 56 
Q 42.328125 56 49.015625 48.375 
Q 55.71875 40.765625 55.71875 27.296875 
Q 55.71875 13.875 49.015625 6.21875 
Q 42.328125 -1.421875 30.609375 -1.421875 
Q 18.84375 -1.421875 12.171875 6.21875 
Q 5.515625 13.875 5.515625 27.296875 
Q 5.515625 40.765625 12.171875 48.375 
Q 18.84375 56 30.609375 56 
z
" id="DejaVuSans-111"/>
      <path d="M 45.40625 46.390625 
L 45.40625 75.984375 
L 54.390625 75.984375 
L 54.390625 0 
L 45.40625 0 
L 45.40625 8.203125 
Q 42.578125 3.328125 38.25 0.953125 
Q 33.9375 -1.421875 27.875 -1.421875 
Q 17.96875 -1.421875 11.734375 6.484375 
Q 5.515625 14.40625 5.515625 27.296875 
Q 5.515625 40.1875 11.734375 48.09375 
Q 17.96875 56 27.875 56 
Q 33.9375 56 38.25 53.625 
Q 42.578125 51.265625 45.40625 46.390625 
z
M 14.796875 27.296875 
Q 14.796875 17.390625 18.875 11.75 
Q 22.953125 6.109375 30.078125 6.109375 
Q 37.203125 6.109375 41.296875 11.75 
Q 45.40625 17.390625 45.40625 27.296875 
Q 45.40625 37.203125 41.296875 42.84375 
Q 37.203125 48.484375 30.078125 48.484375 
Q 22.953125 48.484375 18.875 42.84375 
Q 14.796875 37.203125 14.796875 27.296875 
z
" id="DejaVuSans-100"/>
      <path d="M 8.5 21.578125 
L 8.5 54.6875 
L 17.484375 54.6875 
L 17.484375 21.921875 
Q 17.484375 14.15625 20.5 10.265625 
Q 23.53125 6.390625 29.59375 6.390625 
Q 36.859375 6.390625 41.078125 11.03125 
Q 45.3125 15.671875 45.3125 23.6875 
L 45.3125 54.6875 
L 54.296875 54.6875 
L 54.296875 0 
L 45.3125 0 
L 45.3125 8.40625 
Q 42.046875 3.421875 37.71875 1 
Q 33.40625 -1.421875 27.6875 -1.421875 
Q 18.265625 -1.421875 13.375 4.4375 
Q 8.5 10.296875 8.5 21.578125 
z
M 31.109375 56 
z
" id="DejaVuSans-117"/>
      <path d="M 48.78125 52.59375 
L 48.78125 44.1875 
Q 44.96875 46.296875 41.140625 47.34375 
Q 37.3125 48.390625 33.40625 48.390625 
Q 24.65625 48.390625 19.8125 42.84375 
Q 14.984375 37.3125 14.984375 27.296875 
Q 14.984375 17.28125 19.8125 11.734375 
Q 24.65625 6.203125 33.40625 6.203125 
Q 37.3125 6.203125 41.140625 7.25 
Q 44.96875 8.296875 48.78125 10.40625 
L 48.78125 2.09375 
Q 45.015625 0.34375 40.984375 -0.53125 
Q 36.96875 -1.421875 32.421875 -1.421875 
Q 20.0625 -1.421875 12.78125 6.34375 
Q 5.515625 14.109375 5.515625 27.296875 
Q 5.515625 40.671875 12.859375 48.328125 
Q 20.21875 56 33.015625 56 
Q 37.15625 56 41.109375 55.140625 
Q 45.0625 54.296875 48.78125 52.59375 
z
" id="DejaVuSans-99"/>
      <path d="M 18.3125 70.21875 
L 18.3125 54.6875 
L 36.8125 54.6875 
L 36.8125 47.703125 
L 18.3125 47.703125 
L 18.3125 18.015625 
Q 18.3125 11.328125 20.140625 9.421875 
Q 21.96875 7.515625 27.59375 7.515625 
L 36.8125 7.515625 
L 36.8125 0 
L 27.59375 0 
Q 17.1875 0 13.234375 3.875 
Q 9.28125 7.765625 9.28125 18.015625 
L 9.28125 47.703125 
L 2.6875 47.703125 
L 2.6875 54.6875 
L 9.28125 54.6875 
L 9.28125 70.21875 
z
" id="DejaVuSans-116"/>
      <path d="M 9.421875 54.6875 
L 18.40625 54.6875 
L 18.40625 0 
L 9.421875 0 
z
M 9.421875 75.984375 
L 18.40625 75.984375 
L 18.40625 64.59375 
L 9.421875 64.59375 
z
" id="DejaVuSans-105"/>
      <path d="M 56.203125 29.59375 
L 56.203125 25.203125 
L 14.890625 25.203125 
Q 15.484375 15.921875 20.484375 11.0625 
Q 25.484375 6.203125 34.421875 6.203125 
Q 39.59375 6.203125 44.453125 7.46875 
Q 49.3125 8.734375 54.109375 11.28125 
L 54.109375 2.78125 
Q 49.265625 0.734375 44.1875 -0.34375 
Q 39.109375 -1.421875 33.890625 -1.421875 
Q 20.796875 -1.421875 13.15625 6.1875 
Q 5.515625 13.8125 5.515625 26.8125 
Q 5.515625 40.234375 12.765625 48.109375 
Q 20.015625 56 32.328125 56 
Q 43.359375 56 49.78125 48.890625 
Q 56.203125 41.796875 56.203125 29.59375 
z
M 47.21875 32.234375 
Q 47.125 39.59375 43.09375 43.984375 
Q 39.0625 48.390625 32.421875 48.390625 
Q 24.90625 48.390625 20.390625 44.140625 
Q 15.875 39.890625 15.1875 32.171875 
z
" id="DejaVuSans-101"/>
      <path id="DejaVuSans-32"/>
      <path d="M 31 75.875 
Q 24.46875 64.65625 21.28125 53.65625 
Q 18.109375 42.671875 18.109375 31.390625 
Q 18.109375 20.125 21.3125 9.0625 
Q 24.515625 -2 31 -13.1875 
L 23.1875 -13.1875 
Q 15.875 -1.703125 12.234375 9.375 
Q 8.59375 20.453125 8.59375 31.390625 
Q 8.59375 42.28125 12.203125 53.3125 
Q 15.828125 64.359375 23.1875 75.875 
z
" id="DejaVuSans-40"/>
      <path d="M 9.8125 72.90625 
L 24.515625 72.90625 
L 43.109375 23.296875 
L 61.8125 72.90625 
L 76.515625 72.90625 
L 76.515625 0 
L 66.890625 0 
L 66.890625 64.015625 
L 48.09375 14.015625 
L 38.1875 14.015625 
L 19.390625 64.015625 
L 19.390625 0 
L 9.8125 0 
z
" id="DejaVuSans-77"/>
      <path d="M 3.328125 72.90625 
L 13.28125 72.90625 
L 28.609375 11.28125 
L 43.890625 72.90625 
L 54.984375 72.90625 
L 70.3125 11.28125 
L 85.59375 72.90625 
L 95.609375 72.90625 
L 77.296875 0 
L 64.890625 0 
L 49.515625 63.28125 
L 33.984375 0 
L 21.578125 0 
z
" id="DejaVuSans-87"/>
      <path d="M 54.890625 33.015625 
L 54.890625 0 
L 45.90625 0 
L 45.90625 32.71875 
Q 45.90625 40.484375 42.875 44.328125 
Q 39.84375 48.1875 33.796875 48.1875 
Q 26.515625 48.1875 22.3125 43.546875 
Q 18.109375 38.921875 18.109375 30.90625 
L 18.109375 0 
L 9.078125 0 
L 9.078125 75.984375 
L 18.109375 75.984375 
L 18.109375 46.1875 
Q 21.34375 51.125 25.703125 53.5625 
Q 30.078125 56 35.796875 56 
Q 45.21875 56 50.046875 50.171875 
Q 54.890625 44.34375 54.890625 33.015625 
z
" id="DejaVuSans-104"/>
      <path d="M 8.015625 75.875 
L 15.828125 75.875 
Q 23.140625 64.359375 26.78125 53.3125 
Q 30.421875 42.28125 30.421875 31.390625 
Q 30.421875 20.453125 26.78125 9.375 
Q 23.140625 -1.703125 15.828125 -13.1875 
L 8.015625 -13.1875 
Q 14.5 -2 17.703125 9.0625 
Q 20.90625 20.125 20.90625 31.390625 
Q 20.90625 42.671875 17.703125 53.65625 
Q 14.5 64.65625 8.015625 75.875 
z
" id="DejaVuSans-41"/>
     </defs>
     <g style="fill:#262626;" transform="translate(19.3575 366.696875)rotate(-90)scale(0.16 -0.16)">
      <use xlink:href="#DejaVuSans-80"/>
      <use x="60.287109" xlink:href="#DejaVuSans-114"/>
      <use x="101.369141" xlink:href="#DejaVuSans-111"/>
      <use x="162.550781" xlink:href="#DejaVuSans-100"/>
      <use x="226.027344" xlink:href="#DejaVuSans-117"/>
      <use x="289.40625" xlink:href="#DejaVuSans-99"/>
      <use x="344.386719" xlink:href="#DejaVuSans-116"/>
      <use x="383.595703" xlink:href="#DejaVuSans-105"/>
      <use x="411.378906" xlink:href="#DejaVuSans-101"/>
      <use x="472.902344" xlink:href="#DejaVuSans-32"/>
      <use x="504.689453" xlink:href="#DejaVuSans-40"/>
      <use x="543.703125" xlink:href="#DejaVuSans-77"/>
      <use x="629.982422" xlink:href="#DejaVuSans-87"/>
      <use x="728.859375" xlink:href="#DejaVuSans-104"/>
      <use x="792.238281" xlink:href="#DejaVuSans-41"/>
     </g>
    </g>
    <g id="text_30">
     <!-- 1e8 -->
     <g style="fill:#262626;" transform="translate(53.678438 25.396875)scale(0.11 -0.11)">
      <use xlink:href="#DejaVuSans-49"/>
      <use x="63.623047" xlink:href="#DejaVuSans-101"/>
      <use x="125.146484" xlink:href="#DejaVuSans-56"/>
     </g>
    </g>
   </g>
   <g id="patch_3">
    <path clip-path="url(#p4d0e4ac643)" d="M 67.628438 571.996875 
L 95.528438 571.996875 
L 95.528438 549.139109 
L 67.628438 549.139109 
z
" style="fill:#4c72b0;stroke:#ffffff;stroke-linejoin:miter;"/>
   </g>
   <g id="patch_4">
    <path clip-path="url(#p4d0e4ac643)" d="M 123.428438 571.996875 
L 151.328438 571.996875 
L 151.328438 548.160803 
L 123.428438 548.160803 
z
" style="fill:#4c72b0;stroke:#ffffff;stroke-linejoin:miter;"/>
   </g>
   <g id="patch_5">
    <path clip-path="url(#p4d0e4ac643)" d="M 179.228438 571.996875 
L 207.128438 571.996875 
L 207.128438 547.740236 
L 179.228438 547.740236 
z
" style="fill:#4c72b0;stroke:#ffffff;stroke-linejoin:miter;"/>
   </g>
   <g id="patch_6">
    <path clip-path="url(#p4d0e4ac643)" d="M 235.028438 571.996875 
L 262.928438 571.996875 
L 262.928438 549.096681 
L 235.028438 549.096681 
z
" style="fill:#4c72b0;stroke:#ffffff;stroke-linejoin:miter;"/>
   </g>
   <g id="patch_7">
    <path clip-path="url(#p4d0e4ac643)" d="M 290.828438 571.996875 
L 318.728438 571.996875 
L 318.728438 549.334878 
L 290.828438 549.334878 
z
" style="fill:#4c72b0;stroke:#ffffff;stroke-linejoin:miter;"/>
   </g>
   <g id="patch_8">
    <path clip-path="url(#p4d0e4ac643)" d="M 346.628438 571.996875 
L 374.528437 571.996875 
L 374.528437 549.406994 
L 346.628438 549.406994 
z
" style="fill:#4c72b0;stroke:#ffffff;stroke-linejoin:miter;"/>
   </g>
   <g id="patch_9">
    <path clip-path="url(#p4d0e4ac643)" d="M 402.428438 571.996875 
L 430.328438 571.996875 
L 430.328438 550.306006 
L 402.428438 550.306006 
z
" style="fill:#4c72b0;stroke:#ffffff;stroke-linejoin:miter;"/>
   </g>
   <g id="patch_10">
    <path clip-path="url(#p4d0e4ac643)" d="M 458.228438 571.996875 
L 486.128438 571.996875 
L 486.128438 548.736569 
L 458.228438 548.736569 
z
" style="fill:#4c72b0;stroke:#ffffff;stroke-linejoin:miter;"/>
   </g>
   <g id="patch_11">
    <path clip-path="url(#p4d0e4ac643)" d="M 514.028438 571.996875 
L 541.928438 571.996875 
L 541.928438 544.516764 
L 514.028438 544.516764 
z
" style="fill:#4c72b0;stroke:#ffffff;stroke-linejoin:miter;"/>
   </g>
   <g id="patch_12">
    <path clip-path="url(#p4d0e4ac643)" d="M 569.828438 571.996875 
L 597.728438 571.996875 
L 597.728438 530.39401 
L 569.828438 530.39401 
z
" style="fill:#4c72b0;stroke:#ffffff;stroke-linejoin:miter;"/>
   </g>
   <g id="patch_13">
    <path clip-path="url(#p4d0e4ac643)" d="M 625.628438 571.996875 
L 653.528438 571.996875 
L 653.528438 514.923728 
L 625.628438 514.923728 
z
" style="fill:#4c72b0;stroke:#ffffff;stroke-linejoin:miter;"/>
   </g>
   <g id="patch_14">
    <path clip-path="url(#p4d0e4ac643)" d="M 681.428438 571.996875 
L 709.328438 571.996875 
L 709.328438 511.767306 
L 681.428438 511.767306 
z
" style="fill:#4c72b0;stroke:#ffffff;stroke-linejoin:miter;"/>
   </g>
   <g id="patch_15">
    <path clip-path="url(#p4d0e4ac643)" d="M 737.228438 571.996875 
L 765.128438 571.996875 
L 765.128438 510.242597 
L 737.228438 510.242597 
z
" style="fill:#4c72b0;stroke:#ffffff;stroke-linejoin:miter;"/>
   </g>
   <g id="patch_16">
    <path clip-path="url(#p4d0e4ac643)" d="M 793.028438 571.996875 
L 820.928438 571.996875 
L 820.928438 512.396075 
L 793.028438 512.396075 
z
" style="fill:#4c72b0;stroke:#ffffff;stroke-linejoin:miter;"/>
   </g>
   <g id="patch_17">
    <path clip-path="url(#p4d0e4ac643)" d="M 848.828438 571.996875 
L 876.728438 571.996875 
L 876.728438 516.428303 
L 848.828438 516.428303 
z
" style="fill:#4c72b0;stroke:#ffffff;stroke-linejoin:miter;"/>
   </g>
   <g id="patch_18">
    <path clip-path="url(#p4d0e4ac643)" d="M 904.628438 571.996875 
L 932.528438 571.996875 
L 932.528438 518.022897 
L 904.628438 518.022897 
z
" style="fill:#4c72b0;stroke:#ffffff;stroke-linejoin:miter;"/>
   </g>
   <g id="patch_19">
    <path clip-path="url(#p4d0e4ac643)" d="M 960.428438 571.996875 
L 988.328438 571.996875 
L 988.328438 522.237227 
L 960.428438 522.237227 
z
" style="fill:#4c72b0;stroke:#ffffff;stroke-linejoin:miter;"/>
   </g>
   <g id="patch_20">
    <path clip-path="url(#p4d0e4ac643)" d="M 1016.228438 571.996875 
L 1044.128438 571.996875 
L 1044.128438 520.932381 
L 1016.228438 520.932381 
z
" style="fill:#4c72b0;stroke:#ffffff;stroke-linejoin:miter;"/>
   </g>
   <g id="patch_21">
    <path clip-path="url(#p4d0e4ac643)" d="M 1072.028438 571.996875 
L 1099.928438 571.996875 
L 1099.928438 523.975661 
L 1072.028438 523.975661 
z
" style="fill:#4c72b0;stroke:#ffffff;stroke-linejoin:miter;"/>
   </g>
   <g id="patch_22">
    <path clip-path="url(#p4d0e4ac643)" d="M 1127.828438 571.996875 
L 1155.728438 571.996875 
L 1155.728438 523.529564 
L 1127.828438 523.529564 
z
" style="fill:#4c72b0;stroke:#ffffff;stroke-linejoin:miter;"/>
   </g>
   <g id="patch_23">
    <path clip-path="url(#p4d0e4ac643)" d="M 67.628438 549.139109 
L 95.528438 549.139109 
L 95.528438 368.982272 
L 67.628438 368.982272 
z
" style="fill:#dd8452;stroke:#ffffff;stroke-linejoin:miter;"/>
   </g>
   <g id="patch_24">
    <path clip-path="url(#p4d0e4ac643)" d="M 123.428438 548.160803 
L 151.328438 548.160803 
L 151.328438 402.031493 
L 123.428438 402.031493 
z
" style="fill:#dd8452;stroke:#ffffff;stroke-linejoin:miter;"/>
   </g>
   <g id="patch_25">
    <path clip-path="url(#p4d0e4ac643)" d="M 179.228438 547.740236 
L 207.128438 547.740236 
L 207.128438 396.056874 
L 179.228438 396.056874 
z
" style="fill:#dd8452;stroke:#ffffff;stroke-linejoin:miter;"/>
   </g>
   <g id="patch_26">
    <path clip-path="url(#p4d0e4ac643)" d="M 235.028438 549.096681 
L 262.928438 549.096681 
L 262.928438 367.444893 
L 235.028438 367.444893 
z
" style="fill:#dd8452;stroke:#ffffff;stroke-linejoin:miter;"/>
   </g>
   <g id="patch_27">
    <path clip-path="url(#p4d0e4ac643)" d="M 290.828438 549.334878 
L 318.728438 549.334878 
L 318.728438 364.57839 
L 290.828438 364.57839 
z
" style="fill:#dd8452;stroke:#ffffff;stroke-linejoin:miter;"/>
   </g>
   <g id="patch_28">
    <path clip-path="url(#p4d0e4ac643)" d="M 346.628438 549.406994 
L 374.528437 549.406994 
L 374.528437 354.26537 
L 346.628438 354.26537 
z
" style="fill:#dd8452;stroke:#ffffff;stroke-linejoin:miter;"/>
   </g>
   <g id="patch_29">
    <path clip-path="url(#p4d0e4ac643)" d="M 402.428438 550.306006 
L 430.328438 550.306006 
L 430.328438 359.088612 
L 402.428438 359.088612 
z
" style="fill:#dd8452;stroke:#ffffff;stroke-linejoin:miter;"/>
   </g>
   <g id="patch_30">
    <path clip-path="url(#p4d0e4ac643)" d="M 458.228438 548.736569 
L 486.128438 548.736569 
L 486.128438 371.215834 
L 458.228438 371.215834 
z
" style="fill:#dd8452;stroke:#ffffff;stroke-linejoin:miter;"/>
   </g>
   <g id="patch_31">
    <path clip-path="url(#p4d0e4ac643)" d="M 514.028438 544.516764 
L 541.928438 544.516764 
L 541.928438 373.094017 
L 514.028438 373.094017 
z
" style="fill:#dd8452;stroke:#ffffff;stroke-linejoin:miter;"/>
   </g>
   <g id="patch_32">
    <path clip-path="url(#p4d0e4ac643)" d="M 569.828438 530.39401 
L 597.728438 530.39401 
L 597.728438 347.803385 
L 569.828438 347.803385 
z
" style="fill:#dd8452;stroke:#ffffff;stroke-linejoin:miter;"/>
   </g>
   <g id="patch_33">
    <path clip-path="url(#p4d0e4ac643)" d="M 625.628438 514.923728 
L 653.528438 514.923728 
L 653.528438 338.870396 
L 625.628438 338.870396 
z
" style="fill:#dd8452;stroke:#ffffff;stroke-linejoin:miter;"/>
   </g>
   <g id="patch_34">
    <path clip-path="url(#p4d0e4ac643)" d="M 681.428438 511.767306 
L 709.328438 511.767306 
L 709.328438 326.416546 
L 681.428438 326.416546 
z
" style="fill:#dd8452;stroke:#ffffff;stroke-linejoin:miter;"/>
   </g>
   <g id="patch_35">
    <path clip-path="url(#p4d0e4ac643)" d="M 737.228438 510.242597 
L 765.128438 510.242597 
L 765.128438 346.295751 
L 737.228438 346.295751 
z
" style="fill:#dd8452;stroke:#ffffff;stroke-linejoin:miter;"/>
   </g>
   <g id="patch_36">
    <path clip-path="url(#p4d0e4ac643)" d="M 793.028438 512.396075 
L 820.928438 512.396075 
L 820.928438 371.411472 
L 793.028438 371.411472 
z
" style="fill:#dd8452;stroke:#ffffff;stroke-linejoin:miter;"/>
   </g>
   <g id="patch_37">
    <path clip-path="url(#p4d0e4ac643)" d="M 848.828438 516.428303 
L 876.728438 516.428303 
L 876.728438 361.43429 
L 848.828438 361.43429 
z
" style="fill:#dd8452;stroke:#ffffff;stroke-linejoin:miter;"/>
   </g>
   <g id="patch_38">
    <path clip-path="url(#p4d0e4ac643)" d="M 904.628438 518.022897 
L 932.528438 518.022897 
L 932.528438 366.178814 
L 904.628438 366.178814 
z
" style="fill:#dd8452;stroke:#ffffff;stroke-linejoin:miter;"/>
   </g>
   <g id="patch_39">
    <path clip-path="url(#p4d0e4ac643)" d="M 960.428438 522.237227 
L 988.328438 522.237227 
L 988.328438 355.010365 
L 960.428438 355.010365 
z
" style="fill:#dd8452;stroke:#ffffff;stroke-linejoin:miter;"/>
   </g>
   <g id="patch_40">
    <path clip-path="url(#p4d0e4ac643)" d="M 1016.228438 520.932381 
L 1044.128438 520.932381 
L 1044.128438 309.660175 
L 1016.228438 309.660175 
z
" style="fill:#dd8452;stroke:#ffffff;stroke-linejoin:miter;"/>
   </g>
   <g id="patch_41">
    <path clip-path="url(#p4d0e4ac643)" d="M 1072.028438 523.975661 
L 1099.928438 523.975661 
L 1099.928438 325.92436 
L 1072.028438 325.92436 
z
" style="fill:#dd8452;stroke:#ffffff;stroke-linejoin:miter;"/>
   </g>
   <g id="patch_42">
    <path clip-path="url(#p4d0e4ac643)" d="M 1127.828438 523.529564 
L 1155.728438 523.529564 
L 1155.728438 347.037137 
L 1127.828438 347.037137 
z
" style="fill:#dd8452;stroke:#ffffff;stroke-linejoin:miter;"/>
   </g>
   <g id="patch_43">
    <path clip-path="url(#p4d0e4ac643)" d="M 67.628438 368.982272 
L 95.528438 368.982272 
L 95.528438 218.404755 
L 67.628438 218.404755 
z
" style="fill:#55a868;stroke:#ffffff;stroke-linejoin:miter;"/>
   </g>
   <g id="patch_44">
    <path clip-path="url(#p4d0e4ac643)" d="M 123.428438 402.031493 
L 151.328438 402.031493 
L 151.328438 237.504539 
L 123.428438 237.504539 
z
" style="fill:#55a868;stroke:#ffffff;stroke-linejoin:miter;"/>
   </g>
   <g id="patch_45">
    <path clip-path="url(#p4d0e4ac643)" d="M 179.228438 396.056874 
L 207.128438 396.056874 
L 207.128438 227.390218 
L 179.228438 227.390218 
z
" style="fill:#55a868;stroke:#ffffff;stroke-linejoin:miter;"/>
   </g>
   <g id="patch_46">
    <path clip-path="url(#p4d0e4ac643)" d="M 235.028438 367.444893 
L 262.928438 367.444893 
L 262.928438 208.999432 
L 235.028438 208.999432 
z
" style="fill:#55a868;stroke:#ffffff;stroke-linejoin:miter;"/>
   </g>
   <g id="patch_47">
    <path clip-path="url(#p4d0e4ac643)" d="M 290.828438 364.57839 
L 318.728438 364.57839 
L 318.728438 203.393697 
L 290.828438 203.393697 
z
" style="fill:#55a868;stroke:#ffffff;stroke-linejoin:miter;"/>
   </g>
   <g id="patch_48">
    <path clip-path="url(#p4d0e4ac643)" d="M 346.628438 354.26537 
L 374.528437 354.26537 
L 374.528437 192.985223 
L 346.628438 192.985223 
z
" style="fill:#55a868;stroke:#ffffff;stroke-linejoin:miter;"/>
   </g>
   <g id="patch_49">
    <path clip-path="url(#p4d0e4ac643)" d="M 402.428438 359.088612 
L 430.328438 359.088612 
L 430.328438 179.568302 
L 402.428438 179.568302 
z
" style="fill:#55a868;stroke:#ffffff;stroke-linejoin:miter;"/>
   </g>
   <g id="patch_50">
    <path clip-path="url(#p4d0e4ac643)" d="M 458.228438 371.215834 
L 486.128438 371.215834 
L 486.128438 186.882147 
L 458.228438 186.882147 
z
" style="fill:#55a868;stroke:#ffffff;stroke-linejoin:miter;"/>
   </g>
   <g id="patch_51">
    <path clip-path="url(#p4d0e4ac643)" d="M 514.028438 373.094017 
L 541.928438 373.094017 
L 541.928438 194.074788 
L 514.028438 194.074788 
z
" style="fill:#55a868;stroke:#ffffff;stroke-linejoin:miter;"/>
   </g>
   <g id="patch_52">
    <path clip-path="url(#p4d0e4ac643)" d="M 569.828438 347.803385 
L 597.728438 347.803385 
L 597.728438 168.603969 
L 569.828438 168.603969 
z
" style="fill:#55a868;stroke:#ffffff;stroke-linejoin:miter;"/>
   </g>
   <g id="patch_53">
    <path clip-path="url(#p4d0e4ac643)" d="M 625.628438 338.870396 
L 653.528438 338.870396 
L 653.528438 161.094091 
L 625.628438 161.094091 
z
" style="fill:#55a868;stroke:#ffffff;stroke-linejoin:miter;"/>
   </g>
   <g id="patch_54">
    <path clip-path="url(#p4d0e4ac643)" d="M 681.428438 326.416546 
L 709.328438 326.416546 
L 709.328438 137.824372 
L 681.428438 137.824372 
z
" style="fill:#55a868;stroke:#ffffff;stroke-linejoin:miter;"/>
   </g>
   <g id="patch_55">
    <path clip-path="url(#p4d0e4ac643)" d="M 737.228438 346.295751 
L 765.128438 346.295751 
L 765.128438 114.889701 
L 737.228438 114.889701 
z
" style="fill:#55a868;stroke:#ffffff;stroke-linejoin:miter;"/>
   </g>
   <g id="patch_56">
    <path clip-path="url(#p4d0e4ac643)" d="M 793.028438 371.411472 
L 820.928438 371.411472 
L 820.928438 142.588327 
L 793.028438 142.588327 
z
" style="fill:#55a868;stroke:#ffffff;stroke-linejoin:miter;"/>
   </g>
   <g id="patch_57">
    <path clip-path="url(#p4d0e4ac643)" d="M 848.828438 361.43429 
L 876.728438 361.43429 
L 876.728438 186.807512 
L 848.828438 186.807512 
z
" style="fill:#55a868;stroke:#ffffff;stroke-linejoin:miter;"/>
   </g>
   <g id="patch_58">
    <path clip-path="url(#p4d0e4ac643)" d="M 904.628438 366.178814 
L 932.528438 366.178814 
L 932.528438 192.076517 
L 904.628438 192.076517 
z
" style="fill:#55a868;stroke:#ffffff;stroke-linejoin:miter;"/>
   </g>
   <g id="patch_59">
    <path clip-path="url(#p4d0e4ac643)" d="M 960.428438 355.010365 
L 988.328438 355.010365 
L 988.328438 186.528805 
L 960.428438 186.528805 
z
" style="fill:#55a868;stroke:#ffffff;stroke-linejoin:miter;"/>
   </g>
   <g id="patch_60">
    <path clip-path="url(#p4d0e4ac643)" d="M 1016.228438 309.660175 
L 1044.128438 309.660175 
L 1044.128438 167.083743 
L 1016.228438 167.083743 
z
" style="fill:#55a868;stroke:#ffffff;stroke-linejoin:miter;"/>
   </g>
   <g id="patch_61">
    <path clip-path="url(#p4d0e4ac643)" d="M 1072.028438 325.92436 
L 1099.928438 325.92436 
L 1099.928438 150.516476 
L 1072.028438 150.516476 
z
" style="fill:#55a868;stroke:#ffffff;stroke-linejoin:miter;"/>
   </g>
   <g id="patch_62">
    <path clip-path="url(#p4d0e4ac643)" d="M 1127.828438 347.037137 
L 1155.728438 347.037137 
L 1155.728438 147.451819 
L 1127.828438 147.451819 
z
" style="fill:#55a868;stroke:#ffffff;stroke-linejoin:miter;"/>
   </g>
   <g id="patch_63">
    <path clip-path="url(#p4d0e4ac643)" d="M 67.628438 218.404755 
L 95.528438 218.404755 
L 95.528438 189.283359 
L 67.628438 189.283359 
z
" style="fill:#c44e52;stroke:#ffffff;stroke-linejoin:miter;"/>
   </g>
   <g id="patch_64">
    <path clip-path="url(#p4d0e4ac643)" d="M 123.428438 237.504539 
L 151.328438 237.504539 
L 151.328438 208.364151 
L 123.428438 208.364151 
z
" style="fill:#c44e52;stroke:#ffffff;stroke-linejoin:miter;"/>
   </g>
   <g id="patch_65">
    <path clip-path="url(#p4d0e4ac643)" d="M 179.228438 227.390218 
L 207.128438 227.390218 
L 207.128438 198.700527 
L 179.228438 198.700527 
z
" style="fill:#c44e52;stroke:#ffffff;stroke-linejoin:miter;"/>
   </g>
   <g id="patch_66">
    <path clip-path="url(#p4d0e4ac643)" d="M 235.028438 208.999432 
L 262.928438 208.999432 
L 262.928438 181.645885 
L 235.028438 181.645885 
z
" style="fill:#c44e52;stroke:#ffffff;stroke-linejoin:miter;"/>
   </g>
   <g id="patch_67">
    <path clip-path="url(#p4d0e4ac643)" d="M 290.828438 203.393697 
L 318.728438 203.393697 
L 318.728438 177.490144 
L 290.828438 177.490144 
z
" style="fill:#c44e52;stroke:#ffffff;stroke-linejoin:miter;"/>
   </g>
   <g id="patch_68">
    <path clip-path="url(#p4d0e4ac643)" d="M 346.628438 192.985223 
L 374.528437 192.985223 
L 374.528437 166.043213 
L 346.628438 166.043213 
z
" style="fill:#c44e52;stroke:#ffffff;stroke-linejoin:miter;"/>
   </g>
   <g id="patch_69">
    <path clip-path="url(#p4d0e4ac643)" d="M 402.428438 179.568302 
L 430.328438 179.568302 
L 430.328438 150.301174 
L 402.428438 150.301174 
z
" style="fill:#c44e52;stroke:#ffffff;stroke-linejoin:miter;"/>
   </g>
   <g id="patch_70">
    <path clip-path="url(#p4d0e4ac643)" d="M 458.228438 186.882147 
L 486.128438 186.882147 
L 486.128438 158.143742 
L 458.228438 158.143742 
z
" style="fill:#c44e52;stroke:#ffffff;stroke-linejoin:miter;"/>
   </g>
   <g id="patch_71">
    <path clip-path="url(#p4d0e4ac643)" d="M 514.028438 194.074788 
L 541.928438 194.074788 
L 541.928438 166.805154 
L 514.028438 166.805154 
z
" style="fill:#c44e52;stroke:#ffffff;stroke-linejoin:miter;"/>
   </g>
   <g id="patch_72">
    <path clip-path="url(#p4d0e4ac643)" d="M 569.828438 168.603969 
L 597.728438 168.603969 
L 597.728438 143.314263 
L 569.828438 143.314263 
z
" style="fill:#c44e52;stroke:#ffffff;stroke-linejoin:miter;"/>
   </g>
   <g id="patch_73">
    <path clip-path="url(#p4d0e4ac643)" d="M 625.628438 161.094091 
L 653.528438 161.094091 
L 653.528438 135.428547 
L 625.628438 135.428547 
z
" style="fill:#c44e52;stroke:#ffffff;stroke-linejoin:miter;"/>
   </g>
   <g id="patch_74">
    <path clip-path="url(#p4d0e4ac643)" d="M 681.428438 137.824372 
L 709.328438 137.824372 
L 709.328438 113.947005 
L 681.428438 113.947005 
z
" style="fill:#c44e52;stroke:#ffffff;stroke-linejoin:miter;"/>
   </g>
   <g id="patch_75">
    <path clip-path="url(#p4d0e4ac643)" d="M 737.228438 114.889701 
L 765.128438 114.889701 
L 765.128438 89.957184 
L 737.228438 89.957184 
z
" style="fill:#c44e52;stroke:#ffffff;stroke-linejoin:miter;"/>
   </g>
   <g id="patch_76">
    <path clip-path="url(#p4d0e4ac643)" d="M 793.028438 142.588327 
L 820.928438 142.588327 
L 820.928438 118.009166 
L 793.028438 118.009166 
z
" style="fill:#c44e52;stroke:#ffffff;stroke-linejoin:miter;"/>
   </g>
   <g id="patch_77">
    <path clip-path="url(#p4d0e4ac643)" d="M 848.828438 186.807512 
L 876.728438 186.807512 
L 876.728438 163.231268 
L 848.828438 163.231268 
z
" style="fill:#c44e52;stroke:#ffffff;stroke-linejoin:miter;"/>
   </g>
   <g id="patch_78">
    <path clip-path="url(#p4d0e4ac643)" d="M 904.628438 192.076517 
L 932.528438 192.076517 
L 932.528438 170.082886 
L 904.628438 170.082886 
z
" style="fill:#c44e52;stroke:#ffffff;stroke-linejoin:miter;"/>
   </g>
   <g id="patch_79">
    <path clip-path="url(#p4d0e4ac643)" d="M 960.428438 186.528805 
L 988.328438 186.528805 
L 988.328438 166.088407 
L 960.428438 166.088407 
z
" style="fill:#c44e52;stroke:#ffffff;stroke-linejoin:miter;"/>
   </g>
   <g id="patch_80">
    <path clip-path="url(#p4d0e4ac643)" d="M 1016.228438 167.083743 
L 1044.128438 167.083743 
L 1044.128438 145.847712 
L 1016.228438 145.847712 
z
" style="fill:#c44e52;stroke:#ffffff;stroke-linejoin:miter;"/>
   </g>
   <g id="patch_81">
    <path clip-path="url(#p4d0e4ac643)" d="M 1072.028438 150.516476 
L 1099.928438 150.516476 
L 1099.928438 127.523268 
L 1072.028438 127.523268 
z
" style="fill:#c44e52;stroke:#ffffff;stroke-linejoin:miter;"/>
   </g>
   <g id="patch_82">
    <path clip-path="url(#p4d0e4ac643)" d="M 1127.828438 147.451819 
L 1155.728438 147.451819 
L 1155.728438 129.291719 
L 1127.828438 129.291719 
z
" style="fill:#c44e52;stroke:#ffffff;stroke-linejoin:miter;"/>
   </g>
   <g id="patch_83">
    <path clip-path="url(#p4d0e4ac643)" d="M 67.628438 189.283359 
L 95.528438 189.283359 
L 95.528438 172.539785 
L 67.628438 172.539785 
z
" style="fill:#8172b3;stroke:#ffffff;stroke-linejoin:miter;"/>
   </g>
   <g id="patch_84">
    <path clip-path="url(#p4d0e4ac643)" d="M 123.428438 208.364151 
L 151.328438 208.364151 
L 151.328438 191.54012 
L 123.428438 191.54012 
z
" style="fill:#8172b3;stroke:#ffffff;stroke-linejoin:miter;"/>
   </g>
   <g id="patch_85">
    <path clip-path="url(#p4d0e4ac643)" d="M 179.228438 198.700527 
L 207.128438 198.700527 
L 207.128438 181.462901 
L 179.228438 181.462901 
z
" style="fill:#8172b3;stroke:#ffffff;stroke-linejoin:miter;"/>
   </g>
   <g id="patch_86">
    <path clip-path="url(#p4d0e4ac643)" d="M 235.028438 181.645885 
L 262.928438 181.645885 
L 262.928438 164.189199 
L 235.028438 164.189199 
z
" style="fill:#8172b3;stroke:#ffffff;stroke-linejoin:miter;"/>
   </g>
   <g id="patch_87">
    <path clip-path="url(#p4d0e4ac643)" d="M 290.828438 177.490144 
L 318.728438 177.490144 
L 318.728438 160.303727 
L 290.828438 160.303727 
z
" style="fill:#8172b3;stroke:#ffffff;stroke-linejoin:miter;"/>
   </g>
   <g id="patch_88">
    <path clip-path="url(#p4d0e4ac643)" d="M 346.628438 166.043213 
L 374.528437 166.043213 
L 374.528437 148.402918 
L 346.628438 148.402918 
z
" style="fill:#8172b3;stroke:#ffffff;stroke-linejoin:miter;"/>
   </g>
   <g id="patch_89">
    <path clip-path="url(#p4d0e4ac643)" d="M 402.428438 150.301174 
L 430.328438 150.301174 
L 430.328438 133.521257 
L 402.428438 133.521257 
z
" style="fill:#8172b3;stroke:#ffffff;stroke-linejoin:miter;"/>
   </g>
   <g id="patch_90">
    <path clip-path="url(#p4d0e4ac643)" d="M 458.228438 158.143742 
L 486.128438 158.143742 
L 486.128438 140.593594 
L 458.228438 140.593594 
z
" style="fill:#8172b3;stroke:#ffffff;stroke-linejoin:miter;"/>
   </g>
   <g id="patch_91">
    <path clip-path="url(#p4d0e4ac643)" d="M 514.028438 166.805154 
L 541.928438 166.805154 
L 541.928438 151.573175 
L 514.028438 151.573175 
z
" style="fill:#8172b3;stroke:#ffffff;stroke-linejoin:miter;"/>
   </g>
   <g id="patch_92">
    <path clip-path="url(#p4d0e4ac643)" d="M 569.828438 143.314263 
L 597.728438 143.314263 
L 597.728438 124.873507 
L 569.828438 124.873507 
z
" style="fill:#8172b3;stroke:#ffffff;stroke-linejoin:miter;"/>
   </g>
   <g id="patch_93">
    <path clip-path="url(#p4d0e4ac643)" d="M 625.628438 135.428547 
L 653.528438 135.428547 
L 653.528438 117.126033 
L 625.628438 117.126033 
z
" style="fill:#8172b3;stroke:#ffffff;stroke-linejoin:miter;"/>
   </g>
   <g id="patch_94">
    <path clip-path="url(#p4d0e4ac643)" d="M 681.428438 113.947005 
L 709.328438 113.947005 
L 709.328438 95.295885 
L 681.428438 95.295885 
z
" style="fill:#8172b3;stroke:#ffffff;stroke-linejoin:miter;"/>
   </g>
   <g id="patch_95">
    <path clip-path="url(#p4d0e4ac643)" d="M 737.228438 89.957184 
L 765.128438 89.957184 
L 765.128438 72.531467 
L 737.228438 72.531467 
z
" style="fill:#8172b3;stroke:#ffffff;stroke-linejoin:miter;"/>
   </g>
   <g id="patch_96">
    <path clip-path="url(#p4d0e4ac643)" d="M 793.028438 118.009166 
L 820.928438 118.009166 
L 820.928438 99.8298 
L 793.028438 99.8298 
z
" style="fill:#8172b3;stroke:#ffffff;stroke-linejoin:miter;"/>
   </g>
   <g id="patch_97">
    <path clip-path="url(#p4d0e4ac643)" d="M 848.828438 163.231268 
L 876.728438 163.231268 
L 876.728438 146.044403 
L 848.828438 146.044403 
z
" style="fill:#8172b3;stroke:#ffffff;stroke-linejoin:miter;"/>
   </g>
   <g id="patch_98">
    <path clip-path="url(#p4d0e4ac643)" d="M 904.628438 170.082886 
L 932.528438 170.082886 
L 932.528438 157.391064 
L 904.628438 157.391064 
z
" style="fill:#8172b3;stroke:#ffffff;stroke-linejoin:miter;"/>
   </g>
   <g id="patch_99">
    <path clip-path="url(#p4d0e4ac643)" d="M 960.428438 166.088407 
L 988.328438 166.088407 
L 988.328438 148.126227 
L 960.428438 148.126227 
z
" style="fill:#8172b3;stroke:#ffffff;stroke-linejoin:miter;"/>
   </g>
   <g id="patch_100">
    <path clip-path="url(#p4d0e4ac643)" d="M 1016.228438 145.847712 
L 1044.128438 145.847712 
L 1044.128438 127.943769 
L 1016.228438 127.943769 
z
" style="fill:#8172b3;stroke:#ffffff;stroke-linejoin:miter;"/>
   </g>
   <g id="patch_101">
    <path clip-path="url(#p4d0e4ac643)" d="M 1072.028438 127.523268 
L 1099.928438 127.523268 
L 1099.928438 110.136344 
L 1072.028438 110.136344 
z
" style="fill:#8172b3;stroke:#ffffff;stroke-linejoin:miter;"/>
   </g>
   <g id="patch_102">
    <path clip-path="url(#p4d0e4ac643)" d="M 1127.828438 129.291719 
L 1155.728438 129.291719 
L 1155.728438 114.35372 
L 1127.828438 114.35372 
z
" style="fill:#8172b3;stroke:#ffffff;stroke-linejoin:miter;"/>
   </g>
   <g id="patch_103">
    <path clip-path="url(#p4d0e4ac643)" d="M 67.628438 172.539785 
L 95.528438 172.539785 
L 95.528438 172.046707 
L 67.628438 172.046707 
z
" style="fill:#937860;stroke:#ffffff;stroke-linejoin:miter;"/>
   </g>
   <g id="patch_104">
    <path clip-path="url(#p4d0e4ac643)" d="M 123.428438 191.54012 
L 151.328438 191.54012 
L 151.328438 191.143897 
L 123.428438 191.143897 
z
" style="fill:#937860;stroke:#ffffff;stroke-linejoin:miter;"/>
   </g>
   <g id="patch_105">
    <path clip-path="url(#p4d0e4ac643)" d="M 179.228438 181.462901 
L 207.128438 181.462901 
L 207.128438 180.837748 
L 179.228438 180.837748 
z
" style="fill:#937860;stroke:#ffffff;stroke-linejoin:miter;"/>
   </g>
   <g id="patch_106">
    <path clip-path="url(#p4d0e4ac643)" d="M 235.028438 164.189199 
L 262.928438 164.189199 
L 262.928438 163.674108 
L 235.028438 163.674108 
z
" style="fill:#937860;stroke:#ffffff;stroke-linejoin:miter;"/>
   </g>
   <g id="patch_107">
    <path clip-path="url(#p4d0e4ac643)" d="M 290.828438 160.303727 
L 318.728438 160.303727 
L 318.728438 159.822389 
L 290.828438 159.822389 
z
" style="fill:#937860;stroke:#ffffff;stroke-linejoin:miter;"/>
   </g>
   <g id="patch_108">
    <path clip-path="url(#p4d0e4ac643)" d="M 346.628438 148.402918 
L 374.528437 148.402918 
L 374.528437 148.086714 
L 346.628438 148.086714 
z
" style="fill:#937860;stroke:#ffffff;stroke-linejoin:miter;"/>
   </g>
   <g id="patch_109">
    <path clip-path="url(#p4d0e4ac643)" d="M 402.428438 133.521257 
L 430.328438 133.521257 
L 430.328438 133.100962 
L 402.428438 133.100962 
z
" style="fill:#937860;stroke:#ffffff;stroke-linejoin:miter;"/>
   </g>
   <g id="patch_110">
    <path clip-path="url(#p4d0e4ac643)" d="M 458.228438 140.593594 
L 486.128438 140.593594 
L 486.128438 140.207245 
L 458.228438 140.207245 
z
" style="fill:#937860;stroke:#ffffff;stroke-linejoin:miter;"/>
   </g>
   <g id="patch_111">
    <path clip-path="url(#p4d0e4ac643)" d="M 514.028438 151.573175 
L 541.928438 151.573175 
L 541.928438 151.111317 
L 514.028438 151.111317 
z
" style="fill:#937860;stroke:#ffffff;stroke-linejoin:miter;"/>
   </g>
   <g id="patch_112">
    <path clip-path="url(#p4d0e4ac643)" d="M 569.828438 124.873507 
L 597.728438 124.873507 
L 597.728438 124.403742 
L 569.828438 124.403742 
z
" style="fill:#937860;stroke:#ffffff;stroke-linejoin:miter;"/>
   </g>
   <g id="patch_113">
    <path clip-path="url(#p4d0e4ac643)" d="M 625.628438 117.126033 
L 653.528438 117.126033 
L 653.528438 116.67822 
L 625.628438 116.67822 
z
" style="fill:#937860;stroke:#ffffff;stroke-linejoin:miter;"/>
   </g>
   <g id="patch_114">
    <path clip-path="url(#p4d0e4ac643)" d="M 681.428438 95.295885 
L 709.328438 95.295885 
L 709.328438 94.865633 
L 681.428438 94.865633 
z
" style="fill:#937860;stroke:#ffffff;stroke-linejoin:miter;"/>
   </g>
   <g id="patch_115">
    <path clip-path="url(#p4d0e4ac643)" d="M 737.228438 72.531467 
L 765.128438 72.531467 
L 765.128438 72.074144 
L 737.228438 72.074144 
z
" style="fill:#937860;stroke:#ffffff;stroke-linejoin:miter;"/>
   </g>
   <g id="patch_116">
    <path clip-path="url(#p4d0e4ac643)" d="M 793.028438 99.8298 
L 820.928438 99.8298 
L 820.928438 99.579797 
L 793.028438 99.579797 
z
" style="fill:#937860;stroke:#ffffff;stroke-linejoin:miter;"/>
   </g>
   <g id="patch_117">
    <path clip-path="url(#p4d0e4ac643)" d="M 848.828438 146.044403 
L 876.728438 146.044403 
L 876.728438 145.586105 
L 848.828438 145.586105 
z
" style="fill:#937860;stroke:#ffffff;stroke-linejoin:miter;"/>
   </g>
   <g id="patch_118">
    <path clip-path="url(#p4d0e4ac643)" d="M 904.628438 157.391064 
L 932.528438 157.391064 
L 932.528438 156.889196 
L 904.628438 156.889196 
z
" style="fill:#937860;stroke:#ffffff;stroke-linejoin:miter;"/>
   </g>
   <g id="patch_119">
    <path clip-path="url(#p4d0e4ac643)" d="M 960.428438 148.126227 
L 988.328438 148.126227 
L 988.328438 147.63451 
L 960.428438 147.63451 
z
" style="fill:#937860;stroke:#ffffff;stroke-linejoin:miter;"/>
   </g>
   <g id="patch_120">
    <path clip-path="url(#p4d0e4ac643)" d="M 1016.228438 127.943769 
L 1044.128438 127.943769 
L 1044.128438 127.535469 
L 1016.228438 127.535469 
z
" style="fill:#937860;stroke:#ffffff;stroke-linejoin:miter;"/>
   </g>
   <g id="patch_121">
    <path clip-path="url(#p4d0e4ac643)" d="M 1072.028438 110.136344 
L 1099.928438 110.136344 
L 1099.928438 109.696964 
L 1072.028438 109.696964 
z
" style="fill:#937860;stroke:#ffffff;stroke-linejoin:miter;"/>
   </g>
   <g id="patch_122">
    <path clip-path="url(#p4d0e4ac643)" d="M 1127.828438 114.35372 
L 1155.728438 114.35372 
L 1155.728438 114.086977 
L 1127.828438 114.086977 
z
" style="fill:#937860;stroke:#ffffff;stroke-linejoin:miter;"/>
   </g>
   <g id="patch_123">
    <path clip-path="url(#p4d0e4ac643)" d="M 67.628438 172.046707 
L 95.528438 172.046707 
L 95.528438 169.236896 
L 67.628438 169.236896 
z
" style="fill:#da8bc3;stroke:#ffffff;stroke-linejoin:miter;"/>
   </g>
   <g id="patch_124">
    <path clip-path="url(#p4d0e4ac643)" d="M 123.428438 191.143897 
L 151.328438 191.143897 
L 151.328438 188.312135 
L 123.428438 188.312135 
z
" style="fill:#da8bc3;stroke:#ffffff;stroke-linejoin:miter;"/>
   </g>
   <g id="patch_125">
    <path clip-path="url(#p4d0e4ac643)" d="M 179.228438 180.837748 
L 207.128438 180.837748 
L 207.128438 177.198166 
L 179.228438 177.198166 
z
" style="fill:#da8bc3;stroke:#ffffff;stroke-linejoin:miter;"/>
   </g>
   <g id="patch_126">
    <path clip-path="url(#p4d0e4ac643)" d="M 235.028438 163.674108 
L 262.928438 163.674108 
L 262.928438 160.052086 
L 235.028438 160.052086 
z
" style="fill:#da8bc3;stroke:#ffffff;stroke-linejoin:miter;"/>
   </g>
   <g id="patch_127">
    <path clip-path="url(#p4d0e4ac643)" d="M 290.828438 159.822389 
L 318.728438 159.822389 
L 318.728438 155.669137 
L 290.828438 155.669137 
z
" style="fill:#da8bc3;stroke:#ffffff;stroke-linejoin:miter;"/>
   </g>
   <g id="patch_128">
    <path clip-path="url(#p4d0e4ac643)" d="M 346.628438 148.086714 
L 374.528437 148.086714 
L 374.528437 142.30026 
L 346.628438 142.30026 
z
" style="fill:#da8bc3;stroke:#ffffff;stroke-linejoin:miter;"/>
   </g>
   <g id="patch_129">
    <path clip-path="url(#p4d0e4ac643)" d="M 402.428438 133.100962 
L 430.328438 133.100962 
L 430.328438 124.904217 
L 402.428438 124.904217 
z
" style="fill:#da8bc3;stroke:#ffffff;stroke-linejoin:miter;"/>
   </g>
   <g id="patch_130">
    <path clip-path="url(#p4d0e4ac643)" d="M 458.228438 140.207245 
L 486.128438 140.207245 
L 486.128438 131.132435 
L 458.228438 131.132435 
z
" style="fill:#da8bc3;stroke:#ffffff;stroke-linejoin:miter;"/>
   </g>
   <g id="patch_131">
    <path clip-path="url(#p4d0e4ac643)" d="M 514.028438 151.111317 
L 541.928438 151.111317 
L 541.928438 139.108157 
L 514.028438 139.108157 
z
" style="fill:#da8bc3;stroke:#ffffff;stroke-linejoin:miter;"/>
   </g>
   <g id="patch_132">
    <path clip-path="url(#p4d0e4ac643)" d="M 569.828438 124.403742 
L 597.728438 124.403742 
L 597.728438 109.31418 
L 569.828438 109.31418 
z
" style="fill:#da8bc3;stroke:#ffffff;stroke-linejoin:miter;"/>
   </g>
   <g id="patch_133">
    <path clip-path="url(#p4d0e4ac643)" d="M 625.628438 116.67822 
L 653.528438 116.67822 
L 653.528438 97.975417 
L 625.628438 97.975417 
z
" style="fill:#da8bc3;stroke:#ffffff;stroke-linejoin:miter;"/>
   </g>
   <g id="patch_134">
    <path clip-path="url(#p4d0e4ac643)" d="M 681.428438 94.865633 
L 709.328438 94.865633 
L 709.328438 74.753535 
L 681.428438 74.753535 
z
" style="fill:#da8bc3;stroke:#ffffff;stroke-linejoin:miter;"/>
   </g>
   <g id="patch_135">
    <path clip-path="url(#p4d0e4ac643)" d="M 737.228438 72.074144 
L 765.128438 72.074144 
L 765.128438 54.543559 
L 737.228438 54.543559 
z
" style="fill:#da8bc3;stroke:#ffffff;stroke-linejoin:miter;"/>
   </g>
   <g id="patch_136">
    <path clip-path="url(#p4d0e4ac643)" d="M 793.028438 99.579797 
L 820.928438 99.579797 
L 820.928438 77.188368 
L 793.028438 77.188368 
z
" style="fill:#da8bc3;stroke:#ffffff;stroke-linejoin:miter;"/>
   </g>
   <g id="patch_137">
    <path clip-path="url(#p4d0e4ac643)" d="M 848.828438 145.586105 
L 876.728438 145.586105 
L 876.728438 123.714236 
L 848.828438 123.714236 
z
" style="fill:#da8bc3;stroke:#ffffff;stroke-linejoin:miter;"/>
   </g>
   <g id="patch_138">
    <path clip-path="url(#p4d0e4ac643)" d="M 904.628438 156.889196 
L 932.528438 156.889196 
L 932.528438 132.184164 
L 904.628438 132.184164 
z
" style="fill:#da8bc3;stroke:#ffffff;stroke-linejoin:miter;"/>
   </g>
   <g id="patch_139">
    <path clip-path="url(#p4d0e4ac643)" d="M 960.428438 147.63451 
L 988.328438 147.63451 
L 988.328438 122.183772 
L 960.428438 122.183772 
z
" style="fill:#da8bc3;stroke:#ffffff;stroke-linejoin:miter;"/>
   </g>
   <g id="patch_140">
    <path clip-path="url(#p4d0e4ac643)" d="M 1016.228438 127.535469 
L 1044.128438 127.535469 
L 1044.128438 94.389041 
L 1016.228438 94.389041 
z
" style="fill:#da8bc3;stroke:#ffffff;stroke-linejoin:miter;"/>
   </g>
   <g id="patch_141">
    <path clip-path="url(#p4d0e4ac643)" d="M 1072.028438 109.696964 
L 1099.928438 109.696964 
L 1099.928438 73.825964 
L 1072.028438 73.825964 
z
" style="fill:#da8bc3;stroke:#ffffff;stroke-linejoin:miter;"/>
   </g>
   <g id="patch_142">
    <path clip-path="url(#p4d0e4ac643)" d="M 1127.828438 114.086977 
L 1155.728438 114.086977 
L 1155.728438 67.686462 
L 1127.828438 67.686462 
z
" style="fill:#da8bc3;stroke:#ffffff;stroke-linejoin:miter;"/>
   </g>
   <g id="patch_143">
    <path clip-path="url(#p4d0e4ac643)" d="M 67.628438 169.236896 
L 95.528438 169.236896 
L 95.528438 169.22153 
L 67.628438 169.22153 
z
" style="fill:#8c8c8c;stroke:#ffffff;stroke-linejoin:miter;"/>
   </g>
   <g id="patch_144">
    <path clip-path="url(#p4d0e4ac643)" d="M 123.428438 188.312135 
L 151.328438 188.312135 
L 151.328438 188.288998 
L 123.428438 188.288998 
z
" style="fill:#8c8c8c;stroke:#ffffff;stroke-linejoin:miter;"/>
   </g>
   <g id="patch_145">
    <path clip-path="url(#p4d0e4ac643)" d="M 179.228438 177.198166 
L 207.128438 177.198166 
L 207.128438 177.164316 
L 179.228438 177.164316 
z
" style="fill:#8c8c8c;stroke:#ffffff;stroke-linejoin:miter;"/>
   </g>
   <g id="patch_146">
    <path clip-path="url(#p4d0e4ac643)" d="M 235.028438 160.052086 
L 262.928438 160.052086 
L 262.928438 159.994748 
L 235.028438 159.994748 
z
" style="fill:#8c8c8c;stroke:#ffffff;stroke-linejoin:miter;"/>
   </g>
   <g id="patch_147">
    <path clip-path="url(#p4d0e4ac643)" d="M 290.828438 155.669137 
L 318.728438 155.669137 
L 318.728438 155.594326 
L 290.828438 155.594326 
z
" style="fill:#8c8c8c;stroke:#ffffff;stroke-linejoin:miter;"/>
   </g>
   <g id="patch_148">
    <path clip-path="url(#p4d0e4ac643)" d="M 346.628438 142.30026 
L 374.528437 142.30026 
L 374.528437 142.165301 
L 346.628438 142.165301 
z
" style="fill:#8c8c8c;stroke:#ffffff;stroke-linejoin:miter;"/>
   </g>
   <g id="patch_149">
    <path clip-path="url(#p4d0e4ac643)" d="M 402.428438 124.904217 
L 430.328438 124.904217 
L 430.328438 124.758722 
L 402.428438 124.758722 
z
" style="fill:#8c8c8c;stroke:#ffffff;stroke-linejoin:miter;"/>
   </g>
   <g id="patch_150">
    <path clip-path="url(#p4d0e4ac643)" d="M 458.228438 131.132435 
L 486.128438 131.132435 
L 486.128438 130.98229 
L 458.228438 130.98229 
z
" style="fill:#8c8c8c;stroke:#ffffff;stroke-linejoin:miter;"/>
   </g>
   <g id="patch_151">
    <path clip-path="url(#p4d0e4ac643)" d="M 514.028438 139.108157 
L 541.928438 139.108157 
L 541.928438 138.953516 
L 514.028438 138.953516 
z
" style="fill:#8c8c8c;stroke:#ffffff;stroke-linejoin:miter;"/>
   </g>
   <g id="patch_152">
    <path clip-path="url(#p4d0e4ac643)" d="M 569.828438 109.31418 
L 597.728438 109.31418 
L 597.728438 109.157393 
L 569.828438 109.157393 
z
" style="fill:#8c8c8c;stroke:#ffffff;stroke-linejoin:miter;"/>
   </g>
   <g id="patch_153">
    <path clip-path="url(#p4d0e4ac643)" d="M 625.628438 97.975417 
L 653.528438 97.975417 
L 653.528438 97.806565 
L 625.628438 97.806565 
z
" style="fill:#8c8c8c;stroke:#ffffff;stroke-linejoin:miter;"/>
   </g>
   <g id="patch_154">
    <path clip-path="url(#p4d0e4ac643)" d="M 681.428438 74.753535 
L 709.328438 74.753535 
L 709.328438 74.55158 
L 681.428438 74.55158 
z
" style="fill:#8c8c8c;stroke:#ffffff;stroke-linejoin:miter;"/>
   </g>
   <g id="patch_155">
    <path clip-path="url(#p4d0e4ac643)" d="M 737.228438 54.543559 
L 765.128438 54.543559 
L 765.128438 54.282589 
L 737.228438 54.282589 
z
" style="fill:#8c8c8c;stroke:#ffffff;stroke-linejoin:miter;"/>
   </g>
   <g id="patch_156">
    <path clip-path="url(#p4d0e4ac643)" d="M 793.028438 77.188368 
L 820.928438 77.188368 
L 820.928438 76.747825 
L 793.028438 76.747825 
z
" style="fill:#8c8c8c;stroke:#ffffff;stroke-linejoin:miter;"/>
   </g>
   <g id="patch_157">
    <path clip-path="url(#p4d0e4ac643)" d="M 848.828438 123.714236 
L 876.728438 123.714236 
L 876.728438 122.600177 
L 848.828438 122.600177 
z
" style="fill:#8c8c8c;stroke:#ffffff;stroke-linejoin:miter;"/>
   </g>
   <g id="patch_158">
    <path clip-path="url(#p4d0e4ac643)" d="M 904.628438 132.184164 
L 932.528438 132.184164 
L 932.528438 129.919194 
L 904.628438 129.919194 
z
" style="fill:#8c8c8c;stroke:#ffffff;stroke-linejoin:miter;"/>
   </g>
   <g id="patch_159">
    <path clip-path="url(#p4d0e4ac643)" d="M 960.428438 122.183772 
L 988.328438 122.183772 
L 988.328438 118.737363 
L 960.428438 118.737363 
z
" style="fill:#8c8c8c;stroke:#ffffff;stroke-linejoin:miter;"/>
   </g>
   <g id="patch_160">
    <path clip-path="url(#p4d0e4ac643)" d="M 1016.228438 94.389041 
L 1044.128438 94.389041 
L 1044.128438 89.465247 
L 1016.228438 89.465247 
z
" style="fill:#8c8c8c;stroke:#ffffff;stroke-linejoin:miter;"/>
   </g>
   <g id="patch_161">
    <path clip-path="url(#p4d0e4ac643)" d="M 1072.028438 73.825964 
L 1099.928438 73.825964 
L 1099.928438 66.979579 
L 1072.028438 66.979579 
z
" style="fill:#8c8c8c;stroke:#ffffff;stroke-linejoin:miter;"/>
   </g>
   <g id="patch_162">
    <path clip-path="url(#p4d0e4ac643)" d="M 1127.828438 67.686462 
L 1155.728438 67.686462 
L 1155.728438 58.008657 
L 1127.828438 58.008657 
z
" style="fill:#8c8c8c;stroke:#ffffff;stroke-linejoin:miter;"/>
   </g>
   <g id="patch_163">
    <path d="M 53.678438 571.996875 
L 53.678438 28.396875 
" style="fill:none;stroke:#ffffff;stroke-linecap:square;stroke-linejoin:miter;stroke-width:1.25;"/>
   </g>
   <g id="patch_164">
    <path d="M 1169.678437 571.996875 
L 1169.678437 28.396875 
" style="fill:none;stroke:#ffffff;stroke-linecap:square;stroke-linejoin:miter;stroke-width:1.25;"/>
   </g>
   <g id="patch_165">
    <path d="M 53.678438 571.996875 
L 1169.678438 571.996875 
" style="fill:none;stroke:#ffffff;stroke-linecap:square;stroke-linejoin:miter;stroke-width:1.25;"/>
   </g>
   <g id="patch_166">
    <path d="M 53.678438 28.396875 
L 1169.678438 28.396875 
" style="fill:none;stroke:#ffffff;stroke-linecap:square;stroke-linejoin:miter;stroke-width:1.25;"/>
   </g>
   <g id="text_31">
    <!-- Elektriciteit productie Nederland per categorie -->
    <defs>
     <path d="M 9.8125 72.90625 
L 55.90625 72.90625 
L 55.90625 64.59375 
L 19.671875 64.59375 
L 19.671875 43.015625 
L 54.390625 43.015625 
L 54.390625 34.71875 
L 19.671875 34.71875 
L 19.671875 8.296875 
L 56.78125 8.296875 
L 56.78125 0 
L 9.8125 0 
z
" id="DejaVuSans-69"/>
     <path d="M 9.421875 75.984375 
L 18.40625 75.984375 
L 18.40625 0 
L 9.421875 0 
z
" id="DejaVuSans-108"/>
     <path d="M 9.078125 75.984375 
L 18.109375 75.984375 
L 18.109375 31.109375 
L 44.921875 54.6875 
L 56.390625 54.6875 
L 27.390625 29.109375 
L 57.625 0 
L 45.90625 0 
L 18.109375 26.703125 
L 18.109375 0 
L 9.078125 0 
z
" id="DejaVuSans-107"/>
     <path d="M 18.109375 8.203125 
L 18.109375 -20.796875 
L 9.078125 -20.796875 
L 9.078125 54.6875 
L 18.109375 54.6875 
L 18.109375 46.390625 
Q 20.953125 51.265625 25.265625 53.625 
Q 29.59375 56 35.59375 56 
Q 45.5625 56 51.78125 48.09375 
Q 58.015625 40.1875 58.015625 27.296875 
Q 58.015625 14.40625 51.78125 6.484375 
Q 45.5625 -1.421875 35.59375 -1.421875 
Q 29.59375 -1.421875 25.265625 0.953125 
Q 20.953125 3.328125 18.109375 8.203125 
z
M 48.6875 27.296875 
Q 48.6875 37.203125 44.609375 42.84375 
Q 40.53125 48.484375 33.40625 48.484375 
Q 26.265625 48.484375 22.1875 42.84375 
Q 18.109375 37.203125 18.109375 27.296875 
Q 18.109375 17.390625 22.1875 11.75 
Q 26.265625 6.109375 33.40625 6.109375 
Q 40.53125 6.109375 44.609375 11.75 
Q 48.6875 17.390625 48.6875 27.296875 
z
" id="DejaVuSans-112"/>
     <path d="M 9.8125 72.90625 
L 23.09375 72.90625 
L 55.421875 11.921875 
L 55.421875 72.90625 
L 64.984375 72.90625 
L 64.984375 0 
L 51.703125 0 
L 19.390625 60.984375 
L 19.390625 0 
L 9.8125 0 
z
" id="DejaVuSans-78"/>
     <path d="M 54.890625 33.015625 
L 54.890625 0 
L 45.90625 0 
L 45.90625 32.71875 
Q 45.90625 40.484375 42.875 44.328125 
Q 39.84375 48.1875 33.796875 48.1875 
Q 26.515625 48.1875 22.3125 43.546875 
Q 18.109375 38.921875 18.109375 30.90625 
L 18.109375 0 
L 9.078125 0 
L 9.078125 54.6875 
L 18.109375 54.6875 
L 18.109375 46.1875 
Q 21.34375 51.125 25.703125 53.5625 
Q 30.078125 56 35.796875 56 
Q 45.21875 56 50.046875 50.171875 
Q 54.890625 44.34375 54.890625 33.015625 
z
" id="DejaVuSans-110"/>
     <path d="M 45.40625 27.984375 
Q 45.40625 37.75 41.375 43.109375 
Q 37.359375 48.484375 30.078125 48.484375 
Q 22.859375 48.484375 18.828125 43.109375 
Q 14.796875 37.75 14.796875 27.984375 
Q 14.796875 18.265625 18.828125 12.890625 
Q 22.859375 7.515625 30.078125 7.515625 
Q 37.359375 7.515625 41.375 12.890625 
Q 45.40625 18.265625 45.40625 27.984375 
z
M 54.390625 6.78125 
Q 54.390625 -7.171875 48.1875 -13.984375 
Q 42 -20.796875 29.203125 -20.796875 
Q 24.46875 -20.796875 20.265625 -20.09375 
Q 16.0625 -19.390625 12.109375 -17.921875 
L 12.109375 -9.1875 
Q 16.0625 -11.328125 19.921875 -12.34375 
Q 23.78125 -13.375 27.78125 -13.375 
Q 36.625 -13.375 41.015625 -8.765625 
Q 45.40625 -4.15625 45.40625 5.171875 
L 45.40625 9.625 
Q 42.625 4.78125 38.28125 2.390625 
Q 33.9375 0 27.875 0 
Q 17.828125 0 11.671875 7.65625 
Q 5.515625 15.328125 5.515625 27.984375 
Q 5.515625 40.671875 11.671875 48.328125 
Q 17.828125 56 27.875 56 
Q 33.9375 56 38.28125 53.609375 
Q 42.625 51.21875 45.40625 46.390625 
L 45.40625 54.6875 
L 54.390625 54.6875 
z
" id="DejaVuSans-103"/>
    </defs>
    <g style="fill:#262626;" transform="translate(378.795625 22.396875)scale(0.2 -0.2)">
     <use xlink:href="#DejaVuSans-69"/>
     <use x="63.183594" xlink:href="#DejaVuSans-108"/>
     <use x="90.966797" xlink:href="#DejaVuSans-101"/>
     <use x="152.490234" xlink:href="#DejaVuSans-107"/>
     <use x="210.400391" xlink:href="#DejaVuSans-116"/>
     <use x="249.609375" xlink:href="#DejaVuSans-114"/>
     <use x="290.722656" xlink:href="#DejaVuSans-105"/>
     <use x="318.505859" xlink:href="#DejaVuSans-99"/>
     <use x="373.486328" xlink:href="#DejaVuSans-105"/>
     <use x="401.269531" xlink:href="#DejaVuSans-116"/>
     <use x="440.478516" xlink:href="#DejaVuSans-101"/>
     <use x="502.001953" xlink:href="#DejaVuSans-105"/>
     <use x="529.785156" xlink:href="#DejaVuSans-116"/>
     <use x="568.994141" xlink:href="#DejaVuSans-32"/>
     <use x="600.78125" xlink:href="#DejaVuSans-112"/>
     <use x="664.257812" xlink:href="#DejaVuSans-114"/>
     <use x="705.339844" xlink:href="#DejaVuSans-111"/>
     <use x="766.521484" xlink:href="#DejaVuSans-100"/>
     <use x="829.998047" xlink:href="#DejaVuSans-117"/>
     <use x="893.376953" xlink:href="#DejaVuSans-99"/>
     <use x="948.357422" xlink:href="#DejaVuSans-116"/>
     <use x="987.566406" xlink:href="#DejaVuSans-105"/>
     <use x="1015.349609" xlink:href="#DejaVuSans-101"/>
     <use x="1076.873047" xlink:href="#DejaVuSans-32"/>
     <use x="1108.660156" xlink:href="#DejaVuSans-78"/>
     <use x="1183.464844" xlink:href="#DejaVuSans-101"/>
     <use x="1244.988281" xlink:href="#DejaVuSans-100"/>
     <use x="1308.464844" xlink:href="#DejaVuSans-101"/>
     <use x="1369.988281" xlink:href="#DejaVuSans-114"/>
     <use x="1411.101562" xlink:href="#DejaVuSans-108"/>
     <use x="1438.884766" xlink:href="#DejaVuSans-97"/>
     <use x="1500.164062" xlink:href="#DejaVuSans-110"/>
     <use x="1563.542969" xlink:href="#DejaVuSans-100"/>
     <use x="1627.019531" xlink:href="#DejaVuSans-32"/>
     <use x="1658.806641" xlink:href="#DejaVuSans-112"/>
     <use x="1722.283203" xlink:href="#DejaVuSans-101"/>
     <use x="1783.806641" xlink:href="#DejaVuSans-114"/>
     <use x="1824.919922" xlink:href="#DejaVuSans-32"/>
     <use x="1856.707031" xlink:href="#DejaVuSans-99"/>
     <use x="1911.6875" xlink:href="#DejaVuSans-97"/>
     <use x="1972.966797" xlink:href="#DejaVuSans-116"/>
     <use x="2012.175781" xlink:href="#DejaVuSans-101"/>
     <use x="2073.699219" xlink:href="#DejaVuSans-103"/>
     <use x="2137.175781" xlink:href="#DejaVuSans-111"/>
     <use x="2198.357422" xlink:href="#DejaVuSans-114"/>
     <use x="2239.470703" xlink:href="#DejaVuSans-105"/>
     <use x="2267.253906" xlink:href="#DejaVuSans-101"/>
    </g>
   </g>
   <g id="legend_1">
    <g id="patch_167">
     <path d="M 61.378438 166.364375 
L 242.390313 166.364375 
Q 244.590313 166.364375 244.590313 164.164375 
L 244.590313 36.096875 
Q 244.590313 33.896875 242.390313 33.896875 
L 61.378438 33.896875 
Q 59.178438 33.896875 59.178438 36.096875 
L 59.178438 164.164375 
Q 59.178438 166.364375 61.378438 166.364375 
z
" style="fill:#eaeaf2;opacity:0.8;stroke:#cccccc;stroke-linejoin:miter;"/>
    </g>
    <g id="patch_168">
     <path d="M 63.578438 46.655156 
L 85.578438 46.655156 
L 85.578438 38.955156 
L 63.578438 38.955156 
z
" style="fill:#4c72b0;stroke:#ffffff;stroke-linejoin:miter;"/>
    </g>
    <g id="text_32">
     <!-- Gasmotor Mwh -->
     <defs>
      <path d="M 59.515625 10.40625 
L 59.515625 29.984375 
L 43.40625 29.984375 
L 43.40625 38.09375 
L 69.28125 38.09375 
L 69.28125 6.78125 
Q 63.578125 2.734375 56.6875 0.65625 
Q 49.8125 -1.421875 42 -1.421875 
Q 24.90625 -1.421875 15.25 8.5625 
Q 5.609375 18.5625 5.609375 36.375 
Q 5.609375 54.25 15.25 64.234375 
Q 24.90625 74.21875 42 74.21875 
Q 49.125 74.21875 55.546875 72.453125 
Q 61.96875 70.703125 67.390625 67.28125 
L 67.390625 56.78125 
Q 61.921875 61.421875 55.765625 63.765625 
Q 49.609375 66.109375 42.828125 66.109375 
Q 29.4375 66.109375 22.71875 58.640625 
Q 16.015625 51.171875 16.015625 36.375 
Q 16.015625 21.625 22.71875 14.15625 
Q 29.4375 6.6875 42.828125 6.6875 
Q 48.046875 6.6875 52.140625 7.59375 
Q 56.25 8.5 59.515625 10.40625 
z
" id="DejaVuSans-71"/>
      <path d="M 44.28125 53.078125 
L 44.28125 44.578125 
Q 40.484375 46.53125 36.375 47.5 
Q 32.28125 48.484375 27.875 48.484375 
Q 21.1875 48.484375 17.84375 46.4375 
Q 14.5 44.390625 14.5 40.28125 
Q 14.5 37.15625 16.890625 35.375 
Q 19.28125 33.59375 26.515625 31.984375 
L 29.59375 31.296875 
Q 39.15625 29.25 43.1875 25.515625 
Q 47.21875 21.78125 47.21875 15.09375 
Q 47.21875 7.46875 41.1875 3.015625 
Q 35.15625 -1.421875 24.609375 -1.421875 
Q 20.21875 -1.421875 15.453125 -0.5625 
Q 10.6875 0.296875 5.421875 2 
L 5.421875 11.28125 
Q 10.40625 8.6875 15.234375 7.390625 
Q 20.0625 6.109375 24.8125 6.109375 
Q 31.15625 6.109375 34.5625 8.28125 
Q 37.984375 10.453125 37.984375 14.40625 
Q 37.984375 18.0625 35.515625 20.015625 
Q 33.0625 21.96875 24.703125 23.78125 
L 21.578125 24.515625 
Q 13.234375 26.265625 9.515625 29.90625 
Q 5.8125 33.546875 5.8125 39.890625 
Q 5.8125 47.609375 11.28125 51.796875 
Q 16.75 56 26.8125 56 
Q 31.78125 56 36.171875 55.265625 
Q 40.578125 54.546875 44.28125 53.078125 
z
" id="DejaVuSans-115"/>
      <path d="M 52 44.1875 
Q 55.375 50.25 60.0625 53.125 
Q 64.75 56 71.09375 56 
Q 79.640625 56 84.28125 50.015625 
Q 88.921875 44.046875 88.921875 33.015625 
L 88.921875 0 
L 79.890625 0 
L 79.890625 32.71875 
Q 79.890625 40.578125 77.09375 44.375 
Q 74.3125 48.1875 68.609375 48.1875 
Q 61.625 48.1875 57.5625 43.546875 
Q 53.515625 38.921875 53.515625 30.90625 
L 53.515625 0 
L 44.484375 0 
L 44.484375 32.71875 
Q 44.484375 40.625 41.703125 44.40625 
Q 38.921875 48.1875 33.109375 48.1875 
Q 26.21875 48.1875 22.15625 43.53125 
Q 18.109375 38.875 18.109375 30.90625 
L 18.109375 0 
L 9.078125 0 
L 9.078125 54.6875 
L 18.109375 54.6875 
L 18.109375 46.1875 
Q 21.1875 51.21875 25.484375 53.609375 
Q 29.78125 56 35.6875 56 
Q 41.65625 56 45.828125 52.96875 
Q 50 49.953125 52 44.1875 
z
" id="DejaVuSans-109"/>
      <path d="M 4.203125 54.6875 
L 13.1875 54.6875 
L 24.421875 12.015625 
L 35.59375 54.6875 
L 46.1875 54.6875 
L 57.421875 12.015625 
L 68.609375 54.6875 
L 77.59375 54.6875 
L 63.28125 0 
L 52.6875 0 
L 40.921875 44.828125 
L 29.109375 0 
L 18.5 0 
z
" id="DejaVuSans-119"/>
     </defs>
     <g style="fill:#262626;" transform="translate(94.378438 46.655156)scale(0.11 -0.11)">
      <use xlink:href="#DejaVuSans-71"/>
      <use x="77.490234" xlink:href="#DejaVuSans-97"/>
      <use x="138.769531" xlink:href="#DejaVuSans-115"/>
      <use x="190.869141" xlink:href="#DejaVuSans-109"/>
      <use x="288.28125" xlink:href="#DejaVuSans-111"/>
      <use x="349.462891" xlink:href="#DejaVuSans-116"/>
      <use x="388.671875" xlink:href="#DejaVuSans-111"/>
      <use x="449.853516" xlink:href="#DejaVuSans-114"/>
      <use x="490.966797" xlink:href="#DejaVuSans-32"/>
      <use x="522.753906" xlink:href="#DejaVuSans-77"/>
      <use x="609.033203" xlink:href="#DejaVuSans-119"/>
      <use x="690.820312" xlink:href="#DejaVuSans-104"/>
     </g>
    </g>
    <g id="patch_169">
     <path d="M 63.578438 62.801094 
L 85.578438 62.801094 
L 85.578438 55.101094 
L 63.578438 55.101094 
z
" style="fill:#dd8452;stroke:#ffffff;stroke-linejoin:miter;"/>
    </g>
    <g id="text_33">
     <!-- Stoomturbine Mwh -->
     <defs>
      <path d="M 53.515625 70.515625 
L 53.515625 60.890625 
Q 47.90625 63.578125 42.921875 64.890625 
Q 37.9375 66.21875 33.296875 66.21875 
Q 25.25 66.21875 20.875 63.09375 
Q 16.5 59.96875 16.5 54.203125 
Q 16.5 49.359375 19.40625 46.890625 
Q 22.3125 44.4375 30.421875 42.921875 
L 36.375 41.703125 
Q 47.40625 39.59375 52.65625 34.296875 
Q 57.90625 29 57.90625 20.125 
Q 57.90625 9.515625 50.796875 4.046875 
Q 43.703125 -1.421875 29.984375 -1.421875 
Q 24.8125 -1.421875 18.96875 -0.25 
Q 13.140625 0.921875 6.890625 3.21875 
L 6.890625 13.375 
Q 12.890625 10.015625 18.65625 8.296875 
Q 24.421875 6.59375 29.984375 6.59375 
Q 38.421875 6.59375 43.015625 9.90625 
Q 47.609375 13.234375 47.609375 19.390625 
Q 47.609375 24.75 44.3125 27.78125 
Q 41.015625 30.8125 33.5 32.328125 
L 27.484375 33.5 
Q 16.453125 35.6875 11.515625 40.375 
Q 6.59375 45.0625 6.59375 53.421875 
Q 6.59375 63.09375 13.40625 68.65625 
Q 20.21875 74.21875 32.171875 74.21875 
Q 37.3125 74.21875 42.625 73.28125 
Q 47.953125 72.359375 53.515625 70.515625 
z
" id="DejaVuSans-83"/>
      <path d="M 48.6875 27.296875 
Q 48.6875 37.203125 44.609375 42.84375 
Q 40.53125 48.484375 33.40625 48.484375 
Q 26.265625 48.484375 22.1875 42.84375 
Q 18.109375 37.203125 18.109375 27.296875 
Q 18.109375 17.390625 22.1875 11.75 
Q 26.265625 6.109375 33.40625 6.109375 
Q 40.53125 6.109375 44.609375 11.75 
Q 48.6875 17.390625 48.6875 27.296875 
z
M 18.109375 46.390625 
Q 20.953125 51.265625 25.265625 53.625 
Q 29.59375 56 35.59375 56 
Q 45.5625 56 51.78125 48.09375 
Q 58.015625 40.1875 58.015625 27.296875 
Q 58.015625 14.40625 51.78125 6.484375 
Q 45.5625 -1.421875 35.59375 -1.421875 
Q 29.59375 -1.421875 25.265625 0.953125 
Q 20.953125 3.328125 18.109375 8.203125 
L 18.109375 0 
L 9.078125 0 
L 9.078125 75.984375 
L 18.109375 75.984375 
z
" id="DejaVuSans-98"/>
     </defs>
     <g style="fill:#262626;" transform="translate(94.378438 62.801094)scale(0.11 -0.11)">
      <use xlink:href="#DejaVuSans-83"/>
      <use x="63.476562" xlink:href="#DejaVuSans-116"/>
      <use x="102.685547" xlink:href="#DejaVuSans-111"/>
      <use x="163.867188" xlink:href="#DejaVuSans-111"/>
      <use x="225.048828" xlink:href="#DejaVuSans-109"/>
      <use x="322.460938" xlink:href="#DejaVuSans-116"/>
      <use x="361.669922" xlink:href="#DejaVuSans-117"/>
      <use x="425.048828" xlink:href="#DejaVuSans-114"/>
      <use x="466.162109" xlink:href="#DejaVuSans-98"/>
      <use x="529.638672" xlink:href="#DejaVuSans-105"/>
      <use x="557.421875" xlink:href="#DejaVuSans-110"/>
      <use x="620.800781" xlink:href="#DejaVuSans-101"/>
      <use x="682.324219" xlink:href="#DejaVuSans-32"/>
      <use x="714.111328" xlink:href="#DejaVuSans-77"/>
      <use x="800.390625" xlink:href="#DejaVuSans-119"/>
      <use x="882.177734" xlink:href="#DejaVuSans-104"/>
     </g>
    </g>
    <g id="patch_170">
     <path d="M 63.578438 78.947031 
L 85.578438 78.947031 
L 85.578438 71.247031 
L 63.578438 71.247031 
z
" style="fill:#55a868;stroke:#ffffff;stroke-linejoin:miter;"/>
    </g>
    <g id="text_34">
     <!-- Steg-eenheid MWh -->
     <defs>
      <path d="M 4.890625 31.390625 
L 31.203125 31.390625 
L 31.203125 23.390625 
L 4.890625 23.390625 
z
" id="DejaVuSans-45"/>
     </defs>
     <g style="fill:#262626;" transform="translate(94.378438 78.947031)scale(0.11 -0.11)">
      <use xlink:href="#DejaVuSans-83"/>
      <use x="63.476562" xlink:href="#DejaVuSans-116"/>
      <use x="102.685547" xlink:href="#DejaVuSans-101"/>
      <use x="164.208984" xlink:href="#DejaVuSans-103"/>
      <use x="227.685547" xlink:href="#DejaVuSans-45"/>
      <use x="263.769531" xlink:href="#DejaVuSans-101"/>
      <use x="325.292969" xlink:href="#DejaVuSans-101"/>
      <use x="386.816406" xlink:href="#DejaVuSans-110"/>
      <use x="450.195312" xlink:href="#DejaVuSans-104"/>
      <use x="513.574219" xlink:href="#DejaVuSans-101"/>
      <use x="575.097656" xlink:href="#DejaVuSans-105"/>
      <use x="602.880859" xlink:href="#DejaVuSans-100"/>
      <use x="666.357422" xlink:href="#DejaVuSans-32"/>
      <use x="698.144531" xlink:href="#DejaVuSans-77"/>
      <use x="784.423828" xlink:href="#DejaVuSans-87"/>
      <use x="883.300781" xlink:href="#DejaVuSans-104"/>
     </g>
    </g>
    <g id="patch_171">
     <path d="M 63.578438 95.092969 
L 85.578438 95.092969 
L 85.578438 87.392969 
L 63.578438 87.392969 
z
" style="fill:#c44e52;stroke:#ffffff;stroke-linejoin:miter;"/>
    </g>
    <g id="text_35">
     <!-- Gasturbine Mwh -->
     <g style="fill:#262626;" transform="translate(94.378438 95.092969)scale(0.11 -0.11)">
      <use xlink:href="#DejaVuSans-71"/>
      <use x="77.490234" xlink:href="#DejaVuSans-97"/>
      <use x="138.769531" xlink:href="#DejaVuSans-115"/>
      <use x="190.869141" xlink:href="#DejaVuSans-116"/>
      <use x="230.078125" xlink:href="#DejaVuSans-117"/>
      <use x="293.457031" xlink:href="#DejaVuSans-114"/>
      <use x="334.570312" xlink:href="#DejaVuSans-98"/>
      <use x="398.046875" xlink:href="#DejaVuSans-105"/>
      <use x="425.830078" xlink:href="#DejaVuSans-110"/>
      <use x="489.208984" xlink:href="#DejaVuSans-101"/>
      <use x="550.732422" xlink:href="#DejaVuSans-32"/>
      <use x="582.519531" xlink:href="#DejaVuSans-77"/>
      <use x="668.798828" xlink:href="#DejaVuSans-119"/>
      <use x="750.585938" xlink:href="#DejaVuSans-104"/>
     </g>
    </g>
    <g id="patch_172">
     <path d="M 63.578438 111.238906 
L 85.578438 111.238906 
L 85.578438 103.538906 
L 63.578438 103.538906 
z
" style="fill:#8172b3;stroke:#ffffff;stroke-linejoin:miter;"/>
    </g>
    <g id="text_36">
     <!-- Kerncentrale MWh -->
     <defs>
      <path d="M 9.8125 72.90625 
L 19.671875 72.90625 
L 19.671875 42.09375 
L 52.390625 72.90625 
L 65.09375 72.90625 
L 28.90625 38.921875 
L 67.671875 0 
L 54.6875 0 
L 19.671875 35.109375 
L 19.671875 0 
L 9.8125 0 
z
" id="DejaVuSans-75"/>
     </defs>
     <g style="fill:#262626;" transform="translate(94.378438 111.238906)scale(0.11 -0.11)">
      <use xlink:href="#DejaVuSans-75"/>
      <use x="65.498047" xlink:href="#DejaVuSans-101"/>
      <use x="127.021484" xlink:href="#DejaVuSans-114"/>
      <use x="168.119141" xlink:href="#DejaVuSans-110"/>
      <use x="231.498047" xlink:href="#DejaVuSans-99"/>
      <use x="286.478516" xlink:href="#DejaVuSans-101"/>
      <use x="348.001953" xlink:href="#DejaVuSans-110"/>
      <use x="411.380859" xlink:href="#DejaVuSans-116"/>
      <use x="450.589844" xlink:href="#DejaVuSans-114"/>
      <use x="491.703125" xlink:href="#DejaVuSans-97"/>
      <use x="552.982422" xlink:href="#DejaVuSans-108"/>
      <use x="580.765625" xlink:href="#DejaVuSans-101"/>
      <use x="642.289062" xlink:href="#DejaVuSans-32"/>
      <use x="674.076172" xlink:href="#DejaVuSans-77"/>
      <use x="760.355469" xlink:href="#DejaVuSans-87"/>
      <use x="859.232422" xlink:href="#DejaVuSans-104"/>
     </g>
    </g>
    <g id="patch_173">
     <path d="M 63.578438 127.384844 
L 85.578438 127.384844 
L 85.578438 119.684844 
L 63.578438 119.684844 
z
" style="fill:#937860;stroke:#ffffff;stroke-linejoin:miter;"/>
    </g>
    <g id="text_37">
     <!-- Waterkrachtcentrale  Mwh -->
     <g style="fill:#262626;" transform="translate(94.378438 127.384844)scale(0.11 -0.11)">
      <use xlink:href="#DejaVuSans-87"/>
      <use x="98.783203" xlink:href="#DejaVuSans-97"/>
      <use x="160.0625" xlink:href="#DejaVuSans-116"/>
      <use x="199.271484" xlink:href="#DejaVuSans-101"/>
      <use x="260.794922" xlink:href="#DejaVuSans-114"/>
      <use x="301.908203" xlink:href="#DejaVuSans-107"/>
      <use x="359.818359" xlink:href="#DejaVuSans-114"/>
      <use x="400.931641" xlink:href="#DejaVuSans-97"/>
      <use x="462.210938" xlink:href="#DejaVuSans-99"/>
      <use x="517.191406" xlink:href="#DejaVuSans-104"/>
      <use x="580.570312" xlink:href="#DejaVuSans-116"/>
      <use x="619.779297" xlink:href="#DejaVuSans-99"/>
      <use x="674.759766" xlink:href="#DejaVuSans-101"/>
      <use x="736.283203" xlink:href="#DejaVuSans-110"/>
      <use x="799.662109" xlink:href="#DejaVuSans-116"/>
      <use x="838.871094" xlink:href="#DejaVuSans-114"/>
      <use x="879.984375" xlink:href="#DejaVuSans-97"/>
      <use x="941.263672" xlink:href="#DejaVuSans-108"/>
      <use x="969.046875" xlink:href="#DejaVuSans-101"/>
      <use x="1030.570312" xlink:href="#DejaVuSans-32"/>
      <use x="1062.357422" xlink:href="#DejaVuSans-32"/>
      <use x="1094.144531" xlink:href="#DejaVuSans-77"/>
      <use x="1180.423828" xlink:href="#DejaVuSans-119"/>
      <use x="1262.210938" xlink:href="#DejaVuSans-104"/>
     </g>
    </g>
    <g id="patch_174">
     <path d="M 63.578438 143.530781 
L 85.578438 143.530781 
L 85.578438 135.830781 
L 63.578438 135.830781 
z
" style="fill:#da8bc3;stroke:#ffffff;stroke-linejoin:miter;"/>
    </g>
    <g id="text_38">
     <!-- Windturbine Mwh -->
     <g style="fill:#262626;" transform="translate(94.378438 143.530781)scale(0.11 -0.11)">
      <use xlink:href="#DejaVuSans-87"/>
      <use x="98.845703" xlink:href="#DejaVuSans-105"/>
      <use x="126.628906" xlink:href="#DejaVuSans-110"/>
      <use x="190.007812" xlink:href="#DejaVuSans-100"/>
      <use x="253.484375" xlink:href="#DejaVuSans-116"/>
      <use x="292.693359" xlink:href="#DejaVuSans-117"/>
      <use x="356.072266" xlink:href="#DejaVuSans-114"/>
      <use x="397.185547" xlink:href="#DejaVuSans-98"/>
      <use x="460.662109" xlink:href="#DejaVuSans-105"/>
      <use x="488.445312" xlink:href="#DejaVuSans-110"/>
      <use x="551.824219" xlink:href="#DejaVuSans-101"/>
      <use x="613.347656" xlink:href="#DejaVuSans-32"/>
      <use x="645.134766" xlink:href="#DejaVuSans-77"/>
      <use x="731.414062" xlink:href="#DejaVuSans-119"/>
      <use x="813.201172" xlink:href="#DejaVuSans-104"/>
     </g>
    </g>
    <g id="patch_175">
     <path d="M 63.578438 159.676719 
L 85.578438 159.676719 
L 85.578438 151.976719 
L 63.578438 151.976719 
z
" style="fill:#8c8c8c;stroke:#ffffff;stroke-linejoin:miter;"/>
    </g>
    <g id="text_39">
     <!-- Zonnecellen  Mwh -->
     <defs>
      <path d="M 5.609375 72.90625 
L 62.890625 72.90625 
L 62.890625 65.375 
L 16.796875 8.296875 
L 64.015625 8.296875 
L 64.015625 0 
L 4.5 0 
L 4.5 7.515625 
L 50.59375 64.59375 
L 5.609375 64.59375 
z
" id="DejaVuSans-90"/>
     </defs>
     <g style="fill:#262626;" transform="translate(94.378438 159.676719)scale(0.11 -0.11)">
      <use xlink:href="#DejaVuSans-90"/>
      <use x="68.505859" xlink:href="#DejaVuSans-111"/>
      <use x="129.6875" xlink:href="#DejaVuSans-110"/>
      <use x="193.066406" xlink:href="#DejaVuSans-110"/>
      <use x="256.445312" xlink:href="#DejaVuSans-101"/>
      <use x="317.96875" xlink:href="#DejaVuSans-99"/>
      <use x="372.949219" xlink:href="#DejaVuSans-101"/>
      <use x="434.472656" xlink:href="#DejaVuSans-108"/>
      <use x="462.255859" xlink:href="#DejaVuSans-108"/>
      <use x="490.039062" xlink:href="#DejaVuSans-101"/>
      <use x="551.5625" xlink:href="#DejaVuSans-110"/>
      <use x="614.941406" xlink:href="#DejaVuSans-32"/>
      <use x="646.728516" xlink:href="#DejaVuSans-32"/>
      <use x="678.515625" xlink:href="#DejaVuSans-77"/>
      <use x="764.794922" xlink:href="#DejaVuSans-119"/>
      <use x="846.582031" xlink:href="#DejaVuSans-104"/>
     </g>
    </g>
   </g>
  </g>
 </g>
 <defs>
  <clipPath id="p4d0e4ac643">
   <rect height="543.6" width="1116" x="53.678438" y="28.396875"/>
  </clipPath>
 </defs>
</svg>
