<?xml version="1.0" encoding="UTF-8" standalone="no"?>
<!DOCTYPE svg PUBLIC "-//W3C//DTD SVG 1.1//EN"
 "http://www.w3.org/Graphics/SVG/1.1/DTD/svg11.dtd">
<!-- Generated by graphviz version 2.40.1 (20161225.0304)
 -->
<!-- Title: %3 Pages: 1 -->
<svg width="576pt" height="131pt"
 viewBox="0.00 0.00 576.00 131.50" xmlns="http://www.w3.org/2000/svg" xmlns:xlink="http://www.w3.org/1999/xlink">
<g id="graph0" class="graph" transform="scale(.6174 .6174) rotate(0) translate(4 209)">
<title>%3</title>
<polygon fill="#ffffff" stroke="transparent" points="-4,4 -4,-209 929,-209 929,4 -4,4"/>
<g id="clust1" class="cluster">
<title>cluster_0</title>
</g>
<!-- src -->
<g id="node1" class="node">
<title>src</title>
<g id="a_node1"><a xlink:title="src (SRC)">
<ellipse fill="none" stroke="#000000" cx="26" cy="-113" rx="18" ry="18"/>
<text text-anchor="middle" x="26" y="-109.3" font-family="arial" font-size="14.00" fill="#000000">src</text>
</a>
</g>
</g>
<!-- src&#45;&gt;src -->
<g id="edge1" class="edge">
<title>src&#45;&gt;src</title>
<path fill="none" stroke="#feba2c" d="M22.7643,-130.7817C22.2144,-140.3149 23.293,-149 26,-149 27.6496,-149 28.6945,-145.7749 29.1347,-141.0981"/>
<polygon fill="#feba2c" stroke="#feba2c" points="32.6375,-140.8156 29.2357,-130.7817 25.6379,-140.7469 32.6375,-140.8156"/>
<g id="a_edge1&#45;label"><a xlink:title="src!1: src.O[1]&#45;&gt;src.I[0]">
<text text-anchor="middle" x="26" y="-152.8" font-family="arial" font-size="14.00" fill="#c0c0c0">src!1</text>
</a>
</g>
</g>
<!-- src&#45;&gt;src -->
<g id="edge2" class="edge">
<title>src&#45;&gt;src</title>
<path fill="none" stroke="#feba2c" d="M20.6841,-130.4203C17.6538,-147.791 19.4258,-167 26,-167 31.2902,-167 33.4708,-154.5617 32.5419,-140.652"/>
<polygon fill="#feba2c" stroke="#feba2c" points="35.9808,-139.9328 31.3159,-130.4203 29.0305,-140.7657 35.9808,-139.9328"/>
<g id="a_edge2&#45;label"><a xlink:title="src!2: src.O[2]&#45;&gt;src.I[1]">
<text text-anchor="middle" x="26" y="-170.8" font-family="arial" font-size="14.00" fill="#c0c0c0">src!2</text>
</a>
</g>
</g>
<!-- ovlp -->
<g id="node2" class="node">
<title>ovlp</title>
<g id="a_node2"><a xlink:title="ovlp (OverLap)">
<ellipse fill="none" stroke="#000000" cx="166" cy="-113" rx="18" ry="18"/>
<text text-anchor="middle" x="166" y="-109.3" font-family="arial" font-size="14.00" fill="#000000">ovlp</text>
</a>
</g>
</g>
<!-- src&#45;&gt;ovlp -->
<g id="edge3" class="edge">
<title>src&#45;&gt;ovlp</title>
<path fill="none" stroke="#feba2c" d="M44.0159,-113C67.6171,-113 109.2802,-113 137.2626,-113"/>
<polygon fill="#feba2c" stroke="#feba2c" points="137.6087,-116.5001 147.6086,-113 137.6086,-109.5001 137.6087,-116.5001"/>
<g id="a_edge3&#45;label"><a xlink:title="src!0: src.O[0]&#45;&gt;ovlp.I[0]">
<text text-anchor="middle" x="96" y="-116.8" font-family="arial" font-size="14.00" fill="#c0c0c0">src!0</text>
</a>
</g>
</g>
<!-- ovlp&#45;&gt;ovlp -->
<g id="edge4" class="edge">
<title>ovlp&#45;&gt;ovlp</title>
<path fill="none" stroke="#f48849" d="M162.7643,-130.7817C162.2144,-140.3149 163.293,-149 166,-149 167.6496,-149 168.6945,-145.7749 169.1347,-141.0981"/>
<polygon fill="#f48849" stroke="#f48849" points="172.6375,-140.8156 169.2357,-130.7817 165.6379,-140.7469 172.6375,-140.8156"/>
<g id="a_edge4&#45;label"><a xlink:title="ovlp!1: ovlp.O[1]&#45;&gt;ovlp.I[1]">
<text text-anchor="middle" x="166" y="-152.8" font-family="arial" font-size="14.00" fill="#c0c0c0">ovlp!1</text>
</a>
</g>
</g>
<!-- ovlp&#45;&gt;ovlp -->
<g id="edge5" class="edge">
<title>ovlp&#45;&gt;ovlp</title>
<path fill="none" stroke="#f48849" d="M160.6841,-130.4203C157.6538,-147.791 159.4258,-167 166,-167 171.2902,-167 173.4708,-154.5617 172.5419,-140.652"/>
<polygon fill="#f48849" stroke="#f48849" points="175.9808,-139.9328 171.3159,-130.4203 169.0305,-140.7657 175.9808,-139.9328"/>
<g id="a_edge5&#45;label"><a xlink:title="ovlp!2: ovlp.O[2]&#45;&gt;ovlp.I[2]">
<text text-anchor="middle" x="166" y="-170.8" font-family="arial" font-size="14.00" fill="#c0c0c0">ovlp!2</text>
</a>
</g>
</g>
<!-- fft -->
<g id="node3" class="node">
<title>fft</title>
<g id="a_node3"><a xlink:title="fft (Node)">
<ellipse fill="none" stroke="#000000" cx="313" cy="-96" rx="18" ry="18"/>
<text text-anchor="middle" x="313" y="-92.3" font-family="arial" font-size="14.00" fill="#000000">fft</text>
</a>
</g>
</g>
<!-- ovlp&#45;&gt;fft -->
<g id="edge6" class="edge">
<title>ovlp&#45;&gt;fft</title>
<path fill="none" stroke="#f48849" d="M184.0251,-110.9155C209.1525,-108.0096 254.9607,-102.712 284.676,-99.2756"/>
<polygon fill="#f48849" stroke="#f48849" points="285.2958,-102.7273 294.8275,-98.1016 284.4916,-95.7736 285.2958,-102.7273"/>
<g id="a_edge6&#45;label"><a xlink:title="ovlp!0: ovlp.O[0]&#45;&gt;fft.I[0]">
<text text-anchor="middle" x="239.5" y="-109.8" font-family="arial" font-size="14.00" fill="#c0c0c0">ovlp!0</text>
</a>
</g>
</g>
<!-- mlpl -->
<g id="node6" class="node">
<title>mlpl</title>
<g id="a_node6"><a xlink:title="mlpl (Node)">
<ellipse fill="none" stroke="#000000" cx="464" cy="-56" rx="18" ry="18"/>
<text text-anchor="middle" x="464" y="-52.3" font-family="arial" font-size="14.00" fill="#000000">mlpl</text>
</a>
</g>
</g>
<!-- fft&#45;&gt;mlpl -->
<g id="edge9" class="edge">
<title>fft&#45;&gt;mlpl</title>
<path fill="none" stroke="#da5b69" d="M330.6171,-91.3332C356.7582,-84.4084 406.0361,-71.3547 436.8232,-63.1991"/>
<polygon fill="#da5b69" stroke="#da5b69" points="437.7247,-66.5811 446.4951,-60.6371 435.9322,-59.8145 437.7247,-66.5811"/>
<g id="a_edge9&#45;label"><a xlink:title="fft!0: fft.O[0]&#45;&gt;mlpl.I[0]">
<text text-anchor="middle" x="388.5" y="-84.8" font-family="arial" font-size="14.00" fill="#c0c0c0">fft!0</text>
</a>
</g>
</g>
<!-- dm -->
<g id="node4" class="node">
<title>dm</title>
<g id="a_node4"><a xlink:title="dm (SRC)">
<ellipse fill="none" stroke="#000000" cx="166" cy="-26" rx="18" ry="18"/>
<text text-anchor="middle" x="166" y="-22.3" font-family="arial" font-size="14.00" fill="#000000">dm</text>
</a>
</g>
</g>
<!-- dm&#45;&gt;dm -->
<g id="edge7" class="edge">
<title>dm&#45;&gt;dm</title>
<path fill="none" stroke="#feba2c" d="M159.6208,-43.0373C158.3189,-52.8579 160.4453,-62 166,-62 169.4717,-62 171.6042,-58.4289 172.3975,-53.3529"/>
<polygon fill="#feba2c" stroke="#feba2c" points="175.8971,-53.031 172.3792,-43.0373 168.8971,-53.0435 175.8971,-53.031"/>
<g id="a_edge7&#45;label"><a xlink:title="dm!1: dm.O[1]&#45;&gt;dm.I[0]">
<text text-anchor="middle" x="166" y="-65.8" font-family="arial" font-size="14.00" fill="#c0c0c0">dm!1</text>
</a>
</g>
</g>
<!-- chirp -->
<g id="node5" class="node">
<title>chirp</title>
<g id="a_node5"><a xlink:title="chirp (Node)">
<ellipse fill="none" stroke="#000000" cx="313" cy="-26" rx="18" ry="18"/>
<text text-anchor="middle" x="313" y="-22.3" font-family="arial" font-size="14.00" fill="#000000">chirp</text>
</a>
</g>
</g>
<!-- dm&#45;&gt;chirp -->
<g id="edge8" class="edge">
<title>dm&#45;&gt;chirp</title>
<path fill="none" stroke="#feba2c" d="M184.0251,-26C209.1525,-26 254.9607,-26 284.676,-26"/>
<polygon fill="#feba2c" stroke="#feba2c" points="284.8275,-29.5001 294.8275,-26 284.8274,-22.5001 284.8275,-29.5001"/>
<g id="a_edge8&#45;label"><a xlink:title="dm!0: dm.O[0]&#45;&gt;chirp.I[0]">
<text text-anchor="middle" x="239.5" y="-29.8" font-family="arial" font-size="14.00" fill="#c0c0c0">dm!0</text>
</a>
</g>
</g>
<!-- chirp&#45;&gt;mlpl -->
<g id="edge10" class="edge">
<title>chirp&#45;&gt;mlpl</title>
<path fill="none" stroke="#f48849" d="M330.9146,-29.5592C356.9109,-34.724 405.3324,-44.3442 436.0483,-50.4467"/>
<polygon fill="#f48849" stroke="#f48849" points="435.6183,-53.9296 446.1087,-52.4454 436.9824,-47.0638 435.6183,-53.9296"/>
<g id="a_edge10&#45;label"><a xlink:title="chirp!0: chirp.O[0]&#45;&gt;mlpl.I[1]">
<text text-anchor="middle" x="388.5" y="-47.8" font-family="arial" font-size="14.00" fill="#c0c0c0">chirp!0</text>
</a>
</g>
</g>
<!-- ifft -->
<g id="node7" class="node">
<title>ifft</title>
<g id="a_node7"><a xlink:title="ifft (Node)">
<ellipse fill="none" stroke="#000000" cx="611" cy="-56" rx="18" ry="18"/>
<text text-anchor="middle" x="611" y="-52.3" font-family="arial" font-size="14.00" fill="#000000">ifft</text>
</a>
</g>
</g>
<!-- mlpl&#45;&gt;ifft -->
<g id="edge11" class="edge">
<title>mlpl&#45;&gt;ifft</title>
<path fill="none" stroke="#b83289" d="M482.0251,-56C507.1525,-56 552.9607,-56 582.676,-56"/>
<polygon fill="#b83289" stroke="#b83289" points="582.8275,-59.5001 592.8275,-56 582.8274,-52.5001 582.8275,-59.5001"/>
<g id="a_edge11&#45;label"><a xlink:title="mlpl!0: mlpl.O[0]&#45;&gt;ifft.I[0]">
<text text-anchor="middle" x="537.5" y="-59.8" font-family="arial" font-size="14.00" fill="#c0c0c0">mlpl!0</text>
</a>
</g>
</g>
<!-- unpd -->
<g id="node8" class="node">
<title>unpd</title>
<g id="a_node8"><a xlink:title="unpd (Node)">
<ellipse fill="none" stroke="#000000" cx="747" cy="-56" rx="18" ry="18"/>
<text text-anchor="middle" x="747" y="-52.3" font-family="arial" font-size="14.00" fill="#000000">unpd</text>
</a>
</g>
</g>
<!-- ifft&#45;&gt;unpd -->
<g id="edge12" class="edge">
<title>ifft&#45;&gt;unpd</title>
<path fill="none" stroke="#8a09a5" d="M629.0597,-56C651.9217,-56 691.5686,-56 718.5239,-56"/>
<polygon fill="#8a09a5" stroke="#8a09a5" points="718.8656,-59.5001 728.8656,-56 718.8655,-52.5001 718.8656,-59.5001"/>
<g id="a_edge12&#45;label"><a xlink:title="ifft!0: ifft.O[0]&#45;&gt;unpd.I[0]">
<text text-anchor="middle" x="679" y="-59.8" font-family="arial" font-size="14.00" fill="#c0c0c0">ifft!0</text>
</a>
</g>
</g>
<!-- snk -->
<g id="node9" class="node">
<title>snk</title>
<g id="a_node9"><a xlink:title="snk (Node)">
<ellipse fill="none" stroke="#000000" cx="899" cy="-56" rx="18" ry="18"/>
<text text-anchor="middle" x="899" y="-52.3" font-family="arial" font-size="14.00" fill="#000000">snk</text>
</a>
</g>
</g>
<!-- unpd&#45;&gt;snk -->
<g id="edge13" class="edge">
<title>unpd&#45;&gt;snk</title>
<path fill="none" stroke="#5502a4" d="M765.0333,-56C791.2017,-56 839.9439,-56 870.8632,-56"/>
<polygon fill="#5502a4" stroke="#5502a4" points="870.9902,-59.5001 880.9902,-56 870.9901,-52.5001 870.9902,-59.5001"/>
<g id="a_edge13&#45;label"><a xlink:title="unpd!0: unpd.O[0]&#45;&gt;snk.I[0]">
<text text-anchor="middle" x="823" y="-59.8" font-family="arial" font-size="14.00" fill="#c0c0c0">unpd!0</text>
</a>
</g>
</g>
</g>
</svg>
